<?xml version="1.0" encoding="UTF-8" standalone="no"?>
<svg
   xmlns:osb="http://www.openswatchbook.org/uri/2009/osb"
   xmlns:dc="http://purl.org/dc/elements/1.1/"
   xmlns:cc="http://creativecommons.org/ns#"
   xmlns:rdf="http://www.w3.org/1999/02/22-rdf-syntax-ns#"
   xmlns:svg="http://www.w3.org/2000/svg"
   xmlns="http://www.w3.org/2000/svg"
   xmlns:xlink="http://www.w3.org/1999/xlink"
   xmlns:sodipodi="http://sodipodi.sourceforge.net/DTD/sodipodi-0.dtd"
   xmlns:inkscape="http://www.inkscape.org/namespaces/inkscape"
   viewBox="0 0 279.68503 396.85037"
   version="1.1"
   id="svg114"
   sodipodi:docname="a02.svg"
   inkscape:version="1.0.2 (e86c870879, 2021-01-15)"
   width="74mm"
   height="105mm"
   inkscape:export-filename="/home/l3d/Downloads/r2r-Design/testanima/a01.png"
   inkscape:export-xdpi="175.74055"
   inkscape:export-ydpi="175.74055">
  <metadata
     id="metadata118">
    <rdf:RDF>
      <cc:Work
         rdf:about="">
        <dc:format>image/svg+xml</dc:format>
        <dc:type
           rdf:resource="http://purl.org/dc/dcmitype/StillImage" />
        <dc:title></dc:title>
      </cc:Work>
    </rdf:RDF>
  </metadata>
  <sodipodi:namedview
     pagecolor="#ffffff"
     bordercolor="#666666"
     borderopacity="1"
     objecttolerance="10"
     gridtolerance="10"
     guidetolerance="10"
     inkscape:pageopacity="0"
     inkscape:pageshadow="2"
     inkscape:window-width="3836"
     inkscape:window-height="2105"
     id="namedview116"
     showgrid="false"
     inkscape:zoom="4.7894342"
     inkscape:cx="184.80062"
     inkscape:cy="226.63294"
     inkscape:window-x="2560"
     inkscape:window-y="53"
     inkscape:window-maximized="0"
     inkscape:current-layer="layer3"
     units="mm" />
  <defs
     id="defs4">
    <linearGradient
       inkscape:collect="always"
       id="linearGradient3483">
      <stop
         style="stop-color:#0066ff;stop-opacity:1"
         offset="0"
         id="stop3487" />
      <stop
         style="stop-color:#2ad4ff;stop-opacity:1"
         offset="1"
         id="stop3489" />
    </linearGradient>
    <linearGradient
       id="linearGradient3475"
       osb:paint="solid">
      <stop
         style="stop-color:#ff0000;stop-opacity:1;"
         offset="0"
         id="stop3473" />
    </linearGradient>
    <style
       id="style2">.a{fill:#181716;opacity:0.31;}.b{fill:#20032a;}.c{fill:#d10369;}.d{fill:#494546;}.e{fill:#232322;}.f{fill:#3a3a39;}.g{fill:#2c053a;}.h{fill:#e10880;}.i{fill:#5e5a5c;}.j{fill:#737172;}.k{fill:#ee7400;}.l{fill:#3d7c2f;}.m{fill:#b26102;}.n{fill:#30ac5a;}.o{fill:#069951;}</style>
    <linearGradient
       inkscape:collect="always"
       xlink:href="#linearGradient3483"
       id="linearGradient3485"
       x1="68.199944"
       y1="265.48984"
       x2="230.18843"
       y2="11.386665"
       gradientUnits="userSpaceOnUse" />
  </defs>
  <g
     inkscape:groupmode="layer"
     id="layer2"
     inkscape:label="bg"
     style="display:none"
     sodipodi:insensitive="true">
    <ellipse
       class="a"
       cx="139.64854"
       cy="313.95898"
       rx="73.989998"
       ry="28.34"
       id="ellipse6"
       style="opacity:0.31;fill:#181716" />
    <path
       class="b"
       d="m 96.498547,231.04899 c -1.22,8.91 -2.81,21.15 -4.43,35.76 -3.89,35.09 -2.92,38.31 -1.67,40.75 13.440003,26.25 91.400003,23.49 102.840003,-2.63 2.11,-4.82 0.77,-7.7 -2.4,-35.48 -1.76,-15.53 -2.9,-28.33 -3.61,-37"
       id="path8"
       style="fill:#20032a" />
    <path
       class="c"
       d="m 94.508547,219.47899 a 17.64,17.64 0 0 0 -0.2,10.9 166.61,166.61 0 0 0 95.340003,1.43 c 1.49,-4.6 2.26,-10 0.05,-14.84 -10.76,-23.6 -86.05,-21.26 -95.190003,2.51 z"
       id="path10"
       style="fill:#d10369" />
    <path
       class="d"
       d="m 141.30855,201.40899 c 19.76,-0.6 42.12,4.1 47.53,15.95 l 0.21,0.5 c 0.55,-0.3 1.14,-0.56 1.72,-0.82 l -0.21,-0.47 c -2.64,-5.79 -9.14,-10.44 -18.79,-13.44 -8.57,-2.67 -19.4,-3.95 -30.52,-3.61 -11.12,0.34 -21.65,2.24 -29.94,5.36 -8.72,3.29 -14.620003,7.8 -17.180003,13.11 0.56,0.28 1.12,0.56 1.71,0.82 5.380003,-11.21 26.470003,-16.82 45.470003,-17.4 z"
       id="path12"
       style="fill:#494546" />
    <path
       class="b"
       d="m 93.818547,171.26899 c -3.08,1 -18,5.73 -20.49,16.9 -2.84,12.47 11.61,24.5 13.84,26.3 11.28,9.12 29.550003,9.06 65.630003,8.58 18.43,-0.24 32.1,-1.32 46,-9.35 4.63,-2.66 13.74,-8 13.31,-14.38 -0.38,-5.63 -8.12,-9.29 -19.29,-14.58 a 106.66,106.66 0 0 0 -26.81,-9.27 c -12.75,-2.59 -14.07,-0.76 -34,-2.4 -23.92,-1.96 -28,-5.06 -38.190003,-1.8 z"
       id="path14"
       style="fill:#20032a" />
    <path
       class="e"
       d="m 138.81855,207.82899 c 21.6,1.26 45,-5.18 44.95,-10.68 -0.05,-5.5 -24,-10.2 -41.34,-11 -18.53,-0.8 -43.000003,2.27 -43.460003,7.85 -0.43,5.33 20.640003,12.72 39.850003,13.83 z"
       id="path16"
       style="fill:#232322" />
    <path
       class="f"
       d="m 144.43855,208.93899 c -1.89,0 -3.79,-0.05 -5.67,-0.16 -16.41,-1 -34.9,-6.5 -39.570003,-11.87 a 4,4 0 0 1 -1.19,-2.94 c 0.26,-3.12 5.550003,-5.54 15.750003,-7.17 a 151.15,151.15 0 0 1 28.7,-1.54 155.15,155.15 0 0 1 27.35,3.7 52.52,52.52 0 0 1 10.33,3.39 c 3.06,1.5 4.56,3.06 4.57,4.8 a 4.13,4.13 0 0 1 -1.52,3 c -4.73,4.45 -21.53,8.79 -38.75,8.79 z m -5.56,-2.05 c 18.28,1.06 38.14,-3.51 43,-8.14 a 2.51,2.51 0 0 0 0.93,-1.59 c 0,-1.52 -3.55,-4 -13.44,-6.36 a 153.88,153.88 0 0 0 -27,-3.65 149.62,149.62 0 0 0 -28.32,1.52 c -10.26,1.65 -14,4 -14.160003,5.46 a 2.41,2.41 0 0 0 0.720003,1.53 c 3.92,4.48 21.1,10.23 38.27,11.23 z"
       id="path18"
       style="fill:#3a3a39" />
    <path
       class="g"
       d="m 103.14855,232.89899 16.86,3.7 q -3.53,43 -7,86 a 67.06,67.06 0 0 1 -17.250003,-8.33 z"
       id="path20"
       style="fill:#2c053a" />
    <path
       class="g"
       d="m 165.51855,236.52899 1.62,64.37 q 1.81,-32.28 3.61,-64.54 z"
       id="path22"
       style="fill:#2c053a" />
    <path
       class="f"
       d="m 139.12855,326.88899 a 96.64,96.64 0 0 1 -28.86,-4.08 c -10.26,-3.31 -17.450003,-8.43 -20.720003,-14.81 -0.71,-1.39 -1.28,-3 -1.19,-8.59 0.1,-6.16 1,-16.55 2.77,-32.71 1.33,-11.94 2.82,-24 4.43,-35.78 a 0.95,0.95 0 1 1 1.88,0.26 c -1.61,11.78 -3.1,23.81 -4.42,35.73 -3.69,33.27 -3,37.78 -1.78,40.22 3,5.92 9.810003,10.72 19.610003,13.87 9,2.89 20.23,4.28 31.76,3.93 11.53,-0.35 22.57,-2.39 31.31,-5.77 9.49,-3.67 15.87,-8.72 18.45,-14.62 1.45,-3.29 1.13,-5.77 -0.37,-17.65 -0.56,-4.45 -1.26,-10 -2.1,-17.34 -1.4,-12.34 -2.62,-24.79 -3.61,-37 a 1,1 0 0 1 0.87,-1 1,1 0 0 1 1,0.87 c 1,12.2 2.2,24.63 3.61,37 0.83,7.35 1.53,12.87 2.09,17.31 1.56,12.31 1.88,14.88 0.23,18.66 -2.79,6.36 -9.53,11.76 -19.51,15.62 -8.93,3.45 -20.28,5.55 -31.94,5.9 -1.16,-0.04 -2.33,-0.02 -3.51,-0.02 z"
       id="path24"
       style="fill:#3a3a39" />
    <path
       class="f"
       d="m 112.79855,177.81899 a 40.11,40.11 0 0 0 -8.12,-0.15 31.7,31.7 0 0 0 -4,0.58 30.76,30.76 0 0 0 -3.880003,1 47.64,47.64 0 0 0 -7.46,3 20.42,20.42 0 0 0 -3.29,2.14 9.59,9.59 0 0 0 -2.45,2.85 6.17,6.17 0 0 0 -0.63,1.71 7.42,7.42 0 0 0 -0.12,1.83 10,10 0 0 0 0.31,1.86 l 0.14,0.46 a 3.53,3.53 0 0 0 0.15,0.46 l 0.17,0.45 0.19,0.45 a 18.43,18.43 0 0 0 2,3.4 27.38,27.38 0 0 0 2.56,3.05 36.27,36.27 0 0 0 2.95,2.72 38.49,38.49 0 0 0 3.23,2.44 c 1.11,0.77 2.26,1.48 3.43,2.17 1.17,0.69 2.380003,1.31 3.600003,1.93 -1.29,-0.46 -2.550003,-1 -3.790003,-1.56 -1.24,-0.56 -2.45,-1.22 -3.64,-1.91 a 36.5,36.5 0 0 1 -6.62,-5 26.65,26.65 0 0 1 -2.8,-3.1 19.09,19.09 0 0 1 -2.21,-3.6 l -0.22,-0.49 -0.19,-0.5 c -0.14,-0.33 -0.23,-0.69 -0.34,-1 a 11.13,11.13 0 0 1 -0.38,-2.15 8.8,8.8 0 0 1 0.13,-2.23 7.86,7.86 0 0 1 0.77,-2.13 11,11 0 0 1 2.85,-3.29 19.72,19.72 0 0 1 3.58,-2.25 34.58,34.58 0 0 1 3.83,-1.62 c 1.3,-0.48 2.61,-0.88 3.93,-1.24 a 32.33,32.33 0 0 1 16.340003,-0.32 z"
       id="path26"
       style="fill:#3a3a39" />
    <path
       class="f"
       d="m 107.50855,182.85899 a 25.16,25.16 0 0 0 -10.420003,1.15 30.79,30.79 0 0 0 -4.83,2 12.38,12.38 0 0 0 -2.11,1.38 5.91,5.91 0 0 0 -1.54,1.79 5.09,5.09 0 0 0 0.13,4.51 15.06,15.06 0 0 0 2.89,4.18 c 0.6,0.63 1.23,1.22 1.9,1.8 0.67,0.58 1.35,1.11 2.07,1.62 0.72,0.51 1.46,1 2.22,1.46 0.76,0.46 1.53,0.9 2.320003,1.33 a 26.51,26.51 0 0 1 -2.520003,-0.95 c -0.82,-0.37 -1.62,-0.78 -2.42,-1.21 a 23.34,23.34 0 0 1 -4.41,-3.21 17.42,17.42 0 0 1 -1.88,-2 12.19,12.19 0 0 1 -1.48,-2.4 9.44,9.44 0 0 1 -0.52,-1.35 8.74,8.74 0 0 1 -0.26,-1.46 6.06,6.06 0 0 1 0.09,-1.53 5.38,5.38 0 0 1 0.53,-1.47 7.59,7.59 0 0 1 1.93,-2.23 13.51,13.51 0 0 1 2.4,-1.5 28,28 0 0 1 5.14,-1.85 20.75,20.75 0 0 1 5.420003,-0.72 20.47,20.47 0 0 1 5.35,0.66 z"
       id="path28"
       style="fill:#3a3a39" />
    <path
       class="f"
       d="m 178.11855,184.89899 a 59.93,59.93 0 0 1 7.76,2.16 41.92,41.92 0 0 1 7.4,3.33 19.19,19.19 0 0 1 3.36,2.42 12,12 0 0 1 1.45,1.56 7.71,7.71 0 0 1 1.07,1.93 5.45,5.45 0 0 1 0.32,2.27 7.06,7.06 0 0 1 -0.56,2.19 11.49,11.49 0 0 1 -2.53,3.44 27.44,27.44 0 0 1 -6.81,4.61 50.56,50.56 0 0 1 -7.56,3 c -1.29,0.41 -2.58,0.77 -3.89,1.1 -0.66,0.15 -1.31,0.31 -2,0.45 l -1,0.21 -1,0.2 a 76.84,76.84 0 0 1 -8,1.08 c 2.63,-0.54 5.24,-1.12 7.82,-1.81 l 1,-0.25 1,-0.28 c 0.64,-0.17 1.27,-0.37 1.91,-0.56 l 1.9,-0.61 c 0.63,-0.22 1.26,-0.42 1.89,-0.65 l 0.93,-0.35 0.93,-0.36 c 0.31,-0.11 0.61,-0.24 0.92,-0.37 0.31,-0.13 0.61,-0.24 0.91,-0.38 1.22,-0.52 2.42,-1.08 3.58,-1.69 a 34.67,34.67 0 0 0 3.39,-2 22.27,22.27 0 0 0 3,-2.41 10.4,10.4 0 0 0 2.22,-3 5.6,5.6 0 0 0 0.46,-1.68 4.22,4.22 0 0 0 -0.22,-1.68 7.73,7.73 0 0 0 -2.07,-3 16.38,16.38 0 0 0 -1.47,-1.25 c -0.51,-0.4 -1.05,-0.77 -1.6,-1.13 -1.1,-0.71 -2.26,-1.35 -3.43,-1.95 -1.17,-0.6 -2.39,-1.17 -3.62,-1.69 -2.41,-1.06 -4.92,-2 -7.46,-2.85 z"
       id="path30"
       style="fill:#3a3a39" />
    <path
       class="f"
       d="m 179.78855,190.59899 a 33,33 0 0 1 4.85,1.2 25.89,25.89 0 0 1 4.64,2 12.1,12.1 0 0 1 2.13,1.5 6,6 0 0 1 1.6,2.3 c 0,0.12 0.07,0.24 0.1,0.36 l 0.05,0.19 v 0.19 a 2.33,2.33 0 0 1 0,0.38 v 0.39 a 4.69,4.69 0 0 1 -0.37,1.45 7.44,7.44 0 0 1 -1.62,2.22 16.82,16.82 0 0 1 -4.16,2.82 30.44,30.44 0 0 1 -4.72,1.82 40.94,40.94 0 0 1 -9.85,1.66 c 1.61,-0.4 3.22,-0.79 4.8,-1.26 1.58,-0.47 3.14,-1 4.67,-1.53 a 38.53,38.53 0 0 0 4.45,-2 21,21 0 0 0 2,-1.23 13.17,13.17 0 0 0 1.83,-1.46 6,6 0 0 0 1.32,-1.75 3,3 0 0 0 0.26,-0.94 v -0.23 c 0,-0.08 0,-0.16 0,-0.23 v -0.12 -0.12 l -0.06,-0.23 a 4.69,4.69 0 0 0 -1.2,-1.76 12.18,12.18 0 0 0 -1.84,-1.46 31.39,31.39 0 0 0 -4.28,-2.32 c -1.52,-0.62 -3.05,-1.23 -4.6,-1.84 z"
       id="path32"
       style="fill:#3a3a39" />
    <path
       class="f"
       d="m 103.21855,206.39899 c 4.42,1.88 8.89,3.58 13.44,5 2.29,0.69 4.57,1.37 6.89,1.91 2.32,0.54 4.64,1.07 7,1.51 1.17,0.2 2.34,0.42 3.52,0.59 0.59,0.08 1.17,0.19 1.76,0.26 l 1.77,0.23 q 3.56,0.42 7.12,0.66 c 4.76,0.29 9.54,0.32 14.34,0.16 a 80.43,80.43 0 0 1 -14.39,1 h -1.81 c -0.6,0 -1.2,-0.06 -1.8,-0.09 h -0.91 l -0.9,-0.08 -1.8,-0.15 q -3.61,-0.37 -7.18,-1 c -0.59,-0.1 -1.18,-0.23 -1.77,-0.35 l -0.89,-0.18 c -0.3,-0.06 -0.59,-0.12 -0.89,-0.2 -1.17,-0.28 -2.35,-0.54 -3.51,-0.88 l -1.74,-0.49 c -0.58,-0.17 -1.16,-0.34 -1.74,-0.53 -1.15,-0.35 -2.29,-0.75 -3.42,-1.16 a 78.61,78.61 0 0 1 -13.09,-6.21 z"
       id="path34"
       style="fill:#3a3a39" />
    <path
       class="f"
       d="m 111.38855,182.48899 a 88.23,88.23 0 0 1 11.85,-2.41 108.66,108.66 0 0 1 12.08,-1 104.34,104.34 0 0 1 12.12,0.36 87.65,87.65 0 0 1 12,1.82 c -4,-0.27 -8,-0.51 -12,-0.63 -2,0 -4,-0.1 -6,-0.1 -1,0 -2,0 -3,0 h -1.5 -1.5 q -6,0.15 -12,0.63 c -4.06,0.44 -8.05,0.86 -12.05,1.33 z"
       id="path36"
       style="fill:#3a3a39" />
    <path
       class="h"
       d="m 103.06855,233.84899 16.94,2.75 1.29,-13.44 -17,-1.8 z"
       id="path38"
       style="fill:#e10880" />
    <path
       class="f"
       d="m 133.55855,224.17899 c -23.3,0 -37.560003,-1.36 -47.000003,-9 a 53.64,53.64 0 0 1 -9,-9.33 c -4.69,-6.36 -6.44,-12.39 -5.18,-17.92 1.71,-7.54 9.22,-13.79 21.13,-17.59 v 0 c 6.830003,-2.18 11.110003,-1.59 19.620003,-0.4 4.69,0.66 10.52,1.47 18.87,2.15 8.58,0.71 13.68,0.77 17.78,0.82 a 71.94,71.94 0 0 1 16.38,1.6 107.39,107.39 0 0 1 27.06,9.34 c 11.69,5.53 19.42,9.19 19.84,15.38 0.47,7.05 -9.52,12.81 -13.78,15.27 -14.58,8.4 -29.06,9.24 -46.49,9.47 -7,0.13 -13.4,0.21 -19.23,0.21 z m -39.740003,-52.91 0.29,0.91 c -11.25,3.59 -18.3,9.34 -19.86,16.2 -2.64,11.61 10.76,23.15 13.51,25.35 10.8,8.72 27.740003,8.87 65.000003,8.37 17.15,-0.22 31.39,-1.05 45.57,-9.22 4,-2.28 13.23,-7.62 12.83,-13.5 -0.34,-5.07 -8.06,-8.73 -18.75,-13.78 a 105.78,105.78 0 0 0 -26.63,-9.2 71.32,71.32 0 0 0 -16,-1.57 c -4.13,0 -9.27,-0.11 -17.92,-0.81 -8.4,-0.69 -14.26,-1.51 -19,-2.17 -8.48,-1.18 -12.35,-1.72 -18.770003,0.33 z"
       id="path40"
       style="fill:#3a3a39" />
    <path
       class="f"
       d="m 189.00855,217.85899 c 1.48,3.64 1.43,8.06 -0.15,13.17 a 165.27,165.27 0 0 1 -48.14,6.06 165.9,165.9 0 0 1 -45.630003,-7.49 16.27,16.27 0 0 1 0.31,-9.81 c 0.13,-0.34 0.28,-0.68 0.44,-1 -0.59,-0.26 -1.15,-0.54 -1.71,-0.82 -0.19,0.38 -0.35,0.76 -0.5,1.15 a 18.29,18.29 0 0 0 -0.24,11.48 1,1 0 0 0 0.63,0.66 167.66,167.66 0 0 0 46.700003,7.71 c 1.22,0 2.44,0 3.66,0 a 167.38,167.38 0 0 0 45.52,-6.31 1,1 0 0 0 0.65,-0.62 c 1.89,-5.8 2,-10.86 0.22,-15.06 -0.58,0.32 -1.17,0.62 -1.76,0.88 z"
       id="path42"
       style="fill:#3a3a39" />
    <ellipse
       class="g"
       cx="-217.18465"
       cy="230.74059"
       rx="24.860001"
       ry="18.15"
       transform="rotate(-69.53)"
       id="ellipse44"
       style="fill:#2c053a" />
    <path
       class="d"
       d="m 169.22855,200.24899 a 1.33,1.33 0 1 0 -1.91,1.85 13.77,13.77 0 0 0 6.19,3.69 12.06,12.06 0 0 0 1,-2.49 11,11 0 0 1 -5.28,-3.05 z"
       id="path46"
       style="fill:#494546" />
    <path
       class="j"
       d="m 173.84855,190.23899 -6.2,-1.68"
       id="path60"
       style="fill:#737172" />
    <path
       class="k"
       d="m 131.05855,305.33899 a 19.42,19.42 0 0 0 4,-1.29 16.2,16.2 0 0 0 1.8,-1 25.68,25.68 0 0 0 3.15,-2.45 26.5,26.5 0 0 0 2.54,-2.62 c 0.3,-0.39 0.6,-0.8 0.9,-1.26 0.3,-0.46 0.54,-0.82 0.77,-1.22 l -2,-0.86 a 0.3,0.3 0 0 1 -0.16,-0.39 0.31,0.31 0 0 1 0.4,-0.16 l 2.09,0.88 c 0.53,-0.95 1,-1.85 1.33,-2.65 a 40.81,40.81 0 0 0 1.62,-3.76 l -1.34,-0.56 a 0.30004166,0.30004166 0 1 1 0.24,-0.55 l 1.29,0.55 a 24.28,24.28 0 0 0 1.17,-5.37 l -4.36,-1.85 a 0.29,0.29 0 0 1 -0.16,-0.39 0.3,0.3 0 0 1 0.39,-0.16 l 4.18,1.77 c 0,-0.3 0,-0.6 0.05,-0.91 a 24.18,24.18 0 0 0 -0.17,-3.8 2.6,2.6 0 0 1 -1.19,-0.14 1.61,1.61 0 0 1 -0.5,-0.35 1.37,1.37 0 0 1 -0.35,-0.78 2.58,2.58 0 0 0 -0.18,-0.58 2.38,2.38 0 0 0 -0.4,-0.59 1.47,1.47 0 0 1 -0.44,-0.91 1.9,1.9 0 0 1 0,-0.34 2,2 0 0 1 -0.64,0 1.33,1.33 0 0 1 -0.71,-0.32 1.35,1.35 0 0 0 -0.32,-0.19 h -0.1 a 1.51,1.51 0 0 0 -0.61,-0.1 1.8,1.8 0 0 1 -0.7,-0.13 l -0.23,-0.12 a 1.33,1.33 0 0 1 -0.19,-0.14 1.57,1.57 0 0 1 -0.51,0.73 1.28,1.28 0 0 1 -0.77,0.27 3.3,3.3 0 0 0 -0.65,0.11 3.46,3.46 0 0 0 -0.67,0.26 2.27,2.27 0 0 1 -0.69,0.26 2.84,2.84 0 0 1 -1.62,-0.22 h -0.09 a 42.12,42.12 0 0 0 -3.13,3.93 c -0.27,0.39 -0.58,0.82 -0.9,1.3 l 1.76,0.74 a 0.30463092,0.30463092 0 1 1 -0.24,0.56 l -1.86,-0.79 a 32.71,32.71 0 0 0 -2.79,5.08 l 2.19,0.92 a 0.3,0.3 0 0 1 0.16,0.39 0.3,0.3 0 0 1 -0.4,0.16 l -2.18,-0.92 a 29.25,29.25 0 0 0 -1.23,3.64 c -0.15,0.6 -0.35,1.35 -0.51,2.22 l 3.26,1.36 a 0.3,0.3 0 0 1 0.16,0.4 0.3,0.3 0 0 1 -0.39,0.16 l -3.12,-1.36 a 18.33,18.33 0 0 0 -0.16,4.83 17,17 0 0 0 0.59,3.19 26.41,26.41 0 0 0 1.78,5 1.74,1.74 0 0 1 0.15,0.9 1.45,1.45 0 0 1 0.69,-0.38 z m 2.2,-10.81 a 5,5 0 0 1 2.31,-5.21 2.33,2.33 0 0 1 2.06,-0.22 v 0 a 2.38,2.38 0 0 1 1.26,1.69 5,5 0 0 1 -2.32,5.21 2.72,2.72 0 0 1 -1.24,0.37 1.9,1.9 0 0 1 -0.82,-0.15 v 0 a 2.37,2.37 0 0 1 -1.25,-1.69 z"
       id="path62"
       style="fill:#ee7400" />
    <path
       class="l"
       d="m 148.42855,275.59899 a 0.5,0.5 0 0 1 -0.2,-0.13 c 0,0 0,-0.06 -0.09,-0.22 a 3.71,3.71 0 0 0 -0.28,-0.76 4.44,4.44 0 0 0 -0.41,-0.61 v -0.07 a 1.06,1.06 0 0 1 0.27,-0.22 v 0 a 11,11 0 0 0 2.14,-2.1 17.28,17.28 0 0 1 6.43,-5.09 0.64,0.64 0 0 0 0,0.33 0.62,0.62 0 0 0 0.37,0.39 2.09,2.09 0 0 0 1.11,0 9.87,9.87 0 0 1 1.32,-0.17 5.87,5.87 0 0 1 1.66,0.18 15.75,15.75 0 0 1 -1.17,1.79 c -0.79,1.06 -1.11,1.2 -1.37,1.26 a 1.84,1.84 0 0 1 -0.66,0 c -0.17,0 -0.7,-0.09 -0.87,0.4 -0.17,0.49 0,0.76 1.11,1.28 h -0.14 a 12.48,12.48 0 0 1 -1.89,0 h -0.36 a 0.63,0.63 0 0 0 -0.72,0.53 0.6,0.6 0 0 0 0.39,0.66 2.93,2.93 0 0 0 0.38,0.12 8.58,8.58 0 0 1 1.34,0.43 h 0.08 c 0.27,0.12 0.53,0.26 0.66,0.33 -0.3,0.24 -0.6,0.46 -0.92,0.68 a 15.38,15.38 0 0 1 -1.66,1 5.63,5.63 0 0 1 -1,0.33 5.55,5.55 0 0 1 -1.07,0.17 12.12,12.12 0 0 1 -2.53,-0.15 l -1.53,-0.21 v 0 a 1.07,1.07 0 0 1 -0.39,-0.09 m -0.24,0.56 a 2,2 0 0 0 0.58,0.13 c 0.62,0.1 1.15,0.17 1.54,0.22 a 14.06,14.06 0 0 0 2.7,0.03 6,6 0 0 0 1.18,-0.19 6.17,6.17 0 0 0 1.06,-0.37 14.81,14.81 0 0 0 1.74,-1 13.55,13.55 0 0 0 1.6,-1.27 c -0.19,-0.12 -0.41,-0.26 -0.65,-0.39 0,0 -0.39,-0.21 -0.79,-0.38 h -0.09 a 14.24,14.24 0 0 0 -1.72,-0.54 v 0 c 0,-0.07 1.1,0.13 2.42,0 a 9.17,9.17 0 0 0 2,-0.38 c -2,-0.89 -2.53,-1.21 -2.5,-1.31 0.03,-0.1 0.51,0.11 1.11,0 0.6,-0.11 0.9,-0.41 1.71,-1.47 a 18,18 0 0 0 1.56,-2.51 6.27,6.27 0 0 0 -2.55,-0.43 c -1,0.05 -2,0.33 -2.18,0.25 0,-0.09 0.27,-0.21 0.56,-0.62 a 2.14,2.14 0 0 0 0.33,-0.7 15.89,15.89 0 0 0 -1.63,0.61 c -5.21,2.25 -6.78,6 -8.75,7.27 -0.13,0.09 -0.55,0.35 -0.57,0.73 -0.02,0.38 0.25,0.39 0.54,1 0.29,0.61 0.19,0.81 0.47,1.11 a 1.21,1.21 0 0 0 0.4,0.28 z"
       id="path64"
       style="fill:#3d7c2f" />
    <path
       class="l"
       d="m 138.42855,272.66899 v 0 a 8.84,8.84 0 0 1 -1.85,-1.56 l -0.16,-0.15 -1.49,-1.44 c -1.51,-1.44 -1.87,-1.78 -2.28,-2.61 a 9.08,9.08 0 0 1 -0.66,-1.9 8.23,8.23 0 0 1 -0.15,-1.11 4.29,4.29 0 0 1 0.66,0.46 1.47,1.47 0 0 0 0.39,0.26 0.63,0.63 0 0 0 0.64,-0.05 c 0.46,-0.31 0.27,-0.82 0.13,-1.19 a 5.75,5.75 0 0 1 -0.33,-1.11 2.89,2.89 0 0 1 0,-0.29 l 0.08,0.06 0.14,0.11 a 0.64,0.64 0 0 0 0.25,0.18 0.64,0.64 0 0 0 0.47,0 c 0.54,-0.22 0.43,-0.76 0.29,-1.39 0,-0.16 -0.07,-0.34 -0.1,-0.52 -0.03,-0.18 -0.07,-0.58 -0.14,-1.27 q -0.08,-0.75 -0.12,-1.5 a 7.15,7.15 0 0 1 1.13,0.89 c 0.21,0.2 0.39,0.4 0.57,0.6 a 3.3,3.3 0 0 0 1,0.9 1,1 0 0 0 0.69,0 1,1 0 0 0 0.57,-0.51 l 0.17,-0.25 c 0.47,2.71 1,5 1.46,6.8 0.16,0.61 0.26,1.24 0.37,1.9 a 16.23,16.23 0 0 0 0.4,2 l 0.06,0.25 a 8.3,8.3 0 0 1 0.27,1.13 0.81,0.81 0 0 1 0,0.43 h -0.15 a 3.38,3.38 0 0 0 -1,0.24 3.25,3.25 0 0 0 -0.84,0.47 0.82,0.82 0 0 1 -0.2,0.12 0.34,0.34 0 0 1 -0.26,0 m -0.23,0.55 a 0.93,0.93 0 0 0 0.67,0.06 c 0.32,-0.1 0.43,-0.35 1.08,-0.6 0.65,-0.25 1.06,-0.13 1.32,-0.37 0.47,-0.43 0.13,-1.46 -0.14,-2.42 -0.35,-1.29 -0.41,-2.64 -0.77,-3.92 a 78.09,78.09 0 0 1 -1.62,-7.81 3.58,3.58 0 0 0 -0.74,0.63 c -0.39,0.44 -0.39,0.66 -0.6,0.73 a 0.34,0.34 0 0 1 -0.26,0 c -0.38,-0.16 -0.82,-0.8 -1.43,-1.38 a 7.83,7.83 0 0 0 -2.21,-1.49 c 0,0.82 0.08,1.68 0.17,2.59 0.07,0.7 0.11,1.06 0.15,1.32 0.12,0.63 0.28,1.2 0.18,1.24 v 0 c 0,0 -0.1,-0.1 -0.26,-0.22 a 2,2 0 0 0 -0.38,-0.23 l -0.17,-0.07 a 4.24,4.24 0 0 0 -0.5,-0.17 4.53,4.53 0 0 0 0.06,1.28 c 0.17,1 0.59,1.61 0.46,1.7 -0.13,0.09 0,0 -0.08,0 a 9.81,9.81 0 0 0 -1.15,-0.78 l -0.26,-0.12 c -0.19,-0.08 -0.36,-0.13 -0.48,-0.17 a 8.82,8.82 0 0 0 0.18,2.14 9,9 0 0 0 0.7,2 c 0.58,1.18 1.07,1.48 3.9,4.22 a 9.46,9.46 0 0 0 2.19,1.83 z"
       id="path66"
       style="fill:#3d7c2f" />
    <path
       class="l"
       d="m 143.00855,271.07899 c 0,0 0,0 -0.06,0 a 0.78,0.78 0 0 1 -0.21,-0.55 v -0.08 c 0,-0.08 -1.83,-8.46 -2.39,-12.64 a 13.38,13.38 0 0 1 -0.09,-2.87 12.41,12.41 0 0 1 0.34,-2 l 0.19,0.49 c 0.11,0.29 0.19,0.54 0.25,0.74 0.17,0.51 0.28,0.86 0.65,1 v 0 a 0.86,0.86 0 0 0 0.23,0.06 c 0.62,0 0.84,-0.54 1.1,-1.21 a 12.41,12.41 0 0 1 1,-2 c 0.11,-0.16 0.22,-0.33 0.34,-0.49 a 1.21,1.21 0 0 1 0,0.14 3.11,3.11 0 0 1 0.16,0.64 0.88,0.88 0 0 0 0.47,0.75 h 0.15 c 0.56,0.1 0.78,-0.42 1,-0.91 a 8.82,8.82 0 0 1 0.66,-1.29 c 0.09,-0.14 0.18,-0.28 0.28,-0.41 a 1.23,1.23 0 0 1 0,0.27 0.77,0.77 0 0 0 0.37,0.78 v 0 c 0.53,0.22 0.88,-0.2 1.36,-0.78 0.22,-0.25 0.46,-0.54 0.73,-0.81 a 7.16,7.16 0 0 1 0.65,-0.57 c 0,0.32 0.06,0.64 0.1,1 0.28,1.91 0.66,2.32 1,2.47 a 0.58,0.58 0 0 0 0.26,0.06 0.84,0.84 0 0 0 0.66,-0.29 l 0.11,-0.1 c 0,0.12 0,0.24 0,0.35 0,0.11 -0.07,0.43 -0.11,0.65 -0.1,0.52 -0.21,0.91 -0.29,1.2 -0.13,0.45 -0.27,0.95 0.21,1.22 v 0 0 c 0.43,0.18 0.73,-0.14 0.93,-0.35 a 4.34,4.34 0 0 1 0.6,-0.53 l 0.28,-0.19 a 0.45,0.45 0 0 1 0,0.11 2,2 0 0 1 -0.06,0.51 0.86,0.86 0 0 0 0.29,1 h 0.08 a 0.81,0.81 0 0 0 0.82,-0.18 v 0 a 1.38,1.38 0 0 1 -0.14,0.24 0.86,0.86 0 0 0 -0.11,1 0.8,0.8 0 0 0 0.29,0.23 0.94,0.94 0 0 0 0.57,0 h 0.14 l -0.2,0.17 a 0.85,0.85 0 0 0 -0.41,0.86 0.74,0.74 0 0 0 0.42,0.48 1.23,1.23 0 0 0 0.38,0.08 1.36,1.36 0 0 1 0.43,0.11 0.94,0.94 0 0 1 0.22,0.12 7.83,7.83 0 0 1 -0.74,0.78 l -0.08,0.07 c -0.24,0.22 -0.6,0.56 -0.38,1 a 0.66,0.66 0 0 0 0.33,0.31 1.08,1.08 0 0 0 0.69,0 l -0.27,0.43 a 8.05,8.05 0 0 1 -2.7,2.44 34.85,34.85 0 0 0 -3.11,2.27 17.52,17.52 0 0 0 -3.25,3.17 l -1.24,1.67 v 0 0 c -0.13,0.22 -0.24,0.3 -0.3,0.31 a 1.72,1.72 0 0 1 -0.2,-0.16 3.44,3.44 0 0 0 -0.88,-0.56 v 0 a 3.3,3.3 0 0 0 -1.21,-0.22 1.18,1.18 0 0 1 -0.37,0 v 0 m -0.23,0.56 c 0.41,0.17 0.87,0 1.58,0.26 v 0 a 8.22,8.22 0 0 1 1.1,0.73 0.68,0.68 0 0 0 0.29,0 1.13,1.13 0 0 0 0.74,-0.6 l 1.24,-1.67 a 17.52,17.52 0 0 1 3.15,-3.07 c 3.24,-2.65 4.54,-2.76 5.93,-4.84 a 9.41,9.41 0 0 0 0.9,-1.74 4.64,4.64 0 0 1 -1.58,0.41 v 0 c 0,-0.07 0.13,-0.2 0.33,-0.4 a 9.83,9.83 0 0 0 1.12,-1.23 1.89,1.89 0 0 0 -0.77,-0.66 v 0 a 7.4,7.4 0 0 0 -0.81,-0.19 0.11,0.11 0 0 1 0.07,-0.03 c 0,-0.13 0.25,-0.24 0.55,-0.57 a 2.4,2.4 0 0 0 0.47,-0.74 h -0.1 a 2,2 0 0 0 -0.64,-0.14 c -0.38,0 -0.62,0.09 -0.72,0.05 v 0 c -0.08,-0.12 0.22,-0.37 0.41,-0.85 a 2.53,2.53 0 0 0 0.17,-0.91 1.84,1.84 0 0 0 -0.79,0.16 c -0.37,0.17 -0.54,0.4 -0.63,0.35 v 0 c -0.12,-0.07 0.08,-0.45 0.06,-1 a 2.16,2.16 0 0 0 -0.24,-0.92 3.85,3.85 0 0 0 -1,0.52 c -0.59,0.42 -0.84,0.86 -1,0.82 v 0 c -0.12,-0.07 0.16,-0.64 0.38,-1.79 0,-0.23 0.07,-0.41 0.11,-0.67 0.08,-0.52 0.14,-1 0.18,-1.49 a 3.19,3.19 0 0 0 -0.35,0.14 c 0,0 -0.2,0.09 -0.39,0.2 -0.51,0.29 -0.56,0.51 -0.72,0.51 h -0.06 c -0.39,-0.16 -0.61,-1.69 -0.66,-2 a 12.77,12.77 0 0 1 -0.12,-2 7.13,7.13 0 0 0 -1.65,1.24 c -0.72,0.72 -1.23,1.54 -1.43,1.46 v 0 c -0.11,-0.06 0,-0.38 -0.11,-0.82 a 1.63,1.63 0 0 0 -0.5,-0.68 7.39,7.39 0 0 0 -0.84,1.07 c -0.66,1 -0.84,2 -1,1.93 v 0 c -0.11,-0.05 -0.08,-0.45 -0.29,-1 a 3.91,3.91 0 0 0 -0.55,-1 9.67,9.67 0 0 0 -0.92,1.22 c -1,1.63 -1.17,3 -1.53,3 v 0 c -0.18,-0.08 -0.25,-0.55 -0.57,-1.41 a 13.32,13.32 0 0 0 -0.88,-1.88 13.08,13.08 0 0 0 -0.81,3.56 13.22,13.22 0 0 0 0.1,3 c 0.55,4.16 2.32,12.35 2.4,12.69 a 1.39,1.39 0 0 0 0.39,0.94 1.11,1.11 0 0 0 0.24,0.16 z"
       id="path68"
       style="fill:#3d7c2f" />
    <path
       class="m"
       d="m 132.35855,297.24899 0.57,1.95 -1.45,3.4 a 0.29,0.29 0 0 0 0.16,0.39 0.29,0.29 0 0 0 0.39,-0.16 l 1.45,-3.42 1.79,-1 a 0.29,0.29 0 0 0 0.12,-0.4 0.27,0.27 0 0 0 -0.14,-0.14 0.34,0.34 0 0 0 -0.26,0 l -1.56,0.83 -0.49,-1.7 a 0.32,0.32 0 0 0 -0.17,-0.19 0.35,0.35 0 0 0 -0.2,0 0.3,0.3 0 0 0 -0.21,0.44 z"
       id="path70"
       style="fill:#b26102" />
    <path
       class="m"
       d="m 136.68855,287.35899 a 0.29,0.29 0 0 0 0.42,0 l 1.76,-1.42 0.24,2.25 a 0.3,0.3 0 0 0 0.33,0.26 0.29,0.29 0 0 0 0.27,-0.33 l -0.3,-2.72 2.15,-5.22 a 0.3,0.3 0 0 0 -0.16,-0.39 0.3,0.3 0 0 0 -0.39,0.16 l -2.15,5.22 -2.13,1.73 a 0.29,0.29 0 0 0 -0.04,0.46 z"
       id="path72"
       style="fill:#b26102" />
    <path
       class="n"
       d="m 148.42855,275.59899 a 0.5,0.5 0 0 1 -0.2,-0.13 c 0,0 0,-0.06 -0.09,-0.22 a 3.71,3.71 0 0 0 -0.28,-0.76 4.44,4.44 0 0 0 -0.41,-0.61 v -0.07 a 1.06,1.06 0 0 1 0.27,-0.22 v 0 a 11,11 0 0 0 2.14,-2.1 17.28,17.28 0 0 1 6.43,-5.09 0.64,0.64 0 0 0 0,0.33 0.62,0.62 0 0 0 0.37,0.39 2.09,2.09 0 0 0 1.11,0 9.87,9.87 0 0 1 1.32,-0.17 5.87,5.87 0 0 1 1.66,0.18 15.75,15.75 0 0 1 -1.17,1.79 c -0.79,1.06 -1.11,1.2 -1.37,1.26 a 1.84,1.84 0 0 1 -0.66,0 c -0.17,0 -0.7,-0.09 -0.87,0.4 -0.17,0.49 0,0.76 1.11,1.28 h -0.14 a 12.48,12.48 0 0 1 -1.89,0 h -0.36 a 0.63,0.63 0 0 0 -0.72,0.53 0.6,0.6 0 0 0 0.39,0.66 2.93,2.93 0 0 0 0.38,0.12 8.58,8.58 0 0 1 1.34,0.43 h 0.08 c 0.27,0.12 0.53,0.26 0.66,0.33 -0.3,0.24 -0.6,0.46 -0.92,0.68 a 15.38,15.38 0 0 1 -1.66,1 5.63,5.63 0 0 1 -1,0.33 5.55,5.55 0 0 1 -1.07,0.17 12.12,12.12 0 0 1 -2.53,-0.15 l -1.53,-0.21 v 0 a 1.07,1.07 0 0 1 -0.39,-0.09"
       id="path74"
       style="fill:#30ac5a" />
    <path
       class="o"
       d="m 143.00855,271.07899 c 0,0 0,0 -0.06,0 a 0.78,0.78 0 0 1 -0.21,-0.55 v -0.08 c 0,-0.08 -1.83,-8.46 -2.39,-12.64 a 13.38,13.38 0 0 1 -0.09,-2.87 12.41,12.41 0 0 1 0.34,-2 l 0.19,0.49 c 0.11,0.29 0.19,0.54 0.25,0.74 0.17,0.51 0.28,0.86 0.65,1 v 0 a 0.86,0.86 0 0 0 0.23,0.06 c 0.62,0 0.84,-0.54 1.1,-1.21 a 12.41,12.41 0 0 1 1,-2 c 0.11,-0.16 0.22,-0.33 0.34,-0.49 a 1.21,1.21 0 0 1 0,0.14 3.11,3.11 0 0 1 0.16,0.64 0.88,0.88 0 0 0 0.47,0.75 h 0.15 c 0.56,0.1 0.78,-0.42 1,-0.91 a 8.82,8.82 0 0 1 0.66,-1.29 c 0.09,-0.14 0.18,-0.28 0.28,-0.41 a 1.23,1.23 0 0 1 0,0.27 0.77,0.77 0 0 0 0.37,0.78 v 0 c 0.53,0.22 0.88,-0.2 1.36,-0.78 0.22,-0.25 0.46,-0.54 0.73,-0.81 a 7.16,7.16 0 0 1 0.65,-0.57 c 0,0.32 0.06,0.64 0.1,1 0.28,1.91 0.66,2.32 1,2.47 a 0.58,0.58 0 0 0 0.26,0.06 0.84,0.84 0 0 0 0.66,-0.29 l 0.11,-0.1 c 0,0.12 0,0.24 0,0.35 0,0.11 -0.07,0.43 -0.11,0.65 -0.1,0.52 -0.21,0.91 -0.29,1.2 -0.13,0.45 -0.27,0.95 0.21,1.22 v 0 0 c 0.43,0.18 0.73,-0.14 0.93,-0.35 a 4.34,4.34 0 0 1 0.6,-0.53 l 0.28,-0.19 a 0.45,0.45 0 0 1 0,0.11 2,2 0 0 1 -0.06,0.51 0.86,0.86 0 0 0 0.29,1 h 0.08 a 0.81,0.81 0 0 0 0.82,-0.18 v 0 a 1.38,1.38 0 0 1 -0.14,0.24 0.86,0.86 0 0 0 -0.11,1 0.8,0.8 0 0 0 0.29,0.23 0.94,0.94 0 0 0 0.57,0 h 0.14 l -0.2,0.17 a 0.85,0.85 0 0 0 -0.41,0.86 0.74,0.74 0 0 0 0.42,0.48 1.23,1.23 0 0 0 0.38,0.08 1.36,1.36 0 0 1 0.43,0.11 0.94,0.94 0 0 1 0.22,0.12 7.83,7.83 0 0 1 -0.74,0.78 l -0.08,0.07 c -0.24,0.22 -0.6,0.56 -0.38,1 a 0.66,0.66 0 0 0 0.33,0.31 1.08,1.08 0 0 0 0.69,0 l -0.27,0.43 a 8.05,8.05 0 0 1 -2.7,2.44 34.85,34.85 0 0 0 -3.11,2.27 17.52,17.52 0 0 0 -3.25,3.17 l -1.24,1.67 v 0 0 c -0.13,0.22 -0.24,0.3 -0.3,0.31 a 1.72,1.72 0 0 1 -0.2,-0.16 3.44,3.44 0 0 0 -0.88,-0.56 v 0 a 3.3,3.3 0 0 0 -1.21,-0.22 1.18,1.18 0 0 1 -0.37,0 v 0"
       id="path76"
       style="fill:#069951" />
    <path
       class="m"
       d="m 139.08855,293.99899 a 5.17,5.17 0 0 0 0.37,-3.25 2.89,2.89 0 0 0 -1.59,-2.09 v 0 a 2.94,2.94 0 0 0 -2.58,0.23 5.46,5.46 0 0 0 -2.58,5.71 2.93,2.93 0 0 0 1.6,2.09 v 0 a 2.61,2.61 0 0 0 1.07,0.2 3.35,3.35 0 0 0 1.51,-0.44 5.16,5.16 0 0 0 2.2,-2.45 z m -2.49,2 a 2.72,2.72 0 0 1 -1.24,0.37 1.9,1.9 0 0 1 -0.82,-0.15 v 0 a 2.37,2.37 0 0 1 -1.25,-1.69 5,5 0 0 1 2.31,-5.21 2.33,2.33 0 0 1 2.06,-0.22 v 0 a 2.38,2.38 0 0 1 1.26,1.69 5,5 0 0 1 -2.32,5.21 z"
       id="path78"
       style="fill:#b26102" />
    <path
       class="n"
       d="m 138.42855,272.66899 v 0 a 8.84,8.84 0 0 1 -1.85,-1.56 l -0.16,-0.15 -1.49,-1.44 c -1.51,-1.44 -1.87,-1.78 -2.28,-2.61 a 9.08,9.08 0 0 1 -0.66,-1.9 8.23,8.23 0 0 1 -0.15,-1.11 4.29,4.29 0 0 1 0.66,0.46 1.47,1.47 0 0 0 0.39,0.26 0.63,0.63 0 0 0 0.64,-0.05 c 0.46,-0.31 0.27,-0.82 0.13,-1.19 a 5.75,5.75 0 0 1 -0.33,-1.11 2.89,2.89 0 0 1 0,-0.29 l 0.08,0.06 0.14,0.11 a 0.64,0.64 0 0 0 0.25,0.18 0.64,0.64 0 0 0 0.47,0 c 0.54,-0.22 0.43,-0.76 0.29,-1.39 0,-0.16 -0.07,-0.34 -0.1,-0.52 -0.03,-0.18 -0.07,-0.58 -0.14,-1.27 q -0.08,-0.75 -0.12,-1.5 a 7.15,7.15 0 0 1 1.13,0.89 c 0.21,0.2 0.39,0.4 0.57,0.6 a 3.3,3.3 0 0 0 1,0.9 1,1 0 0 0 0.69,0 1,1 0 0 0 0.57,-0.51 l 0.17,-0.25 c 0.47,2.71 1,5 1.46,6.8 0.16,0.61 0.26,1.24 0.37,1.9 a 16.23,16.23 0 0 0 0.4,2 l 0.06,0.25 a 8.3,8.3 0 0 1 0.27,1.13 0.81,0.81 0 0 1 0,0.43 h -0.15 a 3.38,3.38 0 0 0 -1,0.24 3.25,3.25 0 0 0 -0.84,0.47 0.82,0.82 0 0 1 -0.2,0.12 0.34,0.34 0 0 1 -0.26,0"
       id="path80"
       style="fill:#30ac5a" />
    <path
       class="m"
       d="m 137.54855,290.80899 a 0.39,0.39 0 0 1 0.1,-0.08 0.28,0.28 0 0 1 0.35,0.14 3.47,3.47 0 0 1 -1.38,4.36 0.27,0.27 0 0 1 -0.36,-0.09 0.27,0.27 0 0 1 0.09,-0.36 3,3 0 0 0 1.29,-1.66 3,3 0 0 0 -0.12,-2 0.24,0.24 0 0 1 0.03,-0.31 z"
       id="path82"
       style="fill:#b26102" />
    <path
       class="m"
       d="m 131.16855,305.92899 a 19.52,19.52 0 0 0 4.09,-1.33 17.22,17.22 0 0 0 2,-1.06 24.39,24.39 0 0 0 3.1,-2.35 24.77,24.77 0 0 0 2.71,-2.83 38.39,38.39 0 0 0 3.34,-5.76 27.84,27.84 0 0 0 3.13,-11.46 24.37,24.37 0 0 0 -0.26,-4.51 2.61,2.61 0 0 1 -1.46,0 0.93,0.93 0 0 1 -0.31,-0.21 c -0.26,-0.29 -0.11,-0.53 -0.42,-1.2 -0.31,-0.67 -0.74,-0.81 -0.78,-1.3 -0.04,-0.49 0.52,-1.06 0.38,-1.22 v 0 c -0.18,-0.08 -0.75,0.48 -1.48,0.36 h -0.21 a 5.71,5.71 0 0 0 -0.69,-0.42 h -0.12 c -0.66,-0.24 -0.92,-0.06 -1.28,-0.22 l -0.15,-0.07 c -0.51,-0.32 -0.59,-0.89 -0.74,-0.95 v 0 c -0.26,0 0,1.11 -0.6,1.58 -0.28,0.22 -0.43,0.06 -1.2,0.27 -0.77,0.21 -0.85,0.42 -1.32,0.51 a 2.27,2.27 0 0 1 -1.28,-0.18 4.83,4.83 0 0 1 -0.45,-0.23 43.92,43.92 0 0 0 -3.57,4.25 33.74,33.74 0 0 0 -5.59,11.23 20.7,20.7 0 0 0 -0.8,7.86 17.58,17.58 0 0 0 0.6,3.3 26.05,26.05 0 0 0 1.83,5.07 c 0.24,0.51 -0.06,1.76 -0.65,3.69 0.73,-1.15 1.44,-2.72 2.18,-2.82 z m -1,-1.13 a 26.41,26.41 0 0 1 -1.78,-5 17,17 0 0 1 -0.59,-3.19 18.33,18.33 0 0 1 0.21,-4.81 l 3.15,1.34 a 0.3,0.3 0 0 0 0.39,-0.16 0.3,0.3 0 0 0 -0.16,-0.4 l -3.27,-1.38 c 0.16,-0.87 0.36,-1.62 0.51,-2.22 a 29.25,29.25 0 0 1 1.23,-3.64 l 2.18,0.92 a 0.3,0.3 0 0 0 0.4,-0.16 0.3,0.3 0 0 0 -0.16,-0.39 l -2.19,-0.92 a 32.71,32.71 0 0 1 2.79,-5.08 l 1.86,0.79 a 0.30463092,0.30463092 0 1 0 0.24,-0.56 l -1.76,-0.74 c 0.32,-0.48 0.63,-0.91 0.9,-1.3 a 42.12,42.12 0 0 1 3.13,-3.93 h 0.09 a 2.84,2.84 0 0 0 1.62,0.22 2.27,2.27 0 0 0 0.69,-0.26 3.46,3.46 0 0 1 0.67,-0.26 3.3,3.3 0 0 1 0.65,-0.11 1.28,1.28 0 0 0 0.77,-0.27 1.57,1.57 0 0 0 0.51,-0.73 1.33,1.33 0 0 0 0.19,0.14 l 0.23,0.12 a 1.8,1.8 0 0 0 0.7,0.13 1.51,1.51 0 0 1 0.61,0.1 h 0.1 a 1.35,1.35 0 0 1 0.32,0.19 1.33,1.33 0 0 0 0.71,0.32 2,2 0 0 0 0.64,0 1.9,1.9 0 0 0 0,0.34 1.47,1.47 0 0 0 0.44,0.91 2.38,2.38 0 0 1 0.4,0.59 2.58,2.58 0 0 1 0.18,0.58 1.37,1.37 0 0 0 0.35,0.78 1.61,1.61 0 0 0 0.5,0.35 2.6,2.6 0 0 0 1.19,0.14 24.18,24.18 0 0 1 0.17,3.8 c 0,0.31 0,0.61 -0.05,0.91 l -4.18,-1.77 a 0.3,0.3 0 0 0 -0.39,0.16 0.29,0.29 0 0 0 0.16,0.39 l 4.36,1.85 a 24.28,24.28 0 0 1 -1.17,5.37 l -2.73,-1.22 a 0.3,0.3 0 0 0 -0.4,0.16 0.3,0.3 0 0 0 0.16,0.39 l 2.78,1.23 a 40.81,40.81 0 0 1 -1.62,3.76 c -0.37,0.8 -0.8,1.7 -1.33,2.65 l -3.43,-1.33 a 0.3,0.3 0 0 0 -0.39,0.16 0.32,0.32 0 0 0 0.16,0.4 l 3.32,1.38 a 22.76,22.76 0 0 1 -1.35,2.06 24.67,24.67 0 0 1 -2.93,3.1 25.55,25.55 0 0 1 -3.58,2.67 14,14 0 0 1 -1.36,0.68 19.42,19.42 0 0 1 -4,1.29 1.45,1.45 0 0 0 -0.72,0.36 1.74,1.74 0 0 0 -0.1,-0.9 z"
       id="path84"
       style="fill:#b26102" />
    <path
       class="i"
       d="m 129.36855,186.53899 a 1.81,1.81 0 0 1 1.55,0.88 c 1,1.65 -1.69,4 -4,8.67 -2.56,5.19 -2.65,9.19 -3.44,9.11 -0.6,-0.06 -0.92,-2.38 -0.92,-4.07 0,-2.84 0.89,-3.44 4.12,-10.9 0.85,-1.92 1.54,-3.63 2.69,-3.69 z"
       id="path104"
       style="fill:#5e5a5c" />
  </g>
  <g
     inkscape:groupmode="layer"
     id="layer1"
     inkscape:label="Layer 1"
     style="display:none"
     sodipodi:insensitive="true">
    <path
       class="i"
       d="m 170.66855,134.35899 c 2.92,-3 8.14,-9.24 9.15,-18.13 1.48,-13 -7,-22.779999 -13.48,-30.279999 -4.9,-5.66 -13.86,-16 -19.36,-13.77 -8.84,3.61 -2.92,37.409999 -2.31,40.839999 a 123.79,123.79 0 0 0 4.5,17.43"
       id="path48"
       style="fill:#5e5a5c" />
    <path
       class="j"
       d="m 185.77855,192.97899 c -1.9,-3.36 -7.84,-4.86 -13.22,-1.69 a 36.55,36.55 0 0 0 -4.18,-2.8 33.11,33.11 0 0 0 15.45,-24.29 c 1.06,-10 -2.51,-22.66 -13.16,-29.46 -9.1,-5.8 -18.79,-4.39 -21.5,-3.9 a 133.17,133.17 0 0 0 -9.48,-30.24 c -6.07,-13.429999 -12.68,-28.079999 -20.52,-27.819999 -8.79,0.29 -17.84,19.33 -16.21,36.099999 1.84,18.91 16.79,30.07 19.86,32.27 a 40.62,40.62 0 0 0 -4,11.17 c -0.59,3 -3,15 3.22,25.57 a 30.53,30.53 0 0 0 7.83,8.71 v 0 a 36.27,36.27 0 0 0 -7,13.06 33.74,33.74 0 0 0 -1.16,5.66 82.73,82.73 0 0 0 12.59,2.52 c 11.14,1.37 13.16,-0.63 21.93,1.09 8,1.57 10.43,4.08 13.7,2.23 a 9.69,9.69 0 0 0 4.33,-6.17 9.85,9.85 0 0 0 7.76,-1.21 c 3.45,-2.31 5.67,-7.44 3.76,-10.8 z"
       id="path50"
       style="fill:#737172" />
    <path
       class="i"
       d="m 124.80855,91.658991 c -2.71,-0.64 -12.68,12.449999 -9.51,25.579999 2.87,11.82 15.16,18.56 16.57,17.36 0.78,-0.65 -2.17,-3.33 -3.57,-9.83 -1.13,-5.21 0.23,-6 -0.21,-17.85 a 53.45,53.45 0 0 0 -1.24,-9.449999 c -0.84,-3.75 -1.25,-5.63 -2.04,-5.81 z"
       id="path52"
       style="fill:#5e5a5c" />
    <path
       class="d"
       d="m 131.37855,136.06899 a 5,5 0 0 1 -1.57,-0.29 24.5,24.5 0 0 1 -8.52,-5.78 26.81,26.81 0 0 1 -7.28,-12.4 c -2.56,-10.62 3,-21.089999 7,-25.199999 1.57,-1.59 2.94,-2.25 4.08,-2 v 0 c 1.6,0.38 2,2.14 3,6.83 a 56.26,56.26 0 0 1 1.27,9.689999 102.11,102.11 0 0 1 -0.13,11.21 19.32,19.32 0 0 0 0.31,6.41 26.58,26.58 0 0 0 2.82,7.42 c 0.75,1.41 1.46,2.74 0.31,3.71 a 2,2 0 0 1 -1.29,0.4 z m -7,-42.999999 a 11.91,11.91 0 0 0 -3.46,3.67 c -3.28,4.779999 -6.13,12.599999 -4.29,20.179999 2.16,9.08 9.98,14.68 13.38,16.1 a 29.25,29.25 0 0 1 -3,-8 22.25,22.25 0 0 1 -0.37,-7.14 94.82,94.82 0 0 0 0.13,-10.94 52.56,52.56 0 0 0 -1.21,-9.209999 35.63,35.63 0 0 0 -1.21,-4.66 z m 0.28,-0.11"
       id="path54"
       style="fill:#494546" />
    <path
       class="d"
       d="m 135.88855,140.25899 a 1.31,1.31 0 0 1 -1,-0.49 37.68,37.68 0 0 1 -6.52,-11.88 c -1.85,-5.67 -1.73,-10.09 -1.62,-14.78 0,-1.59 0.09,-3.22 0.05,-4.93 a 62.72,62.72 0 0 0 -5.5,-23.579999 1.33,1.33 0 0 1 2.44,-1 65.29,65.29 0 0 1 5.68,24.549999 c 0,1.77 0,3.44 0,5.06 -0.11,4.45 -0.22,8.65 1.49,13.88 a 34.73,34.73 0 0 0 6.06,11 1.32,1.32 0 0 1 -1,2.16 z"
       id="path56"
       style="fill:#494546" />
    <path
       class="i"
       d="m 159.53855,202.37899 a 7.61,7.61 0 0 1 12.65,-3.78 7.8,7.8 0 0 1 1.4,8.48 c -0.13,0.32 -1.9,4.36 -5.86,4.75 a 7.49,7.49 0 0 1 -5.82,-2.38 c -0.49,-0.53 -3.15,-3.3 -2.37,-7.07 z"
       id="path86"
       style="fill:#5e5a5c" />
    <path
       class="i"
       d="m 172.52855,191.13899 c 1.39,-1.54 3.3,-1.65 5.91,-1.79 2.28,-0.13 4,-0.22 5.57,0.92 2.57,1.92 2.36,5.7 2.33,6.35 a 9.28,9.28 0 0 1 -5.09,7.7 c -2.18,1.05 -5.5,1.45 -6.54,0.05 -0.82,-1.09 0.4,-2.44 -0.59,-4.31 -0.7,-1.35 -1.6,-1.15 -2.37,-2.38 a 5.84,5.84 0 0 1 0.78,-6.54 z"
       id="path88"
       style="fill:#5e5a5c" />
    <g
       id="g972"
       transform="translate(37.008547,57.598991)">
      <path
         class="d"
         d="m 141,102.89 a 0.94,0.94 0 0 0 -1.34,-0.13 l -2.33,1.92 -1.8,-2.13 a 1,1 0 0 0 -1.34,-0.11 0.94,0.94 0 0 0 -0.11,1.33 l 2.19,2.59 0.1,3.82 a 0.94,0.94 0 0 0 0.94,0.93 v 0 a 1,1 0 0 0 0.92,-1 l -0.09,-3.69 2.7,-2.22 a 1,1 0 0 0 0.16,-1.31 z"
         id="path58" />
      <path
         class="d"
         d="m 142.82,103.82 a 0.7,0.7 0 0 1 -0.49,-0.2 0.67,0.67 0 0 1 0,-0.94 10.19,10.19 0 0 1 8.4,-2.69 0.66,0.66 0 0 1 0.57,0.74 0.66,0.66 0 0 1 -0.75,0.57 9,9 0 0 0 -4.13,0.42 9.1,9.1 0 0 0 -3.18,1.92 0.62,0.62 0 0 1 -0.42,0.18 z"
         id="path90" />
      <path
         class="d"
         d="m 142.82,106.37 a 0.66,0.66 0 0 1 -0.3,-1.26 15.11,15.11 0 0 1 7.21,-1.67 14.68,14.68 0 0 1 2.94,0.36 0.68,0.68 0 0 1 0.5,0.8 0.67,0.67 0 0 1 -0.8,0.5 13.45,13.45 0 0 0 -2.67,-0.33 13.76,13.76 0 0 0 -6.58,1.53 0.66,0.66 0 0 1 -0.3,0.07 z"
         id="path92" />
      <path
         class="d"
         d="m 150.32,109.31 a 0.66,0.66 0 0 1 -0.27,-0.06 9.87,9.87 0 0 0 -2.59,-0.76 10.25,10.25 0 0 0 -4.65,0.43 0.66407831,0.66407831 0 1 1 -0.42,-1.26 11.28,11.28 0 0 1 8.2,0.37 0.67,0.67 0 0 1 -0.27,1.28 z"
         id="path94" />
      <path
         class="d"
         d="m 132,104.13 a 0.66,0.66 0 0 1 -0.45,-0.18 9.12,9.12 0 0 0 -3.18,-1.93 9,9 0 0 0 -4.13,-0.41 0.68,0.68 0 0 1 -0.75,-0.57 0.67,0.67 0 0 1 0.57,-0.75 10.27,10.27 0 0 1 8.4,2.69 0.67,0.67 0 0 1 0,0.94 0.67,0.67 0 0 1 -0.46,0.21 z"
         id="path96" />
      <path
         class="d"
         d="m 132,106.67 a 0.66,0.66 0 0 1 -0.3,-0.07 13.85,13.85 0 0 0 -6.58,-1.53 13.45,13.45 0 0 0 -2.67,0.33 0.6622122,0.6622122 0 1 1 -0.3,-1.29 14.69,14.69 0 0 1 2.94,-0.37 15.15,15.15 0 0 1 7.21,1.68 0.66,0.66 0 0 1 0.3,0.89 0.68,0.68 0 0 1 -0.6,0.36 z"
         id="path98" />
      <path
         class="d"
         d="m 124.47,109.61 a 0.66,0.66 0 0 1 -0.61,-0.4 0.66,0.66 0 0 1 0.34,-0.87 11.27,11.27 0 0 1 2.94,-0.86 11.49,11.49 0 0 1 5.26,0.48 0.66,0.66 0 0 1 0.42,0.84 0.66,0.66 0 0 1 -0.84,0.42 10.11,10.11 0 0 0 -4.65,-0.42 9.85,9.85 0 0 0 -2.59,0.75 0.66,0.66 0 0 1 -0.27,0.06 z"
         id="path100" />
    </g>
    <path
       class="i"
       d="m 115.42855,78.168991 c 0.74,-0.76 1.45,-1.56 2.21,-2.3 2,-1.94 2.92,-2.58 2.77,-2.91 -0.23,-0.5 -2.79,0.05 -4.22,0.58 -6.33,2.33 -9,10.8 -10.76,16.57 a 44.78,44.78 0 0 0 -2.18,20.209999 44.46,44.46 0 0 0 4.65,14.39 c 0.54,1 0.18,0.23 8.29,11 2.12,2.89 4.9,2.17 5.82,4.27 1.29,3 -1.16,6.07 -2.69,9.35 -5.44,11.73 1.07,25.27 1.69,26.55 4.65,9.37 13.63,14.09 14.35,13.38 0.87,-0.87 -11.17,-9 -12.92,-23 a 41,41 0 0 1 1.42,-17.58 c 1.63,-4.47 3.42,-6.09 2.78,-9 -0.94,-4.28 -5.57,-4.81 -10.58,-9.84 -4.3,-4.31 -5.91,-9 -7.27,-12.65 -4.28,-11.35 -1.61,-21.999999 -0.73,-24.999999 a 37.31,37.31 0 0 1 7.37,-14.02 z"
       id="path102"
       style="fill:#5e5a5c" />
    <path
       class="d"
       d="m 186.93855,191.93899 a 8.42,8.42 0 0 0 -5.42,-3.78 12.67,12.67 0 0 0 -7.77,0.68 l -2.89,-0.79 a 35.63,35.63 0 0 0 5.89,-5.31 33.59,33.59 0 0 0 8.4,-18.78 c 1,-9.12 -1.77,-22.16 -12.44,-29.82 a 32.26,32.26 0 0 0 8.43,-17.76 c 1.54,-13.56 -7.32,-23.809999 -13.8,-31.299999 -5.41,-6.26 -14.48,-16.74 -20.86,-14.13 -4.35,1.77 -6.15,8.9 -5.53,21.78 0.15,3 0.41,5.94 0.71,8.679999 -0.25,-0.58 -0.5,-1.16 -0.76,-1.729999 -6.42,-14.21 -13,-28.9 -21.77,-28.61 -2.76,0.09 -5.59,1.71 -8.21,4.7 -6.51,7.41 -10.41,21.23 -9.28,32.829999 a 43.27,43.27 0 0 0 9.75,23.11 54.73,54.73 0 0 0 9.73,9.44 41.77,41.77 0 0 0 -3.63,10.5 c -2.57,12.83 0.42,21.5 3.38,26.51 a 31.89,31.89 0 0 0 7.14,8.26 37.2,37.2 0 0 0 -6.44,12.48 36.49,36.49 0 0 0 -1.2,5.88 1.32,1.32 0 0 0 1,1.44 86.19,86.19 0 0 0 12.79,2.56 65.45,65.45 0 0 0 11.75,0.43 37.89,37.89 0 0 1 10.09,0.64 55.94,55.94 0 0 1 6.78,1.83 16.06,16.06 0 0 0 4.79,1.08 6,6 0 0 0 3,-0.83 10.94,10.94 0 0 0 4.62,-5.8 12.38,12.38 0 0 0 1.59,0.11 10.71,10.71 0 0 0 5.95,-1.73 c 3.88,-2.58 6.58,-8.38 4.21,-12.57 z m -39.46,-118.529999 c 1.86,-0.76 4.81,0.52 8.54,3.7 a 91.37,91.37 0 0 1 9.31,9.71 c 6.5,7.51 14.58,16.859999 13.17,29.249999 a 29.73,29.73 0 0 1 -8.05,16.6 32,32 0 0 0 -20.22,-3.73 135.57,135.57 0 0 0 -4.22,-16.24 170.07,170.07 0 0 1 -2.4,-20.099999 c -0.73,-15 2.11,-18.47 3.87,-19.19 z m 33.76,128.879999 a 8.22,8.22 0 0 1 -5.51,1.22 7.4,7.4 0 0 0 -0.88,-4.2 8.43,8.43 0 0 0 -5.42,-3.78 13.13,13.13 0 0 0 -10.18,1.95 1.33,1.33 0 0 0 1.44,2.23 10.49,10.49 0 0 1 8.11,-1.59 5.75,5.75 0 0 1 3.74,2.5 c 1.57,2.78 -0.53,7.43 -3.3,9 -1.47,0.83 -2.62,0.53 -5.7,-0.47 a 57.92,57.92 0 0 0 -7.09,-1.91 40.62,40.62 0 0 0 -10.7,-0.69 62.12,62.12 0 0 1 -11.32,-0.41 84.26,84.26 0 0 1 -11.29,-2.17 34,34 0 0 1 7,-15.94 35.86,35.86 0 0 0 4.3,2.6 1.33,1.33 0 0 0 1.21,-2.36 30.86,30.86 0 0 1 -12.46,-11.44 c -2.72,-4.61 -5.46,-12.63 -3,-24.64 a 38.91,38.91 0 0 1 3.82,-10.79 1.34,1.34 0 0 0 -0.4,-1.71 c -5.26,-3.76 -17.67,-14.34 -19.32,-31.33 -1.2,-12.279999 3.55,-25.059999 8.62,-30.839999 2.13,-2.42 4.3,-3.73 6.31,-3.8 3,-0.1 6.18,2.57 9.75,8.17 3.34,5.23 6.47,12.17 9.5,18.879999 a 129.21,129.21 0 0 1 4.92,12.59 124.1,124.1 0 0 0 4.52,17.52 v 0 0.07 a 0.17,0.17 0 0 1 0,0.05 0.43,0.43 0 0 0 0,0.07 v 0 a 0.21,0.21 0 0 0 0,0.06 v 0 0 0.05 0 0 0 0 h 0.05 v 0 h 0.06 v 0 h 0.07 v 0 h 0.07 v 0 h 0.07 0.49 c 3.45,-0.62 12.37,-1.51 20.56,3.72 a 26.22,26.22 0 0 1 9.29,10.3 5.72,5.72 0 0 0 -2,4.51 c 0,3 1.85,5.33 4.21,5.33 a 3.1,3.1 0 0 0 0.81,-0.11 32.83,32.83 0 0 1 0.2,8.17 c -1.35,12.77 -11.22,24 -24,27.26 a 32.82,32.82 0 0 1 -3.81,0.73 1.33,1.33 0 0 0 0.17,2.65 h 0.17 a 32,32 0 0 0 4.13,-0.79 34.63,34.63 0 0 0 8.66,-3.52 l 2.95,0.8 a 1.31,1.31 0 0 0 0.14,1.15 1.33,1.33 0 0 0 1.84,0.39 10.47,10.47 0 0 1 8.1,-1.59 5.73,5.73 0 0 1 3.74,2.51 c 2.32,3.35 0.22,7.71 -2.64,9.6 z"
       id="path108"
       style="fill:#494546" />
    <path
       class="d"
       d="m 159.22855,155.80899 c 2.37,0 4.22,-2.34 4.22,-5.33 0,-2.99 -1.85,-5.32 -4.22,-5.32 -2.37,0 -4.22,2.34 -4.22,5.32 0,2.98 1.86,5.33 4.22,5.33 z"
       id="path110"
       style="fill:#494546" />
    <g
       id="g963"
       transform="translate(37.008547,57.598991)">
      <path
         class="i"
         d="m 113.48,104.11 c -1.59,0.11 -1.77,2 -4.88,3.36 -1.82,0.83 -3.48,1 -3.45,1.2 a 12,12 0 0 0 3.15,-0.15 c 1.6,-0.19 2.1,-0.35 2.22,-0.14 0.29,0.49 -2,1.58 -3.1,4.08 -0.92,2.14 -0.54,4.49 -0.18,4.56 0.18,0 0.31,-0.49 1.08,-1.75 0.51,-0.86 1.4,-2.17 1.6,-2.08 0.2,0.09 -0.84,1.69 -0.51,3.42 a 4.64,4.64 0 0 0 1.8,2.66 c 0.37,-1.5 0.57,-1.77 0.68,-1.76 0.26,0 0.07,1.64 0.6,3.35 a 8.31,8.31 0 0 0 2.1,3.37 c -0.63,-2.34 -0.62,-2.92 -0.47,-3 0.39,-0.15 1.35,3.63 4.17,4.67 1.57,0.58 3.78,0.45 4.59,-0.7 0.81,-1.15 -0.41,-2.69 -1.74,-6.81 -1.63,-5.06 -0.73,-5.91 -2.39,-9.11 -0.57,-1.08 -2.75,-5.34 -5.27,-5.17 z"
         id="path106" />
      <path
         class="d"
         d="m 119.65,126.81 a 4.6,4.6 0 0 1 -1.58,-0.27 6.09,6.09 0 0 1 -2.81,-2.29 0.68,0.68 0 0 1 -0.33,0.55 0.66,0.66 0 0 1 -0.8,-0.1 8.75,8.75 0 0 1 -2.27,-3.65 8.5,8.5 0 0 1 -0.28,-1.22 l -0.15,0.07 a 0.65,0.65 0 0 1 -0.63,-0.1 5.23,5.23 0 0 1 -2,-3.07 5.29,5.29 0 0 1 -0.08,-0.78 c -0.2,0.35 -0.34,0.62 -0.46,0.84 -0.26,0.51 -0.52,1 -1.1,0.88 a 0.88,0.88 0 0 1 -0.61,-0.48 7,7 0 0 1 0.3,-5 9.31,9.31 0 0 1 2.31,-3.11 l -0.74,0.09 c -0.26,0 -1.18,0.14 -2,0.19 -1,0.07 -1.73,0.12 -1.87,-0.57 0,-0.28 0,-0.66 0.67,-0.89 0.18,-0.07 0.42,-0.13 0.71,-0.22 a 21.62,21.62 0 0 0 2.46,-0.83 14.41,14.41 0 0 0 4.67,-3.21 0.66,0.66 0 0 1 0.94,0 0.67,0.67 0 0 1 0,0.94 16,16 0 0 1 -4.18,3.08 c 0.64,-0.08 1.06,-0.06 1.32,0.39 0.38,0.66 -0.21,1.21 -0.84,1.79 a 8.44,8.44 0 0 0 -2.23,2.88 6.7,6.7 0 0 0 -0.52,2.6 l 0.24,-0.4 c 0.31,-0.51 0.67,-1 1,-1.44 0.33,-0.44 0.88,-1.19 1.51,-0.88 0.63,0.31 0.37,1 0.22,1.39 a 4.81,4.81 0 0 0 -0.37,2.49 3.45,3.45 0 0 0 0.8,1.55 c 0.25,-0.79 0.55,-1.23 1.1,-1.18 0.55,0.05 0.72,0.72 0.78,1.47 a 10.61,10.61 0 0 0 0.39,2.34 5.4,5.4 0 0 0 0.25,0.67 0.71,0.71 0 0 1 0.49,-0.69 c 0.68,-0.27 1,0.36 1.45,1.15 0.59,1.1 1.58,2.93 3.19,3.5 a 5.15,5.15 0 0 0 4.06,-0.66 0.66206118,0.66206118 0 1 1 0.62,1.17 7.73,7.73 0 0 1 -3.63,1.01 z"
         id="path112" />
    </g>
  </g>
  <g
     inkscape:groupmode="layer"
     id="layer3"
     inkscape:label="Layer 2"
     style="display:inline">
    <ellipse
       style="fill:#171717;fill-opacity:0.309804;fill-rule:evenodd;stroke:none;stroke-width:6.24209;stroke-linecap:round;stroke-linejoin:round;paint-order:markers fill stroke;stop-color:#000000"
       id="path3515"
       cx="137.57724"
       cy="322.89487"
       rx="84.616791"
       ry="30.781704" />
    <g
       id="g3513"
       transform="rotate(1.7529825,-2116.3737,385.65473)"
       inkscape:transform-center-x="-5.0622251"
       inkscape:transform-center-y="-128.66654">
      <path
         id="path1340"
         style="mix-blend-mode:normal;fill:url(#linearGradient3485);fill-opacity:1;fill-rule:evenodd;stroke:none;stroke-width:7;stroke-linecap:round;stroke-linejoin:round;paint-order:markers fill stroke;stop-color:#000000"
         d="m 232.65018,142.56175 c 0,74.05783 -42.21812,126.29428 -94.06742,126.29427 -51.849291,0 -93.695492,-52.23645 -93.695492,-126.29427 0,-74.057821 42.032158,-134.0935477 93.881452,-134.0935493 51.8493,-4.7e-6 93.88146,60.0357233 93.88146,134.0935493 z"
         sodipodi:nodetypes="sssss" />
      <path
         id="path3503"
         style="mix-blend-mode:normal;fill:#ff80e5;fill-opacity:1;fill-rule:evenodd;stroke:none;stroke-width:7;stroke-linecap:round;stroke-linejoin:round;paint-order:markers fill stroke;stop-color:#000000"
         d="m 222.31238,202.0271 c -9.36439,24.60766 -24.50545,43.73464 -42.98464,55.10493 C 102.08,236.4 57.08,114.58 60.64458,68.175969 70.973492,46.088708 85.771599,28.627916 103.19227,18.431184 100.60939,46.79022 189.13273,196.4917 222.31238,202.0271 Z"
         sodipodi:nodetypes="ccccc" />
      <path
         id="path3505"
         style="mix-blend-mode:normal;fill:#f2f2f2;fill-opacity:1;fill-rule:evenodd;stroke:none;stroke-width:7;stroke-linecap:round;stroke-linejoin:round;paint-order:markers fill stroke;stop-color:#000000"
         d="m 210.6201,225.50463 c -5.11465,8.03939 -10.98479,15.11882 -17.46428,21.10189 C 136.23042,232.3592 66.851444,85.626885 71.393494,49.180106 75.936123,42.494808 80.962186,36.483406 86.391125,31.260963 83.434924,57.624722 165.38113,221.45181 210.6201,225.50463 Z"
         sodipodi:nodetypes="ccccc" />
      <path
         id="path3507"
         style="mix-blend-mode:normal;fill:#4d4d4d;fill-opacity:0.246167;fill-rule:evenodd;stroke:none;stroke-width:7;stroke-linecap:round;stroke-linejoin:round;paint-order:markers fill stroke;stop-color:#000000"
         d="m 232.65018,142.56175 c 0,74.05783 -42.21812,126.29427 -94.06742,126.29427 -16.66592,0 -32.29835,-5.39693 -45.839794,-15.18072 77.587764,16.2223 139.393724,-71.16658 121.827984,-190.240301 11.36764,22.179257 18.07923,49.533501 18.07923,79.126751 z"
         sodipodi:nodetypes="ssccs" />
    </g>
  </g>
</svg>
