<?xml version="1.0" encoding="UTF-8" standalone="no"?>
<svg
   xmlns:osb="http://www.openswatchbook.org/uri/2009/osb"
   xmlns:dc="http://purl.org/dc/elements/1.1/"
   xmlns:cc="http://creativecommons.org/ns#"
   xmlns:rdf="http://www.w3.org/1999/02/22-rdf-syntax-ns#"
   xmlns:svg="http://www.w3.org/2000/svg"
   xmlns="http://www.w3.org/2000/svg"
   xmlns:xlink="http://www.w3.org/1999/xlink"
   xmlns:sodipodi="http://sodipodi.sourceforge.net/DTD/sodipodi-0.dtd"
   xmlns:inkscape="http://www.inkscape.org/namespaces/inkscape"
   viewBox="0 0 279.68503 396.85037"
   version="1.1"
   id="svg114"
   sodipodi:docname="a16.svg"
   inkscape:version="1.0.2 (e86c870879, 2021-01-15)"
   width="74mm"
   height="105mm"
   inkscape:export-filename="/home/l3d/Downloads/r2r-Design/testanima/a08.png"
   inkscape:export-xdpi="175.74055"
   inkscape:export-ydpi="175.74055">
  <metadata
     id="metadata118">
    <rdf:RDF>
      <cc:Work
         rdf:about="">
        <dc:format>image/svg+xml</dc:format>
        <dc:type
           rdf:resource="http://purl.org/dc/dcmitype/StillImage" />
        <dc:title></dc:title>
      </cc:Work>
    </rdf:RDF>
  </metadata>
  <sodipodi:namedview
     pagecolor="#ffffff"
     bordercolor="#666666"
     borderopacity="1"
     objecttolerance="10"
     gridtolerance="10"
     guidetolerance="10"
     inkscape:pageopacity="0"
     inkscape:pageshadow="2"
     inkscape:window-width="1916"
     inkscape:window-height="2105"
     id="namedview116"
     showgrid="false"
     inkscape:zoom="4.7894342"
     inkscape:cx="112.7116"
     inkscape:cy="266.33328"
     inkscape:window-x="4480"
     inkscape:window-y="53"
     inkscape:window-maximized="0"
     inkscape:current-layer="layer2"
     units="mm"
     inkscape:document-rotation="0" />
  <defs
     id="defs4">
    <linearGradient
       inkscape:collect="always"
       id="linearGradient3483">
      <stop
         style="stop-color:#0066ff;stop-opacity:1"
         offset="0"
         id="stop3487" />
      <stop
         style="stop-color:#2ad4ff;stop-opacity:1"
         offset="1"
         id="stop3489" />
    </linearGradient>
    <linearGradient
       id="linearGradient3475"
       osb:paint="solid">
      <stop
         style="stop-color:#ff0000;stop-opacity:1;"
         offset="0"
         id="stop3473" />
    </linearGradient>
    <style
       id="style2">.a{fill:#181716;opacity:0.31;}.b{fill:#20032a;}.c{fill:#d10369;}.d{fill:#494546;}.e{fill:#232322;}.f{fill:#3a3a39;}.g{fill:#2c053a;}.h{fill:#e10880;}.i{fill:#5e5a5c;}.j{fill:#737172;}.k{fill:#ee7400;}.l{fill:#3d7c2f;}.m{fill:#b26102;}.n{fill:#30ac5a;}.o{fill:#069951;}</style>
    <linearGradient
       inkscape:collect="always"
       xlink:href="#linearGradient3483"
       id="linearGradient3485"
       x1="68.199944"
       y1="265.48984"
       x2="230.18843"
       y2="11.386665"
       gradientUnits="userSpaceOnUse"
       gradientTransform="rotate(11.256644,-1061.6368,759.28812)" />
    <linearGradient
       inkscape:collect="always"
       xlink:href="#linearGradient3483"
       id="linearGradient3760"
       gradientUnits="userSpaceOnUse"
       x1="68.199944"
       y1="265.48984"
       x2="230.18843"
       y2="11.386665"
       gradientTransform="rotate(3.8621139,-915.00028,345.52979)" />
  </defs>
  <g
     inkscape:groupmode="layer"
     id="layer2"
     inkscape:label="bg"
     style="display:inline">
    <ellipse
       class="a"
       cx="137.64854"
       cy="313.95898"
       rx="73.989998"
       ry="28.34"
       id="ellipse6"
       style="opacity:0.31;fill:#181716" />
    <path
       class="b"
       d="m 76.890837,233.70366 c 0.215612,8.99055 0.596668,21.32751 1.325822,36.00895 1.752141,35.26146 3.222925,38.28571 4.84582,40.49531 17.451771,23.7725 93.975441,8.62301 101.106381,-18.98637 1.31485,-5.09467 -0.46701,-7.7243 -8.0239,-34.64401 -4.21257,-15.051 -7.37798,-27.50571 -9.46068,-35.95174"
       id="path8"
       style="fill:#20032a"
       inkscape:transform-center-x="-29.482738"
       inkscape:transform-center-y="-58.368588" />
    <path
       class="c"
       d="m 73.08232,222.5987 a 17.64,17.64 0 0 0 1.539728,10.79255 166.61,166.61 0 0 0 94.349302,-13.78295 c 0.73784,-4.77867 0.63738,-10.23237 -2.31574,-14.65829 -14.38369,-21.5835 -88.338422,-7.27417 -93.57329,17.64869 z"
       id="path10"
       style="fill:#d10369"
       inkscape:transform-center-x="-19.843278"
       inkscape:transform-center-y="-114.91612" />
    <path
       class="d"
       d="m 116.40426,197.30098 c 19.41181,-3.74156 42.23507,-2.66522 49.4645,8.1711 l 0.287,0.46014 c 0.49516,-0.38382 1.03618,-0.73452 1.56733,-1.08364 l -0.28222,-0.43052 c -3.52903,-5.29525 -10.68704,-8.84989 -20.69182,-10.27359 -8.88598,-1.27004 -19.78156,-0.80766 -30.70524,1.30023 -10.92368,2.10789 -21.016279,5.66181 -28.703073,10.06313 -8.084205,4.63769 -13.190022,10.03035 -14.871027,15.68048 0.597467,0.18717 1.194934,0.37434 1.81883,0.53699 3.52466,-11.92415 23.45101,-20.82364 42.11572,-24.42432 z"
       id="path12"
       style="fill:#494546"
       inkscape:transform-center-x="-18.851252"
       inkscape:transform-center-y="-122.09848" />
    <path
       class="b"
       d="m 64.717738,175.11487 c -2.881259,1.47809 -16.856719,8.52549 -17.53469,19.94955 -0.816311,12.76324 15.366258,22.33653 17.854628,23.75812 12.58931,7.20569 30.616229,4.2347 66.158564,-1.98936 18.15619,-3.17419 31.47934,-6.41902 43.9219,-16.56168 4.14689,-3.3639 12.2894,-10.08754 10.84809,-16.31746 -1.27242,-5.49748 -9.4968,-7.87714 -21.36711,-11.31933 a 106.66,106.66 0 0 0 -27.94472,-4.8787 c -12.99981,-0.52489 -14.01128,1.4921 -33.94792,3.04937 -23.926633,1.87727 -28.448542,-0.53286 -37.988742,4.30949 z"
       id="path14"
       style="fill:#20032a"
       inkscape:transform-center-x="-15.398999"
       inkscape:transform-center-y="-134.33118" />
    <path
       class="e"
       d="m 114.96927,204.03576 c 21.52472,-2.19857 43.59927,-12.2856 42.67335,-17.70733 -0.92592,-5.42174 -25.31885,-6.24467 -42.56472,-4.2709 -18.42065,2.16342 -42.08861,9.09405 -41.653426,14.67604 0.424958,5.3304 22.403422,9.26794 41.544796,7.30219 z"
       id="path16"
       style="fill:#232322"
       inkscape:transform-center-x="-14.299517"
       inkscape:transform-center-y="-136.86669" />
    <path
       class="f"
       d="m 120.69434,204.23589 c -1.86585,0.30122 -3.74953,0.55467 -5.62303,0.7457 -16.35963,1.6281 -35.489849,-0.85478 -40.955998,-5.41187 a 4,4 0 0 1 -1.643348,-2.71277 c -0.240569,-3.12156 4.596135,-6.35371 14.405983,-9.58849 a 151.15,151.15 0 0 1 28.087733,-6.09434 155.15,155.15 0 0 1 27.5901,-0.70616 52.52,52.52 0 0 1 10.73824,1.70034 c 3.25995,0.99315 4.9894,2.29415 5.27658,4.01031 a 4.13,4.13 0 0 1 -1.02245,3.20391 c -3.96033,5.14696 -19.85391,12.10896 -36.85381,14.85337 z m -5.81565,-1.13768 c 18.21528,-1.8669 37.0931,-9.54364 41.15308,-14.88902 a 2.51,2.51 0 0 0 0.66471,-1.71789 c -0.24224,-1.50058 -4.14212,-3.3831 -14.28183,-4.13673 a 153.88,153.88 0 0 0 -27.23661,0.69974 149.62,149.62 0 0 0 -27.715771,6.01403 c -9.865894,3.26408 -13.183563,6.1801 -13.108835,7.64694 a 2.41,2.41 0 0 0 0.954642,1.3957 c 4.583889,3.79799 22.460694,6.73646 39.570614,4.98723 z"
       id="path18"
       style="fill:#3a3a39"
       inkscape:transform-center-x="-14.284437"
       inkscape:transform-center-y="-136.86313" />
    <path
       class="g"
       d="m 83.750683,234.47018 17.234187,0.96567 q 3.36818,43.01298 6.7956,86.01639 a 67.06,67.06 0 0 1 -18.357104,-5.47433 z"
       id="path20"
       style="fill:#2c053a"
       inkscape:transform-center-x="5.4795715"
       inkscape:transform-center-y="-51.720842" />
    <path
       class="g"
       d="m 145.90202,228.11365 11.85817,63.28906 q -3.35772,-32.15587 -6.72211,-64.29041 z"
       id="path22"
       style="fill:#2c053a"
       inkscape:transform-center-x="-50.585956"
       inkscape:transform-center-y="-70.424546" />
    <path
       class="f"
       d="m 134.25032,321.52457 a 96.64,96.64 0 0 1 -29.14136,0.57167 c -10.656389,-1.63252 -18.570485,-5.54118 -22.815492,-11.31848 -0.922455,-1.25908 -1.741761,-2.75766 -2.543809,-8.29055 -0.88302,-6.0972 -1.650415,-16.49784 -2.478516,-32.73338 -0.58992,-11.99935 -1.04101,-24.14267 -1.32901,-36.0287 a 0.95,0.95 0 1 1 1.897408,-0.0429 c 0.287999,11.88602 0.734308,23.99973 1.330913,35.97774 1.659524,33.43284 3.05948,37.77523 4.652758,39.98961 3.905146,5.36621 11.393099,9.01952 21.569868,10.5674 9.34555,1.4187 20.65354,1.00117 31.98039,-1.18194 11.32685,-2.1831 21.90062,-5.95651 29.99022,-10.68623 8.7838,-5.13555 14.27742,-11.13781 15.88414,-17.37358 0.90713,-3.47904 0.19597,-5.87634 -3.17822,-17.36544 -1.26205,-4.30387 -2.83763,-9.67137 -4.83669,-16.78368 -3.34878,-11.95915 -6.53739,-24.05558 -9.46068,-35.95174 a 1,1 0 0 1 0.6995,-1.12587 1,1 0 0 1 1.12588,0.69951 c 2.93157,11.88469 6.09725,23.96456 9.46068,35.95174 1.99078,7.12377 3.56158,12.46165 4.82204,16.75565 3.50195,11.90404 4.22745,14.39019 3.20097,18.38484 -1.74072,6.72336 -7.53396,13.12852 -16.77121,18.52973 -8.26602,4.82911 -19.13627,8.71116 -30.59145,10.91498 -1.15155,0.14539 -2.30341,0.3516 -3.46833,0.53966 z"
       id="path24"
       style="fill:#3a3a39"
       inkscape:transform-center-x="-29.479488"
       inkscape:transform-center-y="-58.347909" />
    <path
       class="f"
       d="m 84.499042,178.55624 a 40.11,40.11 0 0 0 -8.040119,1.14603 31.7,31.7 0 0 0 -3.856436,1.21008 30.76,30.76 0 0 0 -3.671037,1.60559 47.64,47.64 0 0 0 -6.886528,4.15058 20.42,20.42 0 0 0 -2.906889,2.63699 9.59,9.59 0 0 0 -1.96447,3.20404 6.17,6.17 0 0 0 -0.349419,1.78854 7.42,7.42 0 0 0 0.173188,1.82574 10,10 0 0 0 0.602472,1.78682 l 0.211523,0.43181 a 3.53,3.53 0 0 0 0.221394,0.43021 l 0.239546,0.41716 0.259289,0.41396 a 18.43,18.43 0 0 0 2.516307,3.0378 27.38,27.38 0 0 0 3.013369,2.60302 36.27,36.27 0 0 0 3.34579,2.21508 38.49,38.49 0 0 0 3.577587,1.89404 c 1.21853,0.58325 2.466986,1.10089 3.731999,1.59561 1.265014,0.49471 2.558362,0.91394 3.86158,1.33158 -1.346823,-0.24852 -2.676783,-0.58081 -3.990183,-0.93603 -1.3134,-0.35522 -2.613121,-0.81394 -3.897878,-1.30547 a 36.5,36.5 0 0 1 -7.332254,-3.88104 26.65,26.65 0 0 1 -3.258269,-2.61413 19.09,19.09 0 0 1 -2.755498,-3.20177 l -0.295281,-0.44867 -0.267258,-0.46333 c -0.190804,-0.30347 -0.337028,-0.64452 -0.495028,-0.93303 a 11.13,11.13 0 0 1 -0.717796,-2.06196 8.8,8.8 0 0 1 -0.227065,-2.22221 7.86,7.86 0 0 1 0.420693,-2.2255 11,11 0 0 1 2.289233,-3.70216 19.72,19.72 0 0 1 3.175651,-2.7918 34.58,34.58 0 0 1 3.522861,-2.20969 c 1.206884,-0.68105 2.436391,-1.28472 3.682145,-1.85049 a 32.33,32.33 0 0 1 16.080151,-2.92008 z"
       id="path26"
       style="fill:#3a3a39"
       inkscape:transform-center-x="31.319525"
       inkscape:transform-center-y="-134.33134" />
    <path
       class="f"
       d="m 80.0799,184.37491 a 25.16,25.16 0 0 0 -10.103538,2.79597 30.79,30.79 0 0 0 -4.449518,2.74421 12.38,12.38 0 0 0 -1.863095,1.69864 5.91,5.91 0 0 0 -1.235037,2.01256 5.09,5.09 0 0 0 0.847113,4.43163 15.06,15.06 0 0 0 3.519243,3.66599 c 0.692736,0.52632 1.408714,1.00837 2.162587,1.47418 0.753873,0.46581 1.509649,0.88066 2.301727,1.26939 0.792078,0.38873 1.600713,0.75453 2.42431,1.08753 0.823598,0.333 1.653881,0.64465 2.502317,0.94325 a 26.51,26.51 0 0 1 -2.639198,-0.53623 c -0.868488,-0.23459 -1.723605,-0.51185 -2.581911,-0.80885 a 23.34,23.34 0 0 1 -4.865222,-2.46614 17.42,17.42 0 0 1 -2.174718,-1.67481 12.19,12.19 0 0 1 -1.843579,-2.13345 9.44,9.44 0 0 1 -0.728508,-1.24987 8.74,8.74 0 0 1 -0.489363,-1.3999 6.06,6.06 0 0 1 -0.154991,-1.52479 5.38,5.38 0 0 1 0.288946,-1.53568 7.59,7.59 0 0 1 1.549928,-2.50909 13.51,13.51 0 0 1 2.130264,-1.86332 28,28 0 0 1 4.779461,-2.64554 20.75,20.75 0 0 1 5.235977,-1.5746 20.47,20.47 0 0 1 5.386805,-0.20108 z"
       id="path28"
       style="fill:#3a3a39"
       inkscape:transform-center-x="30.851922"
       inkscape:transform-center-y="-134.29136" />
    <path
       class="f"
       d="m 150.11251,175.13546 a 59.93,59.93 0 0 1 8.00506,0.89565 41.92,41.92 0 0 1 7.83613,2.10808 19.19,19.19 0 0 1 3.70274,1.85357 12,12 0 0 1 1.68009,1.30897 7.71,7.71 0 0 1 1.36391,1.7348 5.45,5.45 0 0 1 0.67769,2.18999 7.06,7.06 0 0 1 -0.20381,2.25125 11.49,11.49 0 0 1 -1.94942,3.79925 27.44,27.44 0 0 1 -5.98825,5.63641 50.56,50.56 0 0 1 -6.98525,4.16652 c -1.20816,0.61035 -2.4243,1.17134 -3.66496,1.7059 -0.62766,0.25327 -1.24385,0.51482 -1.90272,0.763 l -0.95375,0.36669 -0.95535,0.35682 a 76.84,76.84 0 0 1 -7.72562,2.34118 c 2.51032,-0.95225 4.99453,-1.9408 7.43158,-3.03317 l 0.94738,-0.40617 0.94259,-0.4358 c 0.60473,-0.26983 1.1948,-0.56767 1.79634,-0.85725 l 1.7785,-0.90501 c 0.58688,-0.31759 1.17695,-0.61544 1.76225,-0.94291 l 0.86233,-0.49374 0.86074,-0.50362 c 0.2885,-0.158 0.56395,-0.33415 0.84927,-0.51189 0.28532,-0.17775 0.56395,-0.33415 0.83781,-0.52017 1.12153,-0.70779 2.21694,-1.45188 3.2649,-2.23896 a 34.67,34.67 0 0 0 3.02792,-2.51471 22.27,22.27 0 0 0 2.57756,-2.85732 10.4,10.4 0 0 0 1.71351,-3.31546 5.6,5.6 0 0 0 0.18637,-1.73184 4.22,4.22 0 0 0 -0.48494,-1.62347 7.73,7.73 0 0 0 -2.52166,-2.63175 16.38,16.38 0 0 0 -1.65043,-0.99974 c -0.56723,-0.31361 -1.15929,-0.59282 -1.75964,-0.86056 -1.19909,-0.52562 -2.44627,-0.97256 -3.69694,-1.37843 -1.25066,-0.40586 -2.54591,-0.77414 -3.84307,-1.09146 -2.54813,-0.66236 -5.17586,-1.19032 -7.81886,-1.62465 z"
       id="path30"
       style="fill:#3a3a39"
       inkscape:transform-center-x="-56.977182"
       inkscape:transform-center-y="-138.80755" />
    <path
       class="f"
       d="m 152.66959,180.49645 a 33,33 0 0 1 4.97926,0.4117 25.89,25.89 0 0 1 4.89944,1.23495 12.1,12.1 0 0 1 2.34184,1.14136 6,6 0 0 1 1.94611,2.0156 c 0.0191,0.11847 0.10735,0.22578 0.15609,0.33946 l 0.0796,0.17961 0.0303,0.18757 a 2.33,2.33 0 0 1 0.0606,0.37514 l 0.0622,0.38502 a 4.69,4.69 0 0 1 -0.13418,1.49043 7.44,7.44 0 0 1 -1.24548,2.44981 16.82,16.82 0 0 1 -3.6574,3.44695 30.44,30.44 0 0 1 -4.36961,2.54898 40.94,40.94 0 0 1 -9.45954,3.20861 c 1.52568,-0.65148 3.05294,-1.29308 4.53784,-2.00889 1.4849,-0.7158 2.94049,-1.48765 4.36647,-2.25471 a 38.53,38.53 0 0 0 4.07437,-2.68365 21,21 0 0 0 1.77841,-1.53303 13.17,13.17 0 0 0 1.57392,-1.73299 6,6 0 0 0 1.02423,-1.93801 3,3 0 0 0 0.10686,-0.96942 l -0.0367,-0.22706 c -0.0128,-0.079 -0.0255,-0.15795 -0.0367,-0.22706 l -0.0191,-0.11847 -0.0191,-0.11846 -0.0959,-0.2175 a 4.69,4.69 0 0 0 -1.46516,-1.54626 12.18,12.18 0 0 0 -2.04916,-1.14809 31.39,31.39 0 0 0 -4.59504,-1.60822 c -1.59939,-0.36983 -3.20705,-0.72819 -4.83446,-1.08337 z"
       id="path32"
       style="fill:#3a3a39"
       inkscape:transform-center-x="-56.552589"
       inkscape:transform-center-y="-139.478" />
    <path
       class="f"
       d="m 79.596388,208.29774 c 4.663127,1.15154 9.346929,2.11741 14.065082,2.79411 2.3707,0.31621 4.72993,0.62415 7.10634,0.7875 2.37641,0.16335 4.75122,0.31683 7.15118,0.37509 1.18692,0.011 2.37703,0.0417 3.56904,0.0215 0.59521,-0.0151 1.18533,0.001 1.77894,-0.0238 l 1.78403,-0.055 q 3.58144,-0.15274 7.13418,-0.48318 c 4.74538,-0.47232 9.46907,-1.20451 14.18222,-2.12746 a 80.43,80.43 0 0 1 -14.0467,3.2806 l -1.78687,0.28847 c -0.59233,0.0956 -1.19422,0.13202 -1.79133,0.19802 l -0.89837,0.14503 -0.90125,0.0645 -1.8009,0.13879 q -3.62283,0.21007 -7.2476,0.15709 c -0.5984,-0.005 -1.20157,-0.039 -1.80316,-0.0634 l -0.90731,-0.0359 c -0.30573,-0.0114 -0.60158,-0.0244 -0.9105,-0.0556 -1.19967,-0.0899 -2.40602,-0.15857 -3.60538,-0.30935 l -1.79586,-0.20643 c -0.59968,-0.0754 -1.19936,-0.15078 -1.80222,-0.24591 -1.191086,-0.16225 -2.380264,-0.37545 -3.561164,-0.60012 a 78.61,78.61 0 0 1 -13.912398,-4.04442 z"
       id="path34"
       style="fill:#3a3a39"
       inkscape:transform-center-x="-6.7367461"
       inkscape:transform-center-y="-118.59834" />
    <path
       class="f"
       d="m 83.851339,183.39127 a 88.23,88.23 0 0 1 11.314447,-4.26778 108.66,108.66 0 0 1 11.766224,-2.91245 104.34,104.34 0 0 1 12.02246,-1.57621 87.65,87.65 0 0 1 12.13668,-0.11574 c -3.9919,0.37094 -7.97903,0.7715 -11.94702,1.29053 -1.97444,0.31875 -3.96482,0.53877 -5.93925,0.85752 -0.98722,0.15937 -1.97444,0.31875 -2.96166,0.47812 l -1.48082,0.23906 -1.48083,0.23906 q -5.89941,1.10433 -11.746217,2.53443 c -3.937982,1.08144 -7.810046,2.13197 -11.684014,3.23346 z"
       id="path36"
       style="fill:#3a3a39"
       inkscape:transform-center-x="-6.2260965"
       inkscape:transform-center-y="-150.80509" />
    <path
       class="h"
       d="m 83.82311,235.42079 17.16176,0.0151 -0.86847,-13.47381 -17.069587,0.93236 z"
       id="path38"
       style="fill:#e10880"
       inkscape:transform-center-x="9.2293063"
       inkscape:transform-center-y="-100.98306" />
    <path
       class="f"
       d="m 112.38226,221.01509 c -23.002192,3.7134 -37.296677,4.64345 -47.833632,-1.39441 a 53.64,53.64 0 0 1 -10.371921,-7.77639 c -5.64367,-5.53124 -8.332325,-11.20526 -7.969766,-16.86539 0.486466,-7.71616 6.904391,-15.08317 18.056542,-20.73274 v 0 c 6.39527,-3.24066 10.714595,-3.34032 19.305477,-3.5218 4.735241,-0.0959 10.619817,-0.22539 18.97146,-0.88486 8.58349,-0.6665 13.62787,-1.42007 17.68343,-2.02414 a 71.94,71.94 0 0 1 16.42564,-1.03099 107.39,107.39 0 0 1 28.20267,4.90797 c 12.42192,3.59624 20.63643,5.9775 22.03758,12.02145 1.58758,6.88498 -7.35674,14.1635 -11.17023,17.27099 -13.05491,10.6163 -27.21595,13.75329 -44.38651,16.75824 -6.88981,1.24395 -13.19526,2.34292 -18.95074,3.27207 z m -47.664522,-45.90022 0.431323,0.85215 c -10.534055,5.33707 -16.577546,12.13716 -17.024304,19.1581 -0.755929,11.88235 14.311969,21.13924 17.377441,22.87284 12.051696,6.88731 28.799083,4.33561 65.503152,-2.09626 16.89573,-2.95045 30.82144,-6.03932 43.51812,-16.36481 3.5855,-2.88835 11.84647,-9.63112 10.51446,-15.37221 -1.14368,-4.95101 -9.34831,-7.33387 -20.70651,-10.61561 a 105.78,105.78 0 0 0 -27.75586,-4.83829 71.32,71.32 0 0 0 -16.04571,1.00004 c -4.07721,0.65821 -9.16905,1.3688 -17.82005,2.05633 -8.402598,0.65756 -14.318383,0.78197 -19.102985,0.88583 -8.559672,0.18657 -12.466269,0.27025 -18.477498,3.31723 z"
       id="path40"
       style="fill:#3a3a39"
       inkscape:transform-center-x="-15.38044"
       inkscape:transform-center-y="-134.35005" />
    <path
       class="f"
       d="m 166.11627,205.9386 c 2.0412,3.3576 2.69627,7.72907 1.95087,13.02557 a 165.27,165.27 0 0 1 -46.55889,13.65479 165.9,165.9 0 0 1 -46.240483,-0.12205 16.27,16.27 0 0 1 -1.257417,-9.73402 c 0.07415,-0.35637 0.168047,-0.71593 0.275003,-1.05734 -0.623896,-0.16265 -1.221363,-0.34982 -1.81883,-0.53699 -0.12701,0.40542 -0.224403,0.80607 -0.31033,1.21499 a 18.29,18.29 0 0 0 1.592677,11.37151 1,1 0 0 0 0.727134,0.55116 167.66,167.66 0 0 0 47.331866,0.16871 c 1.20441,-0.19444 2.40882,-0.38887 3.61322,-0.58331 a 167.38,167.38 0 0 0 43.93253,-13.48403 1,1 0 0 0 0.54288,-0.71567 c 0.94148,-6.02708 0.24364,-11.03994 -2.18297,-14.90257 -0.52159,0.40835 -1.05624,0.79854 -1.59726,1.14925 z"
       id="path42"
       style="fill:#3a3a39"
       inkscape:transform-center-x="-19.834926"
       inkscape:transform-center-y="-109.25221" />
    <ellipse
       class="g"
       cx="-248.58023"
       cy="180.72527"
       rx="24.860001"
       ry="18.15"
       transform="rotate(-78.700539)"
       id="ellipse44"
       style="fill:#2c053a"
       inkscape:transform-center-x="-27.270974"
       inkscape:transform-center-y="-50.50943" />
    <path
       class="d"
       d="m 143.78252,191.70609 a 1.33,1.33 0 1 0 -1.59074,2.13076 13.77,13.77 0 0 0 6.69897,2.65631 12.06,12.06 0 0 0 0.59038,-2.61754 11,11 0 0 1 -5.69861,-2.16953 z"
       id="path46"
       style="fill:#494546"
       inkscape:transform-center-x="-44.309813"
       inkscape:transform-center-y="-135.72532" />
    <path
       class="j"
       d="m 146.74814,181.08773 -6.3885,-0.67041"
       id="path60"
       style="fill:#737172"
       inkscape:transform-center-x="-42.308741"
       inkscape:transform-center-y="-148.92952" />
    <path
       class="k"
       d="m 122.84897,301.53616 a 19.42,19.42 0 0 0 3.74328,-1.91101 16.2,16.2 0 0 0 1.61762,-1.27409 25.68,25.68 0 0 0 2.71927,-2.92071 26.5,26.5 0 0 0 2.08998,-2.99132 c 0.23401,-0.43283 0.46483,-0.8854 0.68769,-1.38733 0.22285,-0.50193 0.40241,-0.89558 0.56572,-1.32713 l -2.1115,-0.53026 a 0.3,0.3 0 0 1 -0.22011,-0.35951 0.31,0.31 0 0 1 0.36939,-0.22171 l 2.20353,0.53567 c 0.37182,-1.02233 0.69238,-1.98573 0.89066,-2.8281 a 40.81,40.81 0 0 0 1.00005,-3.97013 l -1.41212,-0.33928 a 0.30004217,0.30004217 0 1 1 0.14928,-0.58122 l 1.36116,0.33738 a 24.28,24.28 0 0 0 0.29921,-5.48783 l -4.59911,-1.13148 a 0.29,0.29 0 0 1 -0.22011,-0.35952 0.3,0.3 0 0 1 0.35951,-0.22011 l 4.40867,1.0812 c -0.0478,-0.29617 -0.0956,-0.59234 -0.0957,-0.90634 a 24.18,24.18 0 0 0 -0.77345,-3.72434 2.6,2.6 0 0 1 -1.1971,0.0515 1.61,1.61 0 0 1 -0.54939,-0.26584 1.37,1.37 0 0 1 -0.46984,-0.71425 2.58,2.58 0 0 0 -0.27013,-0.5439 2.38,2.38 0 0 0 -0.48892,-0.51871 1.47,1.47 0 0 1 -0.57941,-0.82825 1.9,1.9 0 0 1 -0.0542,-0.33565 2,2 0 0 1 -0.63182,0.102 1.33,1.33 0 0 1 -0.75193,-0.20276 1.35,1.35 0 0 0 -0.34619,-0.13657 l -0.0987,0.0159 a 1.51,1.51 0 0 0 -0.61814,-0.002 1.8,1.8 0 0 1 -0.71177,-0.0168 l -0.24619,-0.0818 a 1.33,1.33 0 0 1 -0.20988,-0.10793 1.57,1.57 0 0 1 -0.38714,0.80195 1.28,1.28 0 0 1 -0.71713,0.38926 3.3,3.3 0 0 0 -0.62416,0.21219 3.46,3.46 0 0 0 -0.62,0.36346 2.27,2.27 0 0 1 -0.63974,0.36664 2.84,2.84 0 0 1 -1.63436,0.041 l -0.0888,0.0143 a 42.12,42.12 0 0 0 -2.46365,4.37861 c -0.2044,0.42805 -0.4419,0.90196 -0.68131,1.42682 l 1.85544,0.45005 a 0.30463092,0.30463092 0 1 1 -0.14769,0.59109 l -1.96213,-0.48347 a 32.71,32.71 0 0 0 -1.94472,5.45972 l 2.30863,0.55921 a 0.3,0.3 0 0 1 0.22011,0.35952 0.3,0.3 0 0 1 -0.36938,0.2217 l -2.29876,-0.5608 a 29.25,29.25 0 0 0 -0.63416,3.7895 c -0.0525,0.61624 -0.13037,1.38853 -0.14967,2.27291 l 3.43508,0.82306 a 0.3,0.3 0 0 1 0.2217,0.36938 0.3,0.3 0 0 1 -0.35951,0.22011 l -3.29687,-0.84537 a 18.33,18.33 0 0 0 0.61182,4.79377 17,17 0 0 0 1.09086,3.05519 26.41,26.41 0 0 0 2.55411,4.65241 1.74,1.74 0 0 1 0.29152,0.86459 1.45,1.45 0 0 1 0.62062,-0.48511 z m 0.44905,-11.02245 a 5,5 0 0 1 1.45014,-5.51156 2.33,2.33 0 0 1 1.99861,-0.5455 v 0 a 2.38,2.38 0 0 1 1.51323,1.46759 5,5 0 0 1 -1.46001,5.51315 2.72,2.72 0 0 1 -1.16518,0.5629 1.9,1.9 0 0 1 -0.83342,-0.0174 v 0 a 2.37,2.37 0 0 1 -1.50337,-1.46918 z"
       id="path62"
       style="fill:#ee7400"
       inkscape:transform-center-x="-26.016812"
       inkscape:transform-center-y="-44.954722" />
    <path
       class="l"
       d="m 135.25718,269.40797 a 0.5,0.5 0 0 1 -0.21816,-0.0965 c 0,0 -0.01,-0.0592 -0.12391,-0.20284 a 3.71,3.71 0 0 0 -0.39755,-0.70566 4.44,4.44 0 0 0 -0.50197,-0.53686 l -0.0112,-0.0691 a 1.06,1.06 0 0 1 0.23149,-0.26022 v 0 a 11,11 0 0 0 1.77796,-2.41421 17.28,17.28 0 0 1 5.5366,-6.04972 0.64,0.64 0 0 0 0.0526,0.32578 0.62,0.62 0 0 0 0.42743,0.32605 2.09,2.09 0 0 0 1.09581,-0.1769 9.87,9.87 0 0 1 1.27604,-0.3782 5.87,5.87 0 0 1 1.66747,-0.0869 15.75,15.75 0 0 1 -0.86977,1.95359 c -0.61097,1.17236 -0.90456,1.36157 -1.15168,1.46224 a 1.84,1.84 0 0 1 -0.65156,0.10519 c -0.16783,0.0271 -0.7054,0.0227 -0.79513,0.53354 -0.0897,0.51083 0.12112,0.75028 1.29981,1.08673 l -0.13821,0.0223 a 12.48,12.48 0 0 1 -1.86584,0.30121 l -0.3554,0.0574 a 0.63,0.63 0 0 0 -0.62633,0.63797 0.6,0.6 0 0 0 0.4902,0.58941 2.93,2.93 0 0 0 0.39427,0.0579 8.58,8.58 0 0 1 1.3914,0.21095 l 0.079,-0.0128 c 0.28567,0.0754 0.56466,0.17221 0.70416,0.22059 -0.25792,0.28475 -0.51902,0.54975 -0.79987,0.81793 a 15.38,15.38 0 0 1 -1.47941,1.25178 5.63,5.63 0 0 1 -0.93463,0.48516 5.55,5.55 0 0 1 -1.02923,0.33836 12.12,12.12 0 0 1 -2.52156,0.25513 l -1.54392,0.0365 v 0 a 1.07,1.07 0 0 1 -0.39936,-0.0267 m -0.14768,0.59109 a 2,2 0 0 0 0.59331,0.0359 c 0.62801,-9e-5 1.16239,-0.0155 1.55538,-0.0282 a 14.06,14.06 0 0 0 2.67027,-0.4007 6,6 0 0 0 1.13463,-0.37563 6.17,6.17 0 0 0 0.98749,-0.5342 14.81,14.81 0 0 0 1.55838,-1.26453 13.55,13.55 0 0 0 1.37715,-1.50877 c -0.2067,-0.0882 -0.4462,-0.19133 -0.70385,-0.28142 0,0 -0.41848,-0.14516 -0.84047,-0.24924 l -0.0888,0.0143 a 14.24,14.24 0 0 0 -1.78408,-0.25898 v 0 c -0.0112,-0.0691 1.10666,-0.047 2.38907,-0.38568 a 9.17,9.17 0 0 0 1.91387,-0.69389 c -2.11628,-0.55988 -2.6905,-0.79132 -2.67682,-0.89483 0.0137,-0.1035 0.52101,0.0273 1.09581,-0.1769 0.5748,-0.20422 0.82315,-0.5482 1.45386,-1.72374 a 18,18 0 0 0 1.14004,-2.72654 6.27,6.27 0 0 0 -2.58594,-0.0181 c -0.97925,0.20873 -1.92185,0.64453 -2.11229,0.59424 -0.0144,-0.0889 0.23308,-0.25035 0.45403,-0.70133 a 2.14,2.14 0 0 0 0.21422,-0.74364 15.89,15.89 0 0 0 -1.51195,0.86198 c -4.78482,3.05158 -5.7371,7.00386 -7.47952,8.57159 -0.11399,0.10957 -0.48719,0.43319 -0.44637,0.81152 0.0408,0.37833 0.30896,0.34517 0.69247,0.90115 0.38351,0.55599 0.31667,0.76937 0.6409,1.02091 a 1.21,1.21 0 0 0 0.43951,0.21267 z"
       id="path64"
       style="fill:#3d7c2f"
       inkscape:transform-center-x="-38.913678"
       inkscape:transform-center-y="-65.755861" />
    <path
       class="l"
       d="m 124.91803,268.10915 v 0 a 8.84,8.84 0 0 1 -2.07497,-1.24522 l -0.18186,-0.12258 -1.70046,-1.18413 c -1.72019,-1.18094 -2.12978,-1.45922 -2.66682,-2.21326 a 9.08,9.08 0 0 1 -0.95437,-1.77053 8.23,8.23 0 0 1 -0.32499,-1.07191 4.29,4.29 0 0 1 0.72487,0.34893 1.47,1.47 0 0 0 0.42646,0.19453 0.63,0.63 0 0 0 0.62385,-0.15136 c 0.40471,-0.37935 0.13586,-0.85255 -0.0613,-1.19551 a 5.75,5.75 0 0 1 -0.50268,-1.04322 2.89,2.89 0 0 1 -0.0462,-0.2863 l 0.0885,0.0465 0.15574,0.0863 a 0.64,0.64 0 0 0 0.27549,0.13786 0.64,0.64 0 0 0 0.46399,-0.0749 c 0.49804,-0.30325 0.30338,-0.81882 0.0648,-1.41845 -0.0255,-0.15796 -0.1233,-0.3245 -0.1816,-0.49742 -0.0583,-0.17292 -0.16154,-0.56143 -0.34061,-1.23145 q -0.19851,-0.72767 -0.35753,-1.46171 a 7.15,7.15 0 0 1 1.2574,0.69854 c 0.23919,0.16397 0.44876,0.33273 0.65834,0.50148 a 3.3,3.3 0 0 0 1.13065,0.72913 1,1 0 0 0 0.68118,-0.10997 1,1 0 0 0 0.48144,-0.59432 l 0.12798,-0.2739 c 0.89589,2.60045 1.78409,4.77672 2.52508,6.4804 0.25517,0.5767 0.4543,1.18271 0.66808,1.81674 a 16.23,16.23 0 0 0 0.71363,1.91069 l 0.0991,0.23724 a 8.3,8.3 0 0 1 0.44664,1.07253 0.81,0.81 0 0 1 0.0685,0.4245 l -0.14808,0.0239 a 3.38,3.38 0 0 0 -0.94897,0.3963 3.25,3.25 0 0 0 -0.75436,0.59787 0.82,0.82 0 0 1 -0.17832,0.15034 0.34,0.34 0 0 1 -0.25667,0.0414 m -0.13941,0.57962 a 0.93,0.93 0 0 0 0.671,-0.0475 c 0.29997,-0.14972 0.36872,-0.41406 0.97057,-0.76446 0.60185,-0.35039 1.02574,-0.29727 1.24416,-0.57564 0.39547,-0.49941 -0.10434,-1.46206 -0.52389,-2.36676 -0.55112,-1.21773 -0.82551,-2.54091 -1.3849,-3.74718 a 78.09,78.09 0 0 1 -2.84401,-7.45199 3.58,3.58 0 0 0 -0.63013,0.73989 c -0.31489,0.49653 -0.27983,0.71372 -0.47599,0.81629 a 0.34,0.34 0 0 1 -0.25668,0.0414 c -0.40064,-0.0974 -0.93701,-0.65909 -1.63165,-1.13446 a 7.83,7.83 0 0 0 -2.41922,-1.11874 c 0.13068,0.80952 0.34672,1.64578 0.5806,2.5298 0.18067,0.6799 0.27753,1.02892 0.35846,1.27923 0.21887,0.60282 0.46767,1.14003 0.37532,1.19546 v 0 c 0,0 -0.11466,-0.0828 -0.29174,-0.17575 a 2,2 0 0 0 -0.4118,-0.1665 l -0.17898,-0.042 a 4.24,4.24 0 0 0 -0.5207,-0.0881 4.53,4.53 0 0 0 0.26323,1.25408 c 0.3272,0.96012 0.83905,1.49539 0.72505,1.60496 -0.11399,0.10956 0,0 -0.079,0.0127 a 9.81,9.81 0 0 0 -1.25961,-0.58676 l -0.2758,-0.077 c -0.20032,-0.0487 -0.37612,-0.071 -0.50096,-0.0913 a 8.82,8.82 0 0 0 0.51876,2.08396 9,9 0 0 0 1.0098,1.86287 c 0.76065,1.07248 1.2922,1.29056 4.52271,3.54451 a 9.46,9.46 0 0 0 2.45366,1.45758 z"
       id="path66"
       style="fill:#3d7c2f"
       inkscape:transform-center-x="-20.801966"
       inkscape:transform-center-y="-68.828134" />
    <path
       class="l"
       d="m 129.18609,265.80955 c 0,0 0,0 -0.0592,0.01 a 0.78,0.78 0 0 1 -0.29497,-0.5095 l -0.0127,-0.079 c -0.0128,-0.079 -3.15491,-8.06022 -4.37394,-12.09754 a 13.38,13.38 0 0 1 -0.54625,-2.81897 12.41,12.41 0 0 1 0.0169,-2.02863 l 0.26566,0.45346 c 0.15481,0.26876 0.27363,0.50282 0.36474,0.6907 0.24911,0.47639 0.41348,0.80438 0.80107,0.88362 v 0 a 0.86,0.86 0 0 0 0.23662,0.0226 c 0.61208,-0.0988 0.7432,-0.66697 0.8931,-1.36984 a 12.41,12.41 0 0 1 0.66847,-2.13381 c 0.0831,-0.17549 0.16459,-0.36085 0.25756,-0.53793 a 1.21,1.21 0 0 1 0.0223,0.13821 3.11,3.11 0 0 1 0.25996,0.60632 0.88,0.88 0 0 0 0.58352,0.66551 l 0.14808,-0.0239 c 0.56878,0.009 0.7031,-0.53894 0.84219,-1.05774 a 8.82,8.82 0 0 1 0.44597,-1.3787 c 0.0665,-0.15255 0.13308,-0.3051 0.21108,-0.44938 a 1.23,1.23 0 0 1 0.043,0.26655 0.77,0.77 0 0 0 0.48958,0.71106 v 0 c 0.55829,0.13272 0.83688,-0.33769 1.21831,-0.98678 0.17734,-0.28186 0.36806,-0.60641 0.59158,-0.91599 a 7.16,7.16 0 0 1 0.55085,-0.6663 c 0.051,0.31591 0.16123,0.62225 0.25809,0.97128 0.58083,1.84096 1.02131,2.18516 1.38087,2.27905 a 0.58,0.58 0 0 0 0.26624,0.0178 0.84,0.84 0 0 0 0.60535,-0.39148 l 0.0927,-0.11625 c 0.0191,0.11846 0.0382,0.23693 0.0558,0.34552 0.0175,0.1086 -5.7e-4,0.43566 -0.005,0.65923 -0.0158,0.52929 -0.0623,0.93183 -0.095,1.23088 -0.0566,0.46496 -0.11515,0.98088 0.40175,1.17093 v 0 0 c 0.45319,0.10917 0.69836,-0.25455 0.86233,-0.49374 a 4.34,4.34 0 0 1 0.50787,-0.61885 l 0.24614,-0.2322 a 0.45,0.45 0 0 1 0.0175,0.1086 2,2 0 0 1 0.022,0.51304 0.86,0.86 0 0 0 0.44567,0.941 l 0.079,-0.0128 a 0.81,0.81 0 0 0 0.78083,-0.30838 v 0 a 1.38,1.38 0 0 1 -0.1,0.25924 0.86,0.86 0 0 0 0.0508,1.00475 0.8,0.8 0 0 0 0.32295,0.18084 0.94,0.94 0 0 0 0.56271,-0.0908 l 0.13821,-0.0223 -0.17035,0.1997 a 0.85,0.85 0 0 0 -0.2677,0.91435 0.74,0.74 0 0 0 0.49114,0.40693 1.23,1.23 0 0 0 0.38789,0.0184 1.36,1.36 0 0 1 0.44203,0.0401 0.94,0.94 0 0 1 0.23632,0.0834 7.83,7.83 0 0 1 -0.60623,0.88797 l -0.0678,0.0818 c -0.20188,0.25544 -0.50309,0.64847 -0.21577,1.04778 a 0.66,0.66 0 0 0 0.37518,0.25345 1.08,1.08 0 0 0 0.68118,-0.10997 l -0.19801,0.46753 a 8.05,8.05 0 0 1 -2.27662,2.83913 34.85,34.85 0 0 0 -2.70847,2.73663 17.52,17.52 0 0 0 -2.70325,3.64745 l -0.958,1.84628 v 0 0 c -0.0933,0.2379 -0.18912,0.33441 -0.24675,0.35385 a 1.72,1.72 0 0 1 -0.22295,-0.12608 3.44,3.44 0 0 0 -0.958,-0.4126 v 0 a 3.3,3.3 0 0 0 -1.2296,-0.0243 1.18,1.18 0 0 1 -0.36527,0.059 v 0 m -0.13781,0.58949 c 0.43186,0.10249 0.85888,-0.13865 1.60124,0.005 v 0 a 8.22,8.22 0 0 1 1.20229,0.54536 0.68,0.68 0 0 0 0.28629,-0.0462 1.13,1.13 0 0 0 0.63492,-0.71027 l 0.95799,-1.84628 a 17.52,17.52 0 0 1 2.62047,-3.53278 c 2.77624,-3.1325 4.0421,-3.44828 5.08283,-5.72322 a 9.41,9.41 0 0 0 0.61119,-1.8612 4.64,4.64 0 0 1 -1.49446,0.65657 v 0 c -0.0112,-0.0691 0.0965,-0.21816 0.26203,-0.44748 a 9.83,9.83 0 0 0 0.90965,-1.39278 1.89,1.89 0 0 0 -0.86534,-0.52885 v 0 a 7.4,7.4 0 0 0 -0.82993,-0.0585 0.11,0.11 0 0 1 0.0643,-0.0408 c -0.0207,-0.12834 0.20855,-0.27677 0.45212,-0.65037 a 2.4,2.4 0 0 0 0.34606,-0.80544 l -0.0987,0.0159 a 2,2 0 0 0 -0.65413,-0.0362 c -0.37515,0.0606 -0.59774,0.18766 -0.70283,0.16411 v 0 c -0.0981,-0.10571 0.15822,-0.40033 0.26929,-0.90448 a 2.53,2.53 0 0 0 0.0228,-0.92546 1.84,1.84 0 0 0 -0.75441,0.28386 c -0.33817,0.2268 -0.46935,0.48095 -0.56616,0.44593 v 0 c -0.12963,-0.05 0.007,-0.457 -0.10014,-0.99678 a 2.16,2.16 0 0 0 -0.38356,-0.86999 3.85,3.85 0 0 0 -0.90434,0.67273 c -0.51553,0.50866 -0.69221,0.98288 -0.85654,0.96889 v 0 c -0.12962,-0.05 0.056,-0.65732 0.0899,-1.82768 -0.0367,-0.22706 0.004,-0.41592 0.002,-0.67897 -0.004,-0.5261 -0.0212,-1.00953 -0.0598,-1.49964 a 3.19,3.19 0 0 0 -0.32321,0.19399 c 0,0 -0.1831,0.12072 -0.35314,0.2596 -0.45726,0.36757 -0.47156,0.59273 -0.62952,0.61823 l -0.0592,0.01 c -0.41051,-0.0958 -0.87154,-1.57118 -0.97031,-1.86925 a 12.77,12.77 0 0 1 -0.43721,-1.95531 7.13,7.13 0 0 0 -1.43129,1.48712 c -0.59605,0.82554 -0.96884,1.71634 -1.17904,1.66924 v 0 c -0.11815,-0.0417 -0.0606,-0.37514 -0.23928,-0.79199 a 1.63,1.63 0 0 0 -0.60198,-0.59162 7.39,7.39 0 0 0 -0.65874,1.1902 c -0.49219,1.0924 -0.51051,2.10831 -0.67962,2.0647 v 0 c -0.11657,-0.0318 -0.1507,-0.4315 -0.44567,-0.941 a 3.91,3.91 0 0 0 -0.70234,-0.89956 9.67,9.67 0 0 0 -0.71381,1.35103 c -0.72744,1.76854 -0.67692,3.14812 -1.03232,3.2055 v 0 c -0.19045,-0.0503 -0.33446,-0.50313 -0.78743,-1.30114 a 13.32,13.32 0 0 0 -1.16838,-1.71572 13.08,13.08 0 0 0 -0.23227,3.64359 13.22,13.22 0 0 0 0.57684,2.94572 c 1.20596,4.01917 4.25861,11.8224 4.39177,12.1453 a 1.39,1.39 0 0 0 0.53483,0.86583 1.11,1.11 0 0 0 0.26243,0.11971 z"
       id="path68"
       style="fill:#3d7c2f"
       inkscape:transform-center-x="-31.472078"
       inkscape:transform-center-y="-75.191019" />
    <path
       class="m"
       d="m 122.84302,293.34238 0.87349,1.83423 -0.88959,3.58763 a 0.29,0.29 0 0 0 0.22011,0.35952 0.29,0.29 0 0 0 0.35951,-0.22011 l 0.88641,-3.60738 1.60775,-1.2725 a 0.29,0.29 0 0 0 0.0547,-0.41401 0.27,0.27 0 0 0 -0.16053,-0.1159 0.34,0.34 0 0 0 -0.25667,0.0414 l -1.40778,1.06801 -0.75468,-1.60017 a 0.32,0.32 0 0 0 -0.1981,-0.16048 0.35,0.35 0 0 0 -0.19745,0.0319 0.3,0.3 0 0 0 -0.13719,0.46785 z"
       id="path70"
       style="fill:#b26102"
       inkscape:transform-center-x="-23.153811"
       inkscape:transform-center-y="-33.695296" />
    <path
       class="m"
       d="m 125.54147,282.8887 a 0.29,0.29 0 0 0 0.41463,-0.0669 l 1.5112,-1.68234 0.59552,2.18299 a 0.3,0.3 0 0 0 0.36722,0.20408 0.29,0.29 0 0 0 0.21396,-0.36881 l -0.72967,-2.63742 1.29059,-5.49594 a 0.3,0.3 0 0 0 -0.22011,-0.35951 0.3,0.3 0 0 0 -0.35951,0.22011 l -1.29059,5.49593 -1.82706,2.04736 a 0.29,0.29 0 0 0 0.0338,0.46049 z"
       id="path72"
       style="fill:#b26102"
       inkscape:transform-center-x="-26.06604"
       inkscape:transform-center-y="-50.584927" />
    <path
       class="n"
       d="m 135.25718,269.40797 a 0.5,0.5 0 0 1 -0.21816,-0.0965 c 0,0 -0.01,-0.0592 -0.12391,-0.20284 a 3.71,3.71 0 0 0 -0.39755,-0.70566 4.44,4.44 0 0 0 -0.50197,-0.53686 l -0.0112,-0.0691 a 1.06,1.06 0 0 1 0.23149,-0.26022 v 0 a 11,11 0 0 0 1.77796,-2.41421 17.28,17.28 0 0 1 5.5366,-6.04972 0.64,0.64 0 0 0 0.0526,0.32578 0.62,0.62 0 0 0 0.42743,0.32605 2.09,2.09 0 0 0 1.09581,-0.1769 9.87,9.87 0 0 1 1.27604,-0.3782 5.87,5.87 0 0 1 1.66747,-0.0869 15.75,15.75 0 0 1 -0.86977,1.95359 c -0.61097,1.17236 -0.90456,1.36157 -1.15168,1.46224 a 1.84,1.84 0 0 1 -0.65156,0.10519 c -0.16783,0.0271 -0.7054,0.0227 -0.79513,0.53354 -0.0897,0.51083 0.12112,0.75028 1.29981,1.08673 l -0.13821,0.0223 a 12.48,12.48 0 0 1 -1.86584,0.30121 l -0.3554,0.0574 a 0.63,0.63 0 0 0 -0.62633,0.63797 0.6,0.6 0 0 0 0.4902,0.58941 2.93,2.93 0 0 0 0.39427,0.0579 8.58,8.58 0 0 1 1.3914,0.21095 l 0.079,-0.0128 c 0.28567,0.0754 0.56466,0.17221 0.70416,0.22059 -0.25792,0.28475 -0.51902,0.54975 -0.79987,0.81793 a 15.38,15.38 0 0 1 -1.47941,1.25178 5.63,5.63 0 0 1 -0.93463,0.48516 5.55,5.55 0 0 1 -1.02923,0.33836 12.12,12.12 0 0 1 -2.52156,0.25513 l -1.54392,0.0365 v 0 a 1.07,1.07 0 0 1 -0.39936,-0.0267"
       id="path74"
       style="fill:#30ac5a"
       inkscape:transform-center-x="-38.79194"
       inkscape:transform-center-y="-65.401934" />
    <path
       class="o"
       d="m 129.18609,265.80955 c 0,0 0,0 -0.0592,0.01 a 0.78,0.78 0 0 1 -0.29497,-0.5095 l -0.0127,-0.079 c -0.0128,-0.079 -3.15491,-8.06022 -4.37394,-12.09754 a 13.38,13.38 0 0 1 -0.54625,-2.81897 12.41,12.41 0 0 1 0.0169,-2.02863 l 0.26566,0.45346 c 0.15481,0.26876 0.27363,0.50282 0.36474,0.6907 0.24911,0.47639 0.41348,0.80438 0.80107,0.88362 v 0 a 0.86,0.86 0 0 0 0.23662,0.0226 c 0.61208,-0.0988 0.7432,-0.66697 0.8931,-1.36984 a 12.41,12.41 0 0 1 0.66847,-2.13381 c 0.0831,-0.17549 0.16459,-0.36085 0.25756,-0.53793 a 1.21,1.21 0 0 1 0.0223,0.13821 3.11,3.11 0 0 1 0.25996,0.60632 0.88,0.88 0 0 0 0.58352,0.66551 l 0.14808,-0.0239 c 0.56878,0.009 0.7031,-0.53894 0.84219,-1.05774 a 8.82,8.82 0 0 1 0.44597,-1.3787 c 0.0665,-0.15255 0.13308,-0.3051 0.21108,-0.44938 a 1.23,1.23 0 0 1 0.043,0.26655 0.77,0.77 0 0 0 0.48958,0.71106 v 0 c 0.55829,0.13272 0.83688,-0.33769 1.21831,-0.98678 0.17734,-0.28186 0.36806,-0.60641 0.59158,-0.91599 a 7.16,7.16 0 0 1 0.55085,-0.6663 c 0.051,0.31591 0.16123,0.62225 0.25809,0.97128 0.58083,1.84096 1.02131,2.18516 1.38087,2.27905 a 0.58,0.58 0 0 0 0.26624,0.0178 0.84,0.84 0 0 0 0.60535,-0.39148 l 0.0927,-0.11625 c 0.0191,0.11846 0.0382,0.23693 0.0558,0.34552 0.0175,0.1086 -5.7e-4,0.43566 -0.005,0.65923 -0.0158,0.52929 -0.0623,0.93183 -0.095,1.23088 -0.0566,0.46496 -0.11515,0.98088 0.40175,1.17093 v 0 0 c 0.45319,0.10917 0.69836,-0.25455 0.86233,-0.49374 a 4.34,4.34 0 0 1 0.50787,-0.61885 l 0.24614,-0.2322 a 0.45,0.45 0 0 1 0.0175,0.1086 2,2 0 0 1 0.022,0.51304 0.86,0.86 0 0 0 0.44567,0.941 l 0.079,-0.0128 a 0.81,0.81 0 0 0 0.78083,-0.30838 v 0 a 1.38,1.38 0 0 1 -0.1,0.25924 0.86,0.86 0 0 0 0.0508,1.00475 0.8,0.8 0 0 0 0.32295,0.18084 0.94,0.94 0 0 0 0.56271,-0.0908 l 0.13821,-0.0223 -0.17035,0.1997 a 0.85,0.85 0 0 0 -0.2677,0.91435 0.74,0.74 0 0 0 0.49114,0.40693 1.23,1.23 0 0 0 0.38789,0.0184 1.36,1.36 0 0 1 0.44203,0.0401 0.94,0.94 0 0 1 0.23632,0.0834 7.83,7.83 0 0 1 -0.60623,0.88797 l -0.0678,0.0818 c -0.20188,0.25544 -0.50309,0.64847 -0.21577,1.04778 a 0.66,0.66 0 0 0 0.37518,0.25345 1.08,1.08 0 0 0 0.68118,-0.10997 l -0.19801,0.46753 a 8.05,8.05 0 0 1 -2.27662,2.83913 34.85,34.85 0 0 0 -2.70847,2.73663 17.52,17.52 0 0 0 -2.70325,3.64745 l -0.958,1.84628 v 0 0 c -0.0933,0.2379 -0.18912,0.33441 -0.24675,0.35385 a 1.72,1.72 0 0 1 -0.22295,-0.12608 3.44,3.44 0 0 0 -0.958,-0.4126 v 0 a 3.3,3.3 0 0 0 -1.2296,-0.0243 1.18,1.18 0 0 1 -0.36527,0.059 v 0"
       id="path76"
       style="fill:#069951"
       inkscape:transform-center-x="-31.183749"
       inkscape:transform-center-y="-74.923411" />
    <path
       class="m"
       d="m 128.96904,289.06133 a 5.17,5.17 0 0 0 -0.1527,-3.26742 2.89,2.89 0 0 0 -1.90276,-1.80989 v 0 a 2.94,2.94 0 0 0 -2.51037,0.63825 5.46,5.46 0 0 0 -1.637,6.0482 2.93,2.93 0 0 0 1.91264,1.80829 v 0 a 2.61,2.61 0 0 0 1.0882,0.0269 3.35,3.35 0 0 0 1.42057,-0.67503 5.16,5.16 0 0 0 1.78142,-2.76931 z m -2.13943,2.37128 a 2.72,2.72 0 0 1 -1.16518,0.56289 1.9,1.9 0 0 1 -0.83343,-0.0174 v 0 a 2.37,2.37 0 0 1 -1.50336,-1.46918 5,5 0 0 1 1.45014,-5.51156 2.33,2.33 0 0 1 1.9986,-0.5455 v 0 a 2.38,2.38 0 0 1 1.51324,1.46759 5,5 0 0 1 -1.46001,5.51315 z"
       id="path78"
       style="fill:#b26102"
       inkscape:transform-center-x="-24.557194"
       inkscape:transform-center-y="-41.446301" />
    <path
       class="n"
       d="m 124.91803,268.10915 v 0 a 8.84,8.84 0 0 1 -2.07497,-1.24522 l -0.18186,-0.12258 -1.70046,-1.18413 c -1.72019,-1.18094 -2.12978,-1.45922 -2.66682,-2.21326 a 9.08,9.08 0 0 1 -0.95437,-1.77053 8.23,8.23 0 0 1 -0.32499,-1.07191 4.29,4.29 0 0 1 0.72487,0.34893 1.47,1.47 0 0 0 0.42646,0.19453 0.63,0.63 0 0 0 0.62385,-0.15136 c 0.40471,-0.37935 0.13586,-0.85255 -0.0613,-1.19551 a 5.75,5.75 0 0 1 -0.50268,-1.04322 2.89,2.89 0 0 1 -0.0462,-0.2863 l 0.0885,0.0465 0.15574,0.0863 a 0.64,0.64 0 0 0 0.27549,0.13786 0.64,0.64 0 0 0 0.46399,-0.0749 c 0.49804,-0.30325 0.30338,-0.81882 0.0648,-1.41845 -0.0255,-0.15796 -0.1233,-0.3245 -0.1816,-0.49742 -0.0583,-0.17292 -0.16154,-0.56143 -0.34061,-1.23145 q -0.19851,-0.72767 -0.35753,-1.46171 a 7.15,7.15 0 0 1 1.2574,0.69854 c 0.23919,0.16397 0.44876,0.33273 0.65834,0.50148 a 3.3,3.3 0 0 0 1.13065,0.72913 1,1 0 0 0 0.68118,-0.10997 1,1 0 0 0 0.48144,-0.59432 l 0.12798,-0.2739 c 0.89589,2.60045 1.78409,4.77672 2.52508,6.4804 0.25517,0.5767 0.4543,1.18271 0.66808,1.81674 a 16.23,16.23 0 0 0 0.71363,1.91069 l 0.0991,0.23724 a 8.3,8.3 0 0 1 0.44664,1.07253 0.81,0.81 0 0 1 0.0685,0.4245 l -0.14808,0.0239 a 3.38,3.38 0 0 0 -0.94897,0.3963 3.25,3.25 0 0 0 -0.75436,0.59787 0.82,0.82 0 0 1 -0.17832,0.15034 0.34,0.34 0 0 1 -0.25667,0.0414"
       id="path80"
       style="fill:#30ac5a"
       inkscape:transform-center-x="-20.8677"
       inkscape:transform-center-y="-68.649816" />
    <path
       class="m"
       d="m 126.94032,286.15754 a 0.39,0.39 0 0 1 0.086,-0.0949 0.28,0.28 0 0 1 0.36784,0.0824 3.47,3.47 0 0 1 -0.66749,4.52421 0.27,0.27 0 0 1 -0.36975,-0.0315 0.27,0.27 0 0 1 0.0315,-0.36974 3,3 0 0 0 1.00895,-1.84438 3,3 0 0 0 -0.43721,-1.95531 0.24,0.24 0 0 1 -0.0198,-0.31082 z"
       id="path82"
       style="fill:#b26102"
       inkscape:transform-center-x="-25.878062"
       inkscape:transform-center-y="-41.305072" />
    <path
       class="m"
       d="m 123.05159,302.10109 a 19.52,19.52 0 0 0 3.82576,-1.96484 17.22,17.22 0 0 0 1.8055,-1.3652 24.39,24.39 0 0 0 2.68585,-2.81402 24.77,24.77 0 0 0 2.22433,-3.22573 38.39,38.39 0 0 0 2.37932,-6.21869 27.84,27.84 0 0 0 1.26357,-11.81236 24.37,24.37 0 0 0 -0.97545,-4.41092 2.61,2.61 0 0 1 -1.44134,0.23269 0.93,0.93 0 0 1 -0.3395,-0.15791 c -0.3029,-0.24486 -0.19306,-0.50569 -0.60588,-1.11773 -0.41282,-0.61203 -0.85964,-0.68171 -0.97722,-1.15907 -0.11758,-0.47736 0.34442,-1.12932 0.18071,-1.26497 v 0 c -0.19045,-0.0503 -0.66392,0.5934 -1.40371,0.59128 l -0.20732,0.0335 a 5.71,5.71 0 0 0 -0.74811,-0.30466 l -0.11847,0.0191 c -0.68981,-0.13174 -0.9178,0.0874 -1.2987,-0.0132 l -0.15924,-0.0452 c -0.55448,-0.23463 -0.7243,-0.7846 -0.88195,-0.81993 v 0 c -0.25667,0.0414 0.17691,1.09582 -0.34052,1.65543 -0.24136,0.26182 -0.41494,0.12777 -1.14163,0.4578 -0.72669,0.33003 -0.7722,0.5501 -1.22185,0.71386 a 2.27,2.27 0 0 1 -1.29232,0.0263 4.83,4.83 0 0 1 -0.48091,-0.15534 43.92,43.92 0 0 0 -2.84703,4.76464 33.74,33.74 0 0 0 -3.72878,11.97736 20.7,20.7 0 0 0 0.4629,7.88704 17.58,17.58 0 0 0 1.11826,3.1622 26.05,26.05 0 0 0 2.61464,4.71354 c 0.31821,0.46523 0.22126,1.74707 -0.0536,3.74643 0.53739,-1.25165 0.9881,-2.91473 1.7027,-3.13139 z m -1.16731,-0.95619 a 26.41,26.41 0 0 1 -2.55411,-4.6524 17,17 0 0 1 -1.09086,-3.0552 18.33,18.33 0 0 1 -0.55927,-4.78199 l 3.32329,0.82085 a 0.3,0.3 0 0 0 0.35952,-0.22011 0.3,0.3 0 0 0 -0.2217,-0.36939 l -3.44814,-0.84121 c 0.0193,-0.88438 0.0972,-1.65667 0.14967,-2.2729 a 29.25,29.25 0 0 1 0.63416,-3.78951 l 2.29876,0.56081 a 0.3,0.3 0 0 0 0.36938,-0.22171 0.3,0.3 0 0 0 -0.22011,-0.35951 l -2.30863,-0.55921 a 32.71,32.71 0 0 1 1.94472,-5.45973 l 1.96213,0.48347 a 0.30463092,0.30463092 0 1 0 0.14769,-0.59109 l -1.85544,-0.45004 c 0.23941,-0.52487 0.47691,-0.99878 0.68131,-1.42682 a 42.12,42.12 0 0 1 2.46365,-4.37861 l 0.0888,-0.0143 a 2.84,2.84 0 0 0 1.63436,-0.041 2.27,2.27 0 0 0 0.63974,-0.36665 3.46,3.46 0 0 1 0.62,-0.36345 3.3,3.3 0 0 1 0.62416,-0.21219 1.28,1.28 0 0 0 0.71713,-0.38927 1.57,1.57 0 0 0 0.38714,-0.80195 1.33,1.33 0 0 0 0.20988,0.10793 l 0.24619,0.0818 a 1.8,1.8 0 0 0 0.71177,0.0168 1.51,1.51 0 0 1 0.61814,10e-4 l 0.0987,-0.0159 a 1.35,1.35 0 0 1 0.34619,0.13657 1.33,1.33 0 0 0 0.75193,0.20275 2,2 0 0 0 0.63181,-0.102 1.9,1.9 0 0 0 0.0542,0.33566 1.47,1.47 0 0 0 0.57941,0.82824 2.38,2.38 0 0 1 0.48892,0.51871 2.58,2.58 0 0 1 0.27013,0.5439 1.37,1.37 0 0 0 0.46984,0.71425 1.61,1.61 0 0 0 0.54939,0.26584 2.6,2.6 0 0 0 1.1971,-0.0514 24.18,24.18 0 0 1 0.77345,3.72433 c 0.0494,0.30604 0.0972,0.6022 0.0957,0.90634 l -4.40867,-1.0812 a 0.3,0.3 0 0 0 -0.35951,0.22011 0.29,0.29 0 0 0 0.22011,0.35952 l 4.59911,1.13149 a 24.28,24.28 0 0 1 -0.29921,5.48782 l -2.88954,-0.76931 a 0.3,0.3 0 0 0 -0.36939,0.2217 0.3,0.3 0 0 0 0.22011,0.35952 l 2.9405,0.77122 a 40.81,40.81 0 0 1 -1.00005,3.97012 c -0.23777,0.84875 -0.51884,1.80577 -0.89066,2.8281 l -3.59812,-0.76635 a 0.3,0.3 0 0 0 -0.35952,0.22011 0.32,0.32 0 0 0 0.2217,0.36939 l 3.4975,0.83324 a 22.76,22.76 0 0 1 -1.00443,2.24882 24.67,24.67 0 0 1 -2.39849,3.52735 25.55,25.55 0 0 1 -3.10872,3.20643 14,14 0 0 1 -1.23424,0.88805 19.42,19.42 0 0 1 -3.74328,1.91101 1.45,1.45 0 0 0 -0.65342,0.47015 1.74,1.74 0 0 0 -0.24216,-0.87256 z"
       id="path84"
       style="fill:#b26102"
       inkscape:transform-center-x="-25.965992"
       inkscape:transform-center-y="-43.924192" />
    <path
       class="i"
       d="m 102.24699,184.52396 a 1.81,1.81 0 0 1 1.67044,0.62173 c 1.25018,1.46953 -1.03091,4.21821 -2.56711,9.19667 -1.70013,5.53166 -1.15148,9.49488 -1.94414,9.54181 -0.60189,0.0364 -1.28755,-2.20296 -1.55689,-3.87136 -0.45262,-2.8037 0.33038,-3.53787 2.33017,-11.4173 0.53314,-2.03092 0.94179,-3.82904 2.06753,-4.07155 z"
       id="path104"
       style="fill:#5e5a5c"
       inkscape:transform-center-x="0.24372742"
       inkscape:transform-center-y="-135.48911" />
  </g>
  <g
     inkscape:groupmode="layer"
     id="layer1"
     inkscape:label="Layer 1"
     style="display:none"
     sodipodi:insensitive="true">
    <path
       class="i"
       d="m 170.66855,134.35899 c 2.92,-3 8.14,-9.24 9.15,-18.13 1.48,-13 -7,-22.779999 -13.48,-30.279999 -4.9,-5.66 -13.86,-16 -19.36,-13.77 -8.84,3.61 -2.92,37.409999 -2.31,40.839999 a 123.79,123.79 0 0 0 4.5,17.43"
       id="path48"
       style="fill:#5e5a5c" />
    <path
       class="j"
       d="m 185.77855,192.97899 c -1.9,-3.36 -7.84,-4.86 -13.22,-1.69 a 36.55,36.55 0 0 0 -4.18,-2.8 33.11,33.11 0 0 0 15.45,-24.29 c 1.06,-10 -2.51,-22.66 -13.16,-29.46 -9.1,-5.8 -18.79,-4.39 -21.5,-3.9 a 133.17,133.17 0 0 0 -9.48,-30.24 c -6.07,-13.429999 -12.68,-28.079999 -20.52,-27.819999 -8.79,0.29 -17.84,19.33 -16.21,36.099999 1.84,18.91 16.79,30.07 19.86,32.27 a 40.62,40.62 0 0 0 -4,11.17 c -0.59,3 -3,15 3.22,25.57 a 30.53,30.53 0 0 0 7.83,8.71 v 0 a 36.27,36.27 0 0 0 -7,13.06 33.74,33.74 0 0 0 -1.16,5.66 82.73,82.73 0 0 0 12.59,2.52 c 11.14,1.37 13.16,-0.63 21.93,1.09 8,1.57 10.43,4.08 13.7,2.23 a 9.69,9.69 0 0 0 4.33,-6.17 9.85,9.85 0 0 0 7.76,-1.21 c 3.45,-2.31 5.67,-7.44 3.76,-10.8 z"
       id="path50"
       style="fill:#737172" />
    <path
       class="i"
       d="m 124.80855,91.658991 c -2.71,-0.64 -12.68,12.449999 -9.51,25.579999 2.87,11.82 15.16,18.56 16.57,17.36 0.78,-0.65 -2.17,-3.33 -3.57,-9.83 -1.13,-5.21 0.23,-6 -0.21,-17.85 a 53.45,53.45 0 0 0 -1.24,-9.449999 c -0.84,-3.75 -1.25,-5.63 -2.04,-5.81 z"
       id="path52"
       style="fill:#5e5a5c" />
    <path
       class="d"
       d="m 131.37855,136.06899 a 5,5 0 0 1 -1.57,-0.29 24.5,24.5 0 0 1 -8.52,-5.78 26.81,26.81 0 0 1 -7.28,-12.4 c -2.56,-10.62 3,-21.089999 7,-25.199999 1.57,-1.59 2.94,-2.25 4.08,-2 v 0 c 1.6,0.38 2,2.14 3,6.83 a 56.26,56.26 0 0 1 1.27,9.689999 102.11,102.11 0 0 1 -0.13,11.21 19.32,19.32 0 0 0 0.31,6.41 26.58,26.58 0 0 0 2.82,7.42 c 0.75,1.41 1.46,2.74 0.31,3.71 a 2,2 0 0 1 -1.29,0.4 z m -7,-42.999999 a 11.91,11.91 0 0 0 -3.46,3.67 c -3.28,4.779999 -6.13,12.599999 -4.29,20.179999 2.16,9.08 9.98,14.68 13.38,16.1 a 29.25,29.25 0 0 1 -3,-8 22.25,22.25 0 0 1 -0.37,-7.14 94.82,94.82 0 0 0 0.13,-10.94 52.56,52.56 0 0 0 -1.21,-9.209999 35.63,35.63 0 0 0 -1.21,-4.66 z m 0.28,-0.11"
       id="path54"
       style="fill:#494546" />
    <path
       class="d"
       d="m 135.88855,140.25899 a 1.31,1.31 0 0 1 -1,-0.49 37.68,37.68 0 0 1 -6.52,-11.88 c -1.85,-5.67 -1.73,-10.09 -1.62,-14.78 0,-1.59 0.09,-3.22 0.05,-4.93 a 62.72,62.72 0 0 0 -5.5,-23.579999 1.33,1.33 0 0 1 2.44,-1 65.29,65.29 0 0 1 5.68,24.549999 c 0,1.77 0,3.44 0,5.06 -0.11,4.45 -0.22,8.65 1.49,13.88 a 34.73,34.73 0 0 0 6.06,11 1.32,1.32 0 0 1 -1,2.16 z"
       id="path56"
       style="fill:#494546" />
    <path
       class="i"
       d="m 159.53855,202.37899 a 7.61,7.61 0 0 1 12.65,-3.78 7.8,7.8 0 0 1 1.4,8.48 c -0.13,0.32 -1.9,4.36 -5.86,4.75 a 7.49,7.49 0 0 1 -5.82,-2.38 c -0.49,-0.53 -3.15,-3.3 -2.37,-7.07 z"
       id="path86"
       style="fill:#5e5a5c" />
    <path
       class="i"
       d="m 172.52855,191.13899 c 1.39,-1.54 3.3,-1.65 5.91,-1.79 2.28,-0.13 4,-0.22 5.57,0.92 2.57,1.92 2.36,5.7 2.33,6.35 a 9.28,9.28 0 0 1 -5.09,7.7 c -2.18,1.05 -5.5,1.45 -6.54,0.05 -0.82,-1.09 0.4,-2.44 -0.59,-4.31 -0.7,-1.35 -1.6,-1.15 -2.37,-2.38 a 5.84,5.84 0 0 1 0.78,-6.54 z"
       id="path88"
       style="fill:#5e5a5c" />
    <g
       id="g972"
       transform="translate(37.008547,57.598991)">
      <path
         class="d"
         d="m 141,102.89 a 0.94,0.94 0 0 0 -1.34,-0.13 l -2.33,1.92 -1.8,-2.13 a 1,1 0 0 0 -1.34,-0.11 0.94,0.94 0 0 0 -0.11,1.33 l 2.19,2.59 0.1,3.82 a 0.94,0.94 0 0 0 0.94,0.93 v 0 a 1,1 0 0 0 0.92,-1 l -0.09,-3.69 2.7,-2.22 a 1,1 0 0 0 0.16,-1.31 z"
         id="path58" />
      <path
         class="d"
         d="m 142.82,103.82 a 0.7,0.7 0 0 1 -0.49,-0.2 0.67,0.67 0 0 1 0,-0.94 10.19,10.19 0 0 1 8.4,-2.69 0.66,0.66 0 0 1 0.57,0.74 0.66,0.66 0 0 1 -0.75,0.57 9,9 0 0 0 -4.13,0.42 9.1,9.1 0 0 0 -3.18,1.92 0.62,0.62 0 0 1 -0.42,0.18 z"
         id="path90" />
      <path
         class="d"
         d="m 142.82,106.37 a 0.66,0.66 0 0 1 -0.3,-1.26 15.11,15.11 0 0 1 7.21,-1.67 14.68,14.68 0 0 1 2.94,0.36 0.68,0.68 0 0 1 0.5,0.8 0.67,0.67 0 0 1 -0.8,0.5 13.45,13.45 0 0 0 -2.67,-0.33 13.76,13.76 0 0 0 -6.58,1.53 0.66,0.66 0 0 1 -0.3,0.07 z"
         id="path92" />
      <path
         class="d"
         d="m 150.32,109.31 a 0.66,0.66 0 0 1 -0.27,-0.06 9.87,9.87 0 0 0 -2.59,-0.76 10.25,10.25 0 0 0 -4.65,0.43 0.66407831,0.66407831 0 1 1 -0.42,-1.26 11.28,11.28 0 0 1 8.2,0.37 0.67,0.67 0 0 1 -0.27,1.28 z"
         id="path94" />
      <path
         class="d"
         d="m 132,104.13 a 0.66,0.66 0 0 1 -0.45,-0.18 9.12,9.12 0 0 0 -3.18,-1.93 9,9 0 0 0 -4.13,-0.41 0.68,0.68 0 0 1 -0.75,-0.57 0.67,0.67 0 0 1 0.57,-0.75 10.27,10.27 0 0 1 8.4,2.69 0.67,0.67 0 0 1 0,0.94 0.67,0.67 0 0 1 -0.46,0.21 z"
         id="path96" />
      <path
         class="d"
         d="m 132,106.67 a 0.66,0.66 0 0 1 -0.3,-0.07 13.85,13.85 0 0 0 -6.58,-1.53 13.45,13.45 0 0 0 -2.67,0.33 0.6622122,0.6622122 0 1 1 -0.3,-1.29 14.69,14.69 0 0 1 2.94,-0.37 15.15,15.15 0 0 1 7.21,1.68 0.66,0.66 0 0 1 0.3,0.89 0.68,0.68 0 0 1 -0.6,0.36 z"
         id="path98" />
      <path
         class="d"
         d="m 124.47,109.61 a 0.66,0.66 0 0 1 -0.61,-0.4 0.66,0.66 0 0 1 0.34,-0.87 11.27,11.27 0 0 1 2.94,-0.86 11.49,11.49 0 0 1 5.26,0.48 0.66,0.66 0 0 1 0.42,0.84 0.66,0.66 0 0 1 -0.84,0.42 10.11,10.11 0 0 0 -4.65,-0.42 9.85,9.85 0 0 0 -2.59,0.75 0.66,0.66 0 0 1 -0.27,0.06 z"
         id="path100" />
    </g>
    <path
       class="i"
       d="m 115.42855,78.168991 c 0.74,-0.76 1.45,-1.56 2.21,-2.3 2,-1.94 2.92,-2.58 2.77,-2.91 -0.23,-0.5 -2.79,0.05 -4.22,0.58 -6.33,2.33 -9,10.8 -10.76,16.57 a 44.78,44.78 0 0 0 -2.18,20.209999 44.46,44.46 0 0 0 4.65,14.39 c 0.54,1 0.18,0.23 8.29,11 2.12,2.89 4.9,2.17 5.82,4.27 1.29,3 -1.16,6.07 -2.69,9.35 -5.44,11.73 1.07,25.27 1.69,26.55 4.65,9.37 13.63,14.09 14.35,13.38 0.87,-0.87 -11.17,-9 -12.92,-23 a 41,41 0 0 1 1.42,-17.58 c 1.63,-4.47 3.42,-6.09 2.78,-9 -0.94,-4.28 -5.57,-4.81 -10.58,-9.84 -4.3,-4.31 -5.91,-9 -7.27,-12.65 -4.28,-11.35 -1.61,-21.999999 -0.73,-24.999999 a 37.31,37.31 0 0 1 7.37,-14.02 z"
       id="path102"
       style="fill:#5e5a5c" />
    <path
       class="d"
       d="m 186.93855,191.93899 a 8.42,8.42 0 0 0 -5.42,-3.78 12.67,12.67 0 0 0 -7.77,0.68 l -2.89,-0.79 a 35.63,35.63 0 0 0 5.89,-5.31 33.59,33.59 0 0 0 8.4,-18.78 c 1,-9.12 -1.77,-22.16 -12.44,-29.82 a 32.26,32.26 0 0 0 8.43,-17.76 c 1.54,-13.56 -7.32,-23.809999 -13.8,-31.299999 -5.41,-6.26 -14.48,-16.74 -20.86,-14.13 -4.35,1.77 -6.15,8.9 -5.53,21.78 0.15,3 0.41,5.94 0.71,8.679999 -0.25,-0.58 -0.5,-1.16 -0.76,-1.729999 -6.42,-14.21 -13,-28.9 -21.77,-28.61 -2.76,0.09 -5.59,1.71 -8.21,4.7 -6.51,7.41 -10.41,21.23 -9.28,32.829999 a 43.27,43.27 0 0 0 9.75,23.11 54.73,54.73 0 0 0 9.73,9.44 41.77,41.77 0 0 0 -3.63,10.5 c -2.57,12.83 0.42,21.5 3.38,26.51 a 31.89,31.89 0 0 0 7.14,8.26 37.2,37.2 0 0 0 -6.44,12.48 36.49,36.49 0 0 0 -1.2,5.88 1.32,1.32 0 0 0 1,1.44 86.19,86.19 0 0 0 12.79,2.56 65.45,65.45 0 0 0 11.75,0.43 37.89,37.89 0 0 1 10.09,0.64 55.94,55.94 0 0 1 6.78,1.83 16.06,16.06 0 0 0 4.79,1.08 6,6 0 0 0 3,-0.83 10.94,10.94 0 0 0 4.62,-5.8 12.38,12.38 0 0 0 1.59,0.11 10.71,10.71 0 0 0 5.95,-1.73 c 3.88,-2.58 6.58,-8.38 4.21,-12.57 z m -39.46,-118.529999 c 1.86,-0.76 4.81,0.52 8.54,3.7 a 91.37,91.37 0 0 1 9.31,9.71 c 6.5,7.51 14.58,16.859999 13.17,29.249999 a 29.73,29.73 0 0 1 -8.05,16.6 32,32 0 0 0 -20.22,-3.73 135.57,135.57 0 0 0 -4.22,-16.24 170.07,170.07 0 0 1 -2.4,-20.099999 c -0.73,-15 2.11,-18.47 3.87,-19.19 z m 33.76,128.879999 a 8.22,8.22 0 0 1 -5.51,1.22 7.4,7.4 0 0 0 -0.88,-4.2 8.43,8.43 0 0 0 -5.42,-3.78 13.13,13.13 0 0 0 -10.18,1.95 1.33,1.33 0 0 0 1.44,2.23 10.49,10.49 0 0 1 8.11,-1.59 5.75,5.75 0 0 1 3.74,2.5 c 1.57,2.78 -0.53,7.43 -3.3,9 -1.47,0.83 -2.62,0.53 -5.7,-0.47 a 57.92,57.92 0 0 0 -7.09,-1.91 40.62,40.62 0 0 0 -10.7,-0.69 62.12,62.12 0 0 1 -11.32,-0.41 84.26,84.26 0 0 1 -11.29,-2.17 34,34 0 0 1 7,-15.94 35.86,35.86 0 0 0 4.3,2.6 1.33,1.33 0 0 0 1.21,-2.36 30.86,30.86 0 0 1 -12.46,-11.44 c -2.72,-4.61 -5.46,-12.63 -3,-24.64 a 38.91,38.91 0 0 1 3.82,-10.79 1.34,1.34 0 0 0 -0.4,-1.71 c -5.26,-3.76 -17.67,-14.34 -19.32,-31.33 -1.2,-12.279999 3.55,-25.059999 8.62,-30.839999 2.13,-2.42 4.3,-3.73 6.31,-3.8 3,-0.1 6.18,2.57 9.75,8.17 3.34,5.23 6.47,12.17 9.5,18.879999 a 129.21,129.21 0 0 1 4.92,12.59 124.1,124.1 0 0 0 4.52,17.52 v 0 0.07 a 0.17,0.17 0 0 1 0,0.05 0.43,0.43 0 0 0 0,0.07 v 0 a 0.21,0.21 0 0 0 0,0.06 v 0 0 0.05 0 0 0 0 h 0.05 v 0 h 0.06 v 0 h 0.07 v 0 h 0.07 v 0 h 0.07 0.49 c 3.45,-0.62 12.37,-1.51 20.56,3.72 a 26.22,26.22 0 0 1 9.29,10.3 5.72,5.72 0 0 0 -2,4.51 c 0,3 1.85,5.33 4.21,5.33 a 3.1,3.1 0 0 0 0.81,-0.11 32.83,32.83 0 0 1 0.2,8.17 c -1.35,12.77 -11.22,24 -24,27.26 a 32.82,32.82 0 0 1 -3.81,0.73 1.33,1.33 0 0 0 0.17,2.65 h 0.17 a 32,32 0 0 0 4.13,-0.79 34.63,34.63 0 0 0 8.66,-3.52 l 2.95,0.8 a 1.31,1.31 0 0 0 0.14,1.15 1.33,1.33 0 0 0 1.84,0.39 10.47,10.47 0 0 1 8.1,-1.59 5.73,5.73 0 0 1 3.74,2.51 c 2.32,3.35 0.22,7.71 -2.64,9.6 z"
       id="path108"
       style="fill:#494546" />
    <path
       class="d"
       d="m 159.22855,155.80899 c 2.37,0 4.22,-2.34 4.22,-5.33 0,-2.99 -1.85,-5.32 -4.22,-5.32 -2.37,0 -4.22,2.34 -4.22,5.32 0,2.98 1.86,5.33 4.22,5.33 z"
       id="path110"
       style="fill:#494546" />
    <g
       id="g963"
       transform="translate(37.008547,57.598991)">
      <path
         class="i"
         d="m 113.48,104.11 c -1.59,0.11 -1.77,2 -4.88,3.36 -1.82,0.83 -3.48,1 -3.45,1.2 a 12,12 0 0 0 3.15,-0.15 c 1.6,-0.19 2.1,-0.35 2.22,-0.14 0.29,0.49 -2,1.58 -3.1,4.08 -0.92,2.14 -0.54,4.49 -0.18,4.56 0.18,0 0.31,-0.49 1.08,-1.75 0.51,-0.86 1.4,-2.17 1.6,-2.08 0.2,0.09 -0.84,1.69 -0.51,3.42 a 4.64,4.64 0 0 0 1.8,2.66 c 0.37,-1.5 0.57,-1.77 0.68,-1.76 0.26,0 0.07,1.64 0.6,3.35 a 8.31,8.31 0 0 0 2.1,3.37 c -0.63,-2.34 -0.62,-2.92 -0.47,-3 0.39,-0.15 1.35,3.63 4.17,4.67 1.57,0.58 3.78,0.45 4.59,-0.7 0.81,-1.15 -0.41,-2.69 -1.74,-6.81 -1.63,-5.06 -0.73,-5.91 -2.39,-9.11 -0.57,-1.08 -2.75,-5.34 -5.27,-5.17 z"
         id="path106" />
      <path
         class="d"
         d="m 119.65,126.81 a 4.6,4.6 0 0 1 -1.58,-0.27 6.09,6.09 0 0 1 -2.81,-2.29 0.68,0.68 0 0 1 -0.33,0.55 0.66,0.66 0 0 1 -0.8,-0.1 8.75,8.75 0 0 1 -2.27,-3.65 8.5,8.5 0 0 1 -0.28,-1.22 l -0.15,0.07 a 0.65,0.65 0 0 1 -0.63,-0.1 5.23,5.23 0 0 1 -2,-3.07 5.29,5.29 0 0 1 -0.08,-0.78 c -0.2,0.35 -0.34,0.62 -0.46,0.84 -0.26,0.51 -0.52,1 -1.1,0.88 a 0.88,0.88 0 0 1 -0.61,-0.48 7,7 0 0 1 0.3,-5 9.31,9.31 0 0 1 2.31,-3.11 l -0.74,0.09 c -0.26,0 -1.18,0.14 -2,0.19 -1,0.07 -1.73,0.12 -1.87,-0.57 0,-0.28 0,-0.66 0.67,-0.89 0.18,-0.07 0.42,-0.13 0.71,-0.22 a 21.62,21.62 0 0 0 2.46,-0.83 14.41,14.41 0 0 0 4.67,-3.21 0.66,0.66 0 0 1 0.94,0 0.67,0.67 0 0 1 0,0.94 16,16 0 0 1 -4.18,3.08 c 0.64,-0.08 1.06,-0.06 1.32,0.39 0.38,0.66 -0.21,1.21 -0.84,1.79 a 8.44,8.44 0 0 0 -2.23,2.88 6.7,6.7 0 0 0 -0.52,2.6 l 0.24,-0.4 c 0.31,-0.51 0.67,-1 1,-1.44 0.33,-0.44 0.88,-1.19 1.51,-0.88 0.63,0.31 0.37,1 0.22,1.39 a 4.81,4.81 0 0 0 -0.37,2.49 3.45,3.45 0 0 0 0.8,1.55 c 0.25,-0.79 0.55,-1.23 1.1,-1.18 0.55,0.05 0.72,0.72 0.78,1.47 a 10.61,10.61 0 0 0 0.39,2.34 5.4,5.4 0 0 0 0.25,0.67 0.71,0.71 0 0 1 0.49,-0.69 c 0.68,-0.27 1,0.36 1.45,1.15 0.59,1.1 1.58,2.93 3.19,3.5 a 5.15,5.15 0 0 0 4.06,-0.66 0.66206118,0.66206118 0 1 1 0.62,1.17 7.73,7.73 0 0 1 -3.63,1.01 z"
         id="path112" />
    </g>
  </g>
  <g
     inkscape:groupmode="layer"
     id="layer3"
     inkscape:label="Layer 2"
     style="display:inline">
    <ellipse
       style="fill:#171717;fill-opacity:0.309804;fill-rule:evenodd;stroke:none;stroke-width:6.46092;stroke-linecap:round;stroke-linejoin:round;paint-order:markers fill stroke;stop-color:#000000"
       id="path3515"
       cx="78.650711"
       cy="317.7164"
       rx="90.653244"
       ry="30.781704" />
    <g
       id="g3789"
       inkscape:transform-center-x="67.250491"
       inkscape:transform-center-y="-99.88657"
       transform="rotate(-33.548909,114.73573,344.7996)">
      <path
         id="path1340"
         style="mix-blend-mode:normal;fill:url(#linearGradient3760);fill-opacity:1;fill-rule:evenodd;stroke:none;stroke-width:7;stroke-linecap:round;stroke-linejoin:round;paint-order:markers fill stroke;stop-color:#000000"
         d="M 242.23268,234.43836 C 232.75628,300.40707 189.71709,343.25974 141.35452,339.99483 89.622973,336.50248 51.390218,281.56609 56.378425,207.67646 60.833785,141.67981 97.991449,89.102692 142.74036,81.111519 174.90468,124.43614 215.27049,184.4712 242.23268,234.43836 Z"
         sodipodi:nodetypes="csscc"
         inkscape:transform-center-x="-1.2152638"
         inkscape:transform-center-y="-128.82732" />
      <path
         id="path3503"
         style="mix-blend-mode:normal;fill:#ff80e5;fill-opacity:1;fill-rule:evenodd;stroke:none;stroke-width:7;stroke-linecap:round;stroke-linejoin:round;paint-order:markers fill stroke;stop-color:#000000"
         d="M 229.39529,278.95733 C 218.3947,302.87836 201.99972,320.94207 182.79664,331.04187 107.12075,305.15385 70.428194,180.5795 77.110249,134.52095 88.903405,113.17955 104.84399,96.755149 122.9119,87.754953 118.42475,115.87562 196.66383,271.19967 229.39529,278.95733 Z"
         sodipodi:nodetypes="ccccc"
         inkscape:transform-center-x="-4.9942768"
         inkscape:transform-center-y="-130.06928" />
      <path
         id="path3505"
         style="mix-blend-mode:normal;fill:#f2f2f2;fill-opacity:1;fill-rule:evenodd;stroke:none;stroke-width:7;stroke-linecap:round;stroke-linejoin:round;paint-order:markers fill stroke;stop-color:#000000"
         d="m 216.14822,301.59401 c -5.64453,7.67663 -11.97818,14.34459 -18.84595,19.87765 C 141.46578,303.42245 82.127601,152.3503 89.11423,116.29222 c 4.982605,-6.36414 10.402155,-12.02336 16.17053,-16.868275 -4.72524,26.104775 66.0002,195.079345 110.86346,202.170065 z"
         sodipodi:nodetypes="ccccc"
         inkscape:transform-center-x="-4.4784528"
         inkscape:transform-center-y="-129.01989" />
      <path
         id="path3507"
         style="mix-blend-mode:normal;fill:#4d4d4d;fill-opacity:0.246167;fill-rule:evenodd;stroke:none;stroke-width:7;stroke-linecap:round;stroke-linejoin:round;paint-order:markers fill stroke;stop-color:#000000"
         d="m 243.71493,220.32333 c -4.9882,73.88965 -50.62886,123.16384 -102.36041,119.6715 -16.62808,-1.12254 -31.86149,-7.56015 -44.713192,-18.23381 54.686802,15.3425 104.872072,-22.93948 125.430632,-90.01885 10.85307,-7.76402 9.20183,-18.62818 21.64297,-11.41884 z"
         sodipodi:nodetypes="csccc"
         inkscape:transform-center-x="-22.527213"
         inkscape:transform-center-y="-99.303814" />
    </g>
    <path
       id="path3758"
       style="mix-blend-mode:normal;fill:url(#linearGradient3485);fill-opacity:1;fill-rule:evenodd;stroke:none;stroke-width:7;stroke-linecap:round;stroke-linejoin:round;paint-order:markers fill stroke;stop-color:#000000"
       d="m 328.13901,407.07598 c -0.8546,4.2938 -1.83902,8.48401 -2.94544,12.56577 -34.79694,-85.34336 -39.33288,-103.24847 -79.83842,-163.58602 5.61702,-0.31438 11.26331,0.0616 16.88404,1.18026 50.85186,10.1212 80.35621,77.20685 65.89982,149.83999 z"
       sodipodi:nodetypes="sccss"
       inkscape:transform-center-x="36.975295"
       inkscape:transform-center-y="-79.554845" />
    <path
       style="fill:#000000;stroke:none;stroke-width:1px;stroke-linecap:butt;stroke-linejoin:miter;stroke-opacity:1"
       d="M -7.6516564,109.56144 C 27.46045,142.66835 49.870885,187.81648 36.836799,216.32585 108.47731,175.92712 137.75272,192.05178 174.3483,224.4512 165.97494,143.77242 83.254214,113.58819 -7.6516564,109.56144 Z"
       id="path3643"
       sodipodi:nodetypes="cccc"
       inkscape:transform-center-x="-1.682858"
       inkscape:transform-center-y="-194.13734" />
    <path
       id="path3827"
       style="fill:#000000;fill-opacity:1;fill-rule:evenodd;stroke:none;stroke-width:7;stroke-linecap:round;stroke-linejoin:round;paint-order:markers fill stroke;stop-color:#000000"
       d="m 295.88079,336.3783 c 0,19.44273 37.6714,29.11257 29.25053,29.11257 -8.42087,0 -86.85995,-54.78826 -86.85995,-74.23098 0,-19.44272 0.64567,-33.97738 9.06654,-33.97737 8.42087,-10e-6 48.54288,59.65306 48.54288,79.09578 z"
       sodipodi:nodetypes="sssss" />
  </g>
</svg>
