<?xml version="1.0" encoding="UTF-8" standalone="no"?>
<svg
   xmlns:osb="http://www.openswatchbook.org/uri/2009/osb"
   xmlns:dc="http://purl.org/dc/elements/1.1/"
   xmlns:cc="http://creativecommons.org/ns#"
   xmlns:rdf="http://www.w3.org/1999/02/22-rdf-syntax-ns#"
   xmlns:svg="http://www.w3.org/2000/svg"
   xmlns="http://www.w3.org/2000/svg"
   xmlns:xlink="http://www.w3.org/1999/xlink"
   xmlns:sodipodi="http://sodipodi.sourceforge.net/DTD/sodipodi-0.dtd"
   xmlns:inkscape="http://www.inkscape.org/namespaces/inkscape"
   viewBox="0 0 279.68503 396.85037"
   version="1.1"
   id="svg114"
   sodipodi:docname="a17.svg"
   inkscape:version="1.0.2 (e86c870879, 2021-01-15)"
   width="74mm"
   height="105mm"
   inkscape:export-filename="/home/l3d/Downloads/r2r-Design/testanima/a08.png"
   inkscape:export-xdpi="175.74055"
   inkscape:export-ydpi="175.74055">
  <metadata
     id="metadata118">
    <rdf:RDF>
      <cc:Work
         rdf:about="">
        <dc:format>image/svg+xml</dc:format>
        <dc:type
           rdf:resource="http://purl.org/dc/dcmitype/StillImage" />
        <dc:title></dc:title>
      </cc:Work>
    </rdf:RDF>
  </metadata>
  <sodipodi:namedview
     pagecolor="#ffffff"
     bordercolor="#666666"
     borderopacity="1"
     objecttolerance="10"
     gridtolerance="10"
     guidetolerance="10"
     inkscape:pageopacity="0"
     inkscape:pageshadow="2"
     inkscape:window-width="1916"
     inkscape:window-height="2105"
     id="namedview116"
     showgrid="false"
     inkscape:zoom="4.7894342"
     inkscape:cx="120.28518"
     inkscape:cy="210.90208"
     inkscape:window-x="4480"
     inkscape:window-y="53"
     inkscape:window-maximized="0"
     inkscape:current-layer="layer3"
     units="mm"
     inkscape:document-rotation="0" />
  <defs
     id="defs4">
    <linearGradient
       inkscape:collect="always"
       id="linearGradient3483">
      <stop
         style="stop-color:#0066ff;stop-opacity:1"
         offset="0"
         id="stop3487" />
      <stop
         style="stop-color:#2ad4ff;stop-opacity:1"
         offset="1"
         id="stop3489" />
    </linearGradient>
    <linearGradient
       id="linearGradient3475"
       osb:paint="solid">
      <stop
         style="stop-color:#ff0000;stop-opacity:1;"
         offset="0"
         id="stop3473" />
    </linearGradient>
    <style
       id="style2">.a{fill:#181716;opacity:0.31;}.b{fill:#20032a;}.c{fill:#d10369;}.d{fill:#494546;}.e{fill:#232322;}.f{fill:#3a3a39;}.g{fill:#2c053a;}.h{fill:#e10880;}.i{fill:#5e5a5c;}.j{fill:#737172;}.k{fill:#ee7400;}.l{fill:#3d7c2f;}.m{fill:#b26102;}.n{fill:#30ac5a;}.o{fill:#069951;}</style>
    <linearGradient
       inkscape:collect="always"
       xlink:href="#linearGradient3483"
       id="linearGradient3760"
       gradientUnits="userSpaceOnUse"
       x1="68.199944"
       y1="265.48984"
       x2="230.18843"
       y2="11.386665"
       gradientTransform="rotate(3.8621139,-915.00028,345.52979)" />
  </defs>
  <g
     inkscape:groupmode="layer"
     id="layer2"
     inkscape:label="bg"
     style="display:inline">
    <ellipse
       class="a"
       cx="139.64854"
       cy="313.95898"
       rx="73.989998"
       ry="28.34"
       id="ellipse6"
       style="opacity:0.31;fill:#181716" />
    <path
       class="b"
       d="m 86.685272,232.96729 c -0.49319,8.9796 -1.085028,21.30824 -1.51451,36.00151 -1.03064,35.28991 0.197373,38.42061 1.641189,40.75117 15.525139,25.07322 93.004309,15.99811 102.287719,-10.96383 1.71204,-4.97528 0.14283,-7.73709 -5.27027,-35.16838 -3.01401,-15.33604 -5.1886,-28.00138 -6.59958,-36.58521"
       id="path8"
       style="fill:#20032a"
       inkscape:transform-center-x="-23.074227"
       inkscape:transform-center-y="-52.433928" />
    <path
       class="c"
       d="m 83.763259,221.59685 a 17.64,17.64 0 0 0 0.684879,10.8803 166.61,166.61 0 0 0 95.141792,-6.3088 c 1.11193,-4.70571 1.44134,-10.15038 -1.154,-14.79515 -12.639,-22.64935 -87.491039,-14.20946 -94.672671,10.22365 z"
       id="path10"
       style="fill:#d10369"
       inkscape:transform-center-x="-17.614738"
       inkscape:transform-center-y="-110.77115" />
    <path
       class="d"
       d="m 128.94316,199.78994 c 19.64621,-2.20098 42.31378,0.66966 48.66724,12.04174 l 0.24987,0.48132 c 0.52385,-0.34363 1.09081,-0.65063 1.64781,-0.95683 l -0.24744,-0.45141 c -3.10099,-5.55676 -9.95678,-9.66415 -19.81834,-11.87144 -8.75835,-1.96599 -19.65649,-2.36323 -30.71226,-1.12229 -11.05577,1.24095 -21.39693,3.98889 -29.40651,7.7711 -8.424377,3.98653 -13.939079,8.96029 -16.059889,14.46046 0.580868,0.23364 1.161737,0.46729 1.770884,0.67858 4.452904,-11.60949 25.018305,-18.91185 43.908635,-21.03123 z"
       id="path12"
       style="fill:#494546"
       inkscape:transform-center-x="-17.185607"
       inkscape:transform-center-y="-119.15394" />
    <path
       class="b"
       d="m 79.164685,173.60171 c -2.988728,1.24656 -17.475852,7.1713 -19.051523,18.50647 -1.81906,12.65929 13.559203,23.47744 15.927871,25.09061 11.982649,8.1749 30.187567,6.63301 66.109727,3.22774 18.34979,-1.73427 31.88712,-3.91963 45.08991,-13.05075 4.39896,-3.02683 13.04575,-9.08824 12.09961,-15.41233 -0.83546,-5.58062 -8.84685,-8.60068 -20.40917,-12.96712 a 106.66,106.66 0 0 0 -27.47363,-7.06459 c -12.91809,-1.54717 -14.08528,0.38387 -34.08264,0.36602 -24.000161,-0.0131 -28.31819,-2.77193 -38.210155,1.30395 z"
       id="path14"
       style="fill:#20032a"
       inkscape:transform-center-x="-15.487779"
       inkscape:transform-center-y="-130.91089" />
    <path
       class="e"
       d="m 126.98217,206.39077 c 21.63102,-0.49637 44.43148,-8.81338 43.93548,-14.2912 -0.496,-5.47781 -24.74834,-8.21947 -42.09609,-7.6102 -18.53382,0.70581 -42.674137,5.75073 -42.679965,11.34965 0.0038,5.34732 21.603835,11.00374 40.840575,10.55175 z"
       id="path16"
       style="fill:#232322"
       inkscape:transform-center-x="-14.333345"
       inkscape:transform-center-y="-132.75461" />
    <path
       class="f"
       d="m 132.67369,207.04121 c -1.88377,0.15332 -3.78157,0.25761 -5.66429,0.30048 -16.43704,0.3345 -35.312269,-3.64745 -40.402501,-8.62091 A 4,4 0 0 1 85.182325,195.887 c 0.006,-3.13081 5.082301,-5.97196 15.116455,-8.42403 a 151.15,151.15 0 0 1 28.48049,-3.8631 155.15,155.15 0 0 1 27.56001,1.46915 52.52,52.52 0 0 1 10.57095,2.54084 c 3.1716,1.24683 4.7932,2.68001 4.94432,4.41346 a 4.13,4.13 0 0 1 -1.27163,3.11342 c -4.35342,4.81903 -20.74598,10.50756 -37.90923,11.90447 z m -5.70797,-1.59221 c 18.30574,-0.42639 37.72956,-6.59239 42.19795,-11.60138 a 2.51,2.51 0 0 0 0.79795,-1.6602 c -0.1233,-1.51499 -3.86278,-3.69884 -13.91163,-5.24877 a 153.88,153.88 0 0 0 -27.20711,-1.44771 149.62,149.62 0 0 0 -28.10336,3.81234 c -10.092333,2.47687 -13.629373,5.12252 -13.670412,6.59068 a 2.41,2.41 0 0 0 0.841746,1.46655 c 4.270503,4.14724 21.860326,8.48463 39.054866,8.08849 z"
       id="path18"
       style="fill:#3a3a39"
       inkscape:transform-center-x="-14.319215"
       inkscape:transform-center-y="-132.73473" />
    <path
       class="g"
       d="m 93.463432,234.27173 17.104578,2.32011 q -0.0302,43.14464 -5.1e-4,86.28441 a 67.06,67.06 0 0 1 -17.868892,-6.90321 z"
       id="path20"
       style="fill:#2c053a"
       inkscape:transform-center-x="12.566943"
       inkscape:transform-center-y="-49.591624" />
    <path
       class="g"
       d="m 155.92235,232.83025 6.83642,64.02643 q -0.81455,-32.32044 -1.63745,-64.62014 z"
       id="path22"
       style="fill:#2c053a"
       inkscape:transform-center-x="-45.140306"
       inkscape:transform-center-y="-63.619004" />
    <path
       class="f"
       d="m 136.94942,325.03323 a 96.64,96.64 0 0 1 -29.09586,-1.7254 c -10.494692,-2.46679 -18.076339,-6.98665 -21.853115,-13.08036 -0.820418,-1.32782 -1.519144,-2.88628 -1.882908,-8.46516 -0.400035,-6.14781 -0.34585,-16.57657 0.1074,-32.8269 0.357031,-12.00854 0.8638,-24.14966 1.512887,-36.02144 a 0.95,0.95 0 1 1 1.894896,0.10663 c -0.649088,11.87178 -1.15829,23.98301 -1.506977,35.9708 -0.978939,33.45969 0.07464,37.89885 1.488557,40.23184 3.47035,5.65713 10.64729,9.88887 20.67052,12.23351 9.20478,2.15038 20.51053,2.62481 31.97414,1.34064 11.4636,-1.28418 22.30173,-4.21303 30.73874,-8.29089 9.16101,-4.42774 15.11032,-9.97865 17.2032,-16.0685 1.17833,-3.39678 0.65821,-5.84265 -1.80057,-17.56181 -0.91914,-4.38991 -2.06706,-9.86483 -3.49972,-17.1125 -2.39642,-12.18576 -4.62235,-24.49576 -6.59958,-36.58521 a 1,1 0 0 1 0.78601,-1.06728 1,1 0 0 1 1.06728,0.78601 c 1.98638,12.07867 4.19076,24.37036 6.59959,36.58521 1.4235,7.25845 2.56898,12.70347 3.48731,17.08341 2.55346,12.14288 3.08089,14.67845 1.74297,18.57984 -2.26488,6.56537 -8.54461,12.49433 -18.17859,17.15119 -8.6207,4.16305 -19.76294,7.17685 -31.35612,8.47157 -1.15942,0.0542 -2.32395,0.16908 -3.50006,0.2648 z"
       id="path24"
       style="fill:#3a3a39"
       inkscape:transform-center-x="-23.072274"
       inkscape:transform-center-y="-52.390405" />
    <path
       class="f"
       d="m 98.61348,178.59044 a 40.11,40.11 0 0 0 -8.105409,0.5092 31.7,31.7 0 0 0 -3.939766,0.90257 30.76,30.76 0 0 0 -3.786095,1.31146 47.64,47.64 0 0 0 -7.19205,3.59528 20.42,20.42 0 0 0 -3.105558,2.39983 9.59,9.59 0 0 0 -2.21073,3.03935 6.17,6.17 0 0 0 -0.489207,1.75548 7.42,7.42 0 0 0 0.02885,1.8337 10,10 0 0 0 0.459864,1.82872 l 0.176854,0.44713 a 3.53,3.53 0 0 0 0.186821,0.44631 l 0.205945,0.43473 0.225878,0.4331 a 18.43,18.43 0 0 0 2.26922,3.22656 27.38,27.38 0 0 0 2.798982,2.83227 36.27,36.27 0 0 0 3.160927,2.47173 38.49,38.49 0 0 0 3.417291,2.16994 c 1.168804,0.67742 2.37261,1.29179 3.594728,1.8846 1.222117,0.59282 2.478428,1.11262 3.744702,1.63161 -1.323064,-0.35384 -2.62272,-0.78985 -3.904061,-1.24741 -1.281341,-0.45757 -2.540893,-1.01724 -3.782945,-1.60843 a 36.5,36.5 0 0 1 -7.003788,-4.4465 26.65,26.65 0 0 1 -3.042247,-2.86264 19.09,19.09 0 0 1 -2.494752,-3.40886 l -0.259024,-0.47054 -0.229935,-0.48294 c -0.166308,-0.31755 -0.285215,-0.66907 -0.42,-0.96912 a 11.13,11.13 0 0 1 -0.553158,-2.11209 8.8,8.8 0 0 1 -0.05133,-2.23319 7.86,7.86 0 0 1 0.594675,-2.18545 11,11 0 0 1 2.573718,-3.51035 19.72,19.72 0 0 1 3.385679,-2.533 34.58,34.58 0 0 1 3.685961,-1.92535 c 1.256778,-0.58388 2.530012,-1.08883 3.816458,-1.55472 a 32.33,32.33 0 0 1 16.260192,-1.64447 z"
       id="path26"
       style="fill:#3a3a39"
       inkscape:transform-center-x="30.752324"
       inkscape:transform-center-y="-133.21226" />
    <path
       class="f"
       d="m 93.749763,184.04296 a 25.16,25.16 0 0 0 -10.292372,1.9915 30.79,30.79 0 0 0 -4.651839,2.38522 12.38,12.38 0 0 0 -1.991099,1.54662 5.91,5.91 0 0 0 -1.389718,1.90902 5.09,5.09 0 0 0 0.495428,4.48459 15.06,15.06 0 0 0 3.219561,3.93179 c 0.649129,0.57925 1.324914,1.1162 2.039756,1.63994 0.714842,0.52373 1.435595,0.99682 2.194594,1.44674 0.758999,0.44991 1.536309,0.87826 2.33112,1.2751 0.794811,0.39683 1.597967,0.77291 2.420248,1.13741 a 26.51,26.51 0 0 1 -2.588762,-0.74244 c -0.847313,-0.30226 -1.677936,-0.64602 -2.510181,-1.0097 a 23.34,23.34 0 0 1 -4.655865,-2.84168 17.42,17.42 0 0 1 -2.036046,-1.8409 12.19,12.19 0 0 1 -1.669813,-2.27203 9.44,9.44 0 0 1 -0.6278,-1.30337 8.74,8.74 0 0 1 -0.377579,-1.43409 6.06,6.06 0 0 1 -0.03441,-1.53226 5.38,5.38 0 0 1 0.409005,-1.50815 7.59,7.59 0 0 1 1.742739,-2.37922 13.51,13.51 0 0 1 2.270409,-1.68974 28,28 0 0 1 4.972985,-2.26087 20.75,20.75 0 0 1 5.343733,-1.1573 20.47,20.47 0 0 1 5.385908,0.22382 z"
       id="path28"
       style="fill:#3a3a39"
       inkscape:transform-center-x="30.529355"
       inkscape:transform-center-y="-133.4025" />
    <path
       class="f"
       d="m 164.29254,180.34828 a 59.93,59.93 0 0 1 7.90964,1.52338 41.92,41.92 0 0 1 7.64575,2.71873 19.19,19.19 0 0 1 3.54524,2.13946 12,12 0 0 1 1.57177,1.43723 7.71,7.71 0 0 1 1.22304,1.83684 5.45,5.45 0 0 1 0.50309,2.23656 7.06,7.06 0 0 1 -0.3805,2.22821 11.49,11.49 0 0 1 -2.24261,3.6339 27.44,27.44 0 0 1 -6.41359,5.14724 50.56,50.56 0 0 1 -7.29172,3.60339 c -1.25249,0.51329 -2.50903,0.97675 -3.78794,1.41194 -0.64566,0.20304 -1.28054,0.41524 -1.95691,0.61075 l -0.97967,0.29043 -0.98048,0.28047 a 76.84,76.84 0 0 1 -7.88602,1.7254 c 2.57753,-0.75156 5.13187,-1.54138 7.6474,-2.4384 l 0.97642,-0.33029 0.97399,-0.3602 c 0.6241,-0.22136 1.2358,-0.47181 1.85828,-0.7131 l 1.84425,-0.76212 c 0.61008,-0.27038 1.22178,-0.52083 1.83105,-0.80117 l 0.89854,-0.42429 0.89773,-0.43426 c 0.30006,-0.13478 0.58852,-0.28869 0.88695,-0.44341 0.29844,-0.15472 0.58852,-0.28869 0.87618,-0.45257 1.17379,-0.61725 2.32441,-1.27275 3.4311,-1.97484 a 34.67,34.67 0 0 0 3.21659,-2.26841 22.27,22.27 0 0 0 2.79461,-2.64542 10.4,10.4 0 0 0 1.96932,-3.1702 5.6,5.6 0 0 0 0.3222,-1.71178 4.22,4.22 0 0 0 -0.35556,-1.65662 7.73,7.73 0 0 0 -2.30654,-2.82219 16.38,16.38 0 0 0 -1.56655,-1.12663 c -0.54077,-0.35731 -1.10901,-0.68229 -1.6864,-0.99649 -1.15397,-0.61842 -2.36206,-1.16221 -3.57688,-1.66532 -1.21482,-0.50311 -2.47703,-0.97227 -3.74516,-1.39078 -2.48805,-0.861 -5.06603,-1.59429 -7.66661,-2.23544 z"
       id="path30"
       style="fill:#3a3a39"
       inkscape:transform-center-x="-56.531096"
       inkscape:transform-center-y="-132.40536" />
    <path
       class="f"
       d="m 166.41942,185.89402 a 33,33 0 0 1 4.93136,0.80261 25.89,25.89 0 0 1 4.78695,1.61701 12.1,12.1 0 0 1 2.24467,1.32227 6,6 0 0 1 1.7813,2.16262 c 0.01,0.11961 0.0892,0.23353 0.12888,0.3507 l 0.0652,0.18532 0.0154,0.18937 a 2.33,2.33 0 0 1 0.0308,0.37875 l 0.0316,0.38872 a 4.69,4.69 0 0 1 -0.25115,1.47523 7.44,7.44 0 0 1 -1.43458,2.3441 16.82,16.82 0 0 1 -3.91753,3.14817 30.44,30.44 0 0 1 -4.5568,2.1969 40.94,40.94 0 0 1 -9.68287,2.45357 c 1.57224,-0.52929 3.1453,-1.04861 4.68196,-1.64523 1.53667,-0.59662 3.04853,-1.25143 4.5305,-1.90379 a 38.53,38.53 0 0 0 4.27309,-2.3544 21,21 0 0 0 1.89363,-1.38819 13.17,13.17 0 0 0 1.70553,-1.60364 6,6 0 0 0 1.17369,-1.85131 3,3 0 0 0 0.18289,-0.958 l -0.0187,-0.22924 c -0.006,-0.0797 -0.013,-0.15947 -0.0187,-0.22924 l -0.01,-0.1196 -0.01,-0.11961 -0.0785,-0.22437 a 4.69,4.69 0 0 0 -1.33882,-1.65686 12.18,12.18 0 0 0 -1.95237,-1.30592 31.39,31.39 0 0 0 -4.45409,-1.96516 c -1.56529,-0.49465 -3.13973,-0.97853 -4.73411,-1.46078 z"
       id="path32"
       style="fill:#3a3a39"
       inkscape:transform-center-x="-56.313861"
       inkscape:transform-center-y="-132.76392" />
    <path
       class="f"
       d="m 91.383492,207.85339 c 4.557941,1.51525 9.151118,2.84704 13.801308,3.89326 2.33843,0.50195 4.66608,0.99476 7.02224,1.34478 2.35616,0.35002 4.7115,0.69007 7.09942,0.93717 1.18237,0.10443 2.36636,0.22879 3.55626,0.30251 0.59454,0.0319 1.18156,0.0945 1.77529,0.11637 l 1.78282,0.0857 q 3.58234,0.12982 7.15008,0.0802 c 4.76784,-0.0971 9.53452,-0.45495 14.30572,-1.0038 a 80.43,80.43 0 0 1 -14.26146,2.16403 l -1.80403,0.14683 c -0.59802,0.0487 -1.20091,0.0375 -1.80137,0.0563 l -0.907,0.0738 -0.90352,-0.007 -1.80624,-0.003 q -3.62812,-0.0759 -7.23746,-0.41425 c -0.59616,-0.0518 -1.19477,-0.13352 -1.79256,-0.20526 l -0.90166,-0.10721 c -0.30388,-0.0355 -0.59779,-0.0717 -0.9033,-0.12715 -1.18885,-0.18416 -2.38606,-0.34758 -3.56981,-0.59236 l -1.77402,-0.34723 c -0.59188,-0.12239 -1.18376,-0.24478 -1.77726,-0.38711 -1.1746,-0.25555 -2.34329,-0.56176 -3.50283,-0.87874 a 78.61,78.61 0 0 1 -13.550618,-5.12766 z"
       id="path34"
       style="fill:#3a3a39"
       inkscape:transform-center-x="-5.4298087"
       inkscape:transform-center-y="-116.21364" />
    <path
       class="f"
       d="m 97.586961,183.35943 a 88.23,88.23 0 0 1 11.615439,-3.36334 108.66,108.66 0 0 1 11.95907,-1.97665 104.34,104.34 0 0 1 12.10926,-0.62437 87.65,87.65 0 0 1 12.10809,0.84055 c -4.00872,0.0554 -8.015,0.14065 -12.01156,0.34553 -1.9934,0.16224 -3.99493,0.22481 -5.98833,0.38705 -0.99671,0.0811 -1.99341,0.16225 -2.99012,0.24337 l -1.49505,0.12168 -1.49506,0.12168 q -5.96806,0.63623 -11.90934,1.60138 c -4.01093,0.7679 -7.95371,1.51019 -11.902399,2.30312 z"
       id="path36"
       style="fill:#3a3a39"
       inkscape:transform-center-x="-7.2826382"
       inkscape:transform-center-y="-147.7895" />
    <path
       class="h"
       d="m 93.460761,235.22509 17.107249,1.36675 0.19548,-13.50035 -17.089985,-0.41501 z"
       id="path38"
       style="fill:#e10880"
       inkscape:transform-center-x="12.088126"
       inkscape:transform-center-y="-98.531453" />
    <path
       class="f"
       d="m 123.06583,223.11358 c -23.22321,1.89012 -37.546537,1.69139 -47.57519,-5.15765 a 53.64,53.64 0 0 1 -9.727198,-8.56916 c -5.190473,-5.95858 -7.423866,-11.82674 -6.616618,-17.44073 1.092711,-7.65387 8.070953,-14.49249 19.63344,-19.24612 v 0 c 6.630649,-2.72687 10.944405,-2.48601 19.522896,-1.99028 4.72808,0.27737 10.60457,0.61177 18.98222,0.61216 8.60931,0.0116 13.69737,-0.34227 17.78792,-0.62503 a 71.94,71.94 0 0 1 16.45581,0.26596 107.39,107.39 0 0 1 27.72848,7.11408 c 12.10008,4.56347 20.1015,7.58434 21.02226,13.71987 1.04035,6.98864 -8.44946,13.54006 -12.49587,16.33752 -13.85053,9.55507 -28.21466,11.56693 -45.56856,13.21011 -6.96638,0.69742 -13.3388,1.29633 -19.14959,1.76927 z m -43.901145,-49.51187 0.362865,0.88348 c -10.921698,4.49078 -17.482017,10.79373 -18.480385,17.75767 -1.689483,11.7859 12.602491,22.20084 15.521894,24.17051 11.471782,7.81515 28.368121,6.59046 65.464761,3.06954 17.07563,-1.6105 31.20137,-3.59293 44.67188,-12.8863 3.80186,-2.59697 12.56825,-8.66812 11.69258,-14.49629 -0.75016,-5.02571 -8.74162,-8.0474 -19.80605,-12.21357 a 105.78,105.78 0 0 0 -27.28855,-7.00942 71.32,71.32 0 0 0 -16.07463,-0.26689 c -4.11639,0.33503 -9.24837,0.64236 -17.92665,0.64636 -8.42829,-0.006 -14.33549,-0.34824 -19.11341,-0.62155 -8.547777,-0.4882 -12.448828,-0.71248 -18.681374,1.85156 z"
       id="path40"
       style="fill:#3a3a39"
       inkscape:transform-center-x="-15.472183"
       inkscape:transform-center-y="-130.92226" />
    <path
       class="f"
       d="m 177.8204,212.31624 c 1.7704,3.50795 2.07912,7.91744 0.91886,13.13877 a 165.27,165.27 0 0 1 -47.48975,9.94519 165.9,165.9 0 0 1 -46.087217,-3.76375 16.27,16.27 0 0 1 -0.486819,-9.80282 c 0.10199,-0.34943 0.223914,-0.70047 0.357428,-1.0324 -0.609147,-0.21128 -1.190015,-0.44493 -1.770883,-0.67858 -0.158548,0.39416 -0.287195,0.78589 -0.405063,1.18677 a 18.29,18.29 0 0 0 0.692061,11.46164 1,1 0 0 0 0.681464,0.60671 167.66,167.66 0 0 0 47.171539,3.89624 c 1.21598,-0.099 2.43195,-0.19794 3.64793,-0.2969 a 167.38,167.38 0 0 0 44.85811,-9.98184 1,1 0 0 0 0.59756,-0.67069 c 1.41327,-5.9342 1.11243,-10.98645 -1.00241,-15.02821 -0.55213,0.366 -1.11585,0.71287 -1.68281,1.01987 z"
       id="path42"
       style="fill:#3a3a39"
       inkscape:transform-center-x="-17.609561"
       inkscape:transform-center-y="-103.73348" />
    <ellipse
       class="g"
       cx="-234.99139"
       cy="206.43565"
       rx="24.860001"
       ry="18.15"
       transform="rotate(-74.183009)"
       id="ellipse44"
       style="fill:#2c053a"
       inkscape:transform-center-x="-20.368602"
       inkscape:transform-center-y="-45.804403" />
    <path
       class="j"
       d="m 160.4698,186.01707 -6.31585,-1.17151"
       id="path60"
       style="fill:#737172"
       inkscape:transform-center-x="-43.111622"
       inkscape:transform-center-y="-142.73429" />
    <path
       class="k"
       d="m 127.15786,304.2089 a 19.42,19.42 0 0 0 3.88217,-1.61023 16.2,16.2 0 0 0 1.71295,-1.14273 25.68,25.68 0 0 0 2.94087,-2.69745 26.5,26.5 0 0 0 2.31909,-2.81742 c 0.26737,-0.41305 0.53313,-0.84603 0.79482,-1.32885 0.2617,-0.48282 0.4717,-0.8611 0.6685,-1.27844 l -2.06318,-0.69493 a 0.3,0.3 0 0 1 -0.19111,-0.37573 0.31,0.31 0 0 1 0.38571,-0.19192 l 2.15449,0.70755 c 0.45119,-0.98986 0.84663,-1.92502 1.11065,-2.74915 a 40.81,40.81 0 0 0 1.30965,-3.87903 l -1.38102,-0.44945 a 0.30004459,0.30004459 0 1 1 0.1946,-0.56766 l 1.33036,0.44354 a 24.28,24.28 0 0 0 0.73053,-5.44721 l -4.49571,-1.49021 a 0.29,0.29 0 0 1 -0.19111,-0.37574 0.3,0.3 0 0 1 0.37574,-0.19111 l 4.3098,1.42508 c -0.0243,-0.29901 -0.0487,-0.59802 -0.024,-0.91106 a 24.18,24.18 0 0 0 -0.4777,-3.77368 2.6,2.6 0 0 1 -1.19744,-0.043 1.61,1.61 0 0 1 -0.52674,-0.30828 1.37,1.37 0 0 1 -0.41212,-0.74904 2.58,2.58 0 0 0 -0.22646,-0.56349 2.38,2.38 0 0 0 -0.44654,-0.5556 1.47,1.47 0 0 1 -0.51237,-0.87131 1.9,1.9 0 0 1 -0.0276,-0.33888 2,2 0 0 1 -0.63789,0.0519 1.33,1.33 0 0 1 -0.73362,-0.26135 1.35,1.35 0 0 0 -0.33436,-0.16342 l -0.0997,0.008 a 1.51,1.51 0 0 0 -0.6161,-0.0502 1.8,1.8 0 0 1 -0.70824,-0.0728 l -0.23898,-0.10094 a 1.33,1.33 0 0 1 -0.20073,-0.12413 1.57,1.57 0 0 1 -0.4491,0.76897 1.28,1.28 0 0 1 -0.74556,0.33157 3.3,3.3 0 0 0 -0.63893,0.16236 3.46,3.46 0 0 0 -0.6467,0.3135 2.27,2.27 0 0 1 -0.66664,0.31512 2.84,2.84 0 0 1 -1.63251,-0.0879 l -0.0897,0.007 a 42.12,42.12 0 0 0 -2.80088,4.17095 c -0.23747,0.41062 -0.51157,0.86435 -0.79157,1.36873 l 1.81423,0.59479 a 0.30463092,0.30463092 0 1 1 -0.19379,0.57762 l -1.91795,-0.63651 a 32.71,32.71 0 0 0 -2.36871,5.28959 l 2.25741,0.73931 a 0.3,0.3 0 0 1 0.19111,0.37573 0.3,0.3 0 0 1 -0.3857,0.19192 l -2.24745,-0.74012 a 29.25,29.25 0 0 0 -0.93066,3.72778 c -0.10083,0.61019 -0.23933,1.37395 -0.32823,2.25406 l 3.35958,1.09106 a 0.3,0.3 0 0 1 0.19192,0.3857 0.3,0.3 0 0 1 -0.37574,0.19111 l -3.22004,-1.10242 a 18.33,18.33 0 0 0 0.23234,4.82706 17,17 0 0 0 0.84684,3.13163 26.41,26.41 0 0 0 2.17974,4.83912 1.74,1.74 0 0 1 0.22251,0.88487 1.45,1.45 0 0 1 0.6569,-0.43472 z m 1.31583,-10.95284 a 5,5 0 0 1 1.87975,-5.38022 2.33,2.33 0 0 1 2.03536,-0.38638 v 0 a 2.38,2.38 0 0 1 1.39294,1.58221 5,5 0 0 1 -1.88971,5.38103 2.72,2.72 0 0 1 -1.2059,0.46938 1.9,1.9 0 0 1 -0.82946,-0.083 v 0 a 2.37,2.37 0 0 1 -1.38298,-1.58303 z"
       id="path62"
       style="fill:#ee7400"
       inkscape:transform-center-x="-18.805545"
       inkscape:transform-center-y="-40.508785" />
    <path
       class="l"
       d="m 142.05807,273.15784 a 0.5,0.5 0 0 1 -0.20989,-0.11335 c 0,0 -0.005,-0.0598 -0.10755,-0.21197 a 3.71,3.71 0 0 0 -0.34072,-0.73478 4.44,4.44 0 0 0 -0.45814,-0.57473 l -0.006,-0.0698 a 1.06,1.06 0 0 1 0.25127,-0.24118 v 0 a 11,11 0 0 0 1.96259,-2.26668 17.28,17.28 0 0 1 5.9959,-5.59483 0.64,0.64 0 0 0 0.0268,0.32891 0.62,0.62 0 0 0 0.40042,0.3587 2.09,2.09 0 0 0 1.10634,-0.09 9.87,9.87 0 0 1 1.30186,-0.27652 5.87,5.87 0 0 1 1.66913,0.0447 15.75,15.75 0 0 1 -1.02094,1.87902 c -0.7014,1.12059 -1.00899,1.28609 -1.26327,1.36698 a 1.84,1.84 0 0 1 -0.65782,0.0535 c -0.16944,0.0138 -0.705,-0.0329 -0.83469,0.46926 -0.12969,0.50217 0.0617,0.75749 1.21018,1.18573 l -0.13954,0.0114 a 12.48,12.48 0 0 1 -1.88377,0.15332 l -0.35881,0.0292 a 0.63,0.63 0 0 0 -0.67464,0.58666 0.6,0.6 0 0 0 0.44226,0.62619 2.93,2.93 0 0 0 0.38848,0.0888 8.58,8.58 0 0 1 1.37047,0.31988 l 0.0797,-0.006 c 0.27885,0.0977 0.54935,0.21615 0.6846,0.27537 -0.27954,0.26355 -0.56071,0.50716 -0.86181,0.75239 a 15.38,15.38 0 0 1 -1.57341,1.13137 5.63,5.63 0 0 1 -0.96993,0.41003 5.55,5.55 0 0 1 -1.05268,0.25624 12.12,12.12 0 0 1 -2.53383,0.0557 l -1.542,-0.0852 v 0 a 1.07,1.07 0 0 1 -0.39601,-0.0581 m -0.19378,0.57763 a 2,2 0 0 0 0.58863,0.0825 c 0.62607,0.0494 1.16,0.0761 1.55277,0.0944 a 14.06,14.06 0 0 0 2.69354,-0.18913 6,6 0 0 0 1.1607,-0.2851 6.17,6.17 0 0 0 1.02649,-0.45476 14.81,14.81 0 0 0 1.65314,-1.13786 13.55,13.55 0 0 0 1.49171,-1.39561 c -0.19911,-0.10419 -0.42975,-0.22588 -0.6795,-0.33598 0,0 -0.40575,-0.17767 -0.81822,-0.31467 l -0.0897,0.007 a 14.24,14.24 0 0 0 -1.75813,-0.3987 v 0 c -0.006,-0.0698 1.10692,0.0403 2.41202,-0.19631 a 9.17,9.17 0 0 0 1.96258,-0.54099 c -2.0656,-0.72482 -2.61981,-1.00078 -2.59802,-1.10288 0.0218,-0.1021 0.51724,0.0683 1.10634,-0.09 0.5891,-0.15831 0.86377,-0.48166 1.58511,-1.60388 a 18,18 0 0 0 1.35125,-2.62827 6.27,6.27 0 0 0 -2.57648,-0.22173 c -0.99265,0.13096 -1.96664,0.49116 -2.15254,0.42602 -0.007,-0.0897 0.25208,-0.23121 0.50786,-0.66338 a 2.14,2.14 0 0 0 0.27213,-0.72446 15.89,15.89 0 0 0 -1.57514,0.74021 c -5.01031,2.66523 -6.27093,6.53023 -8.13141,7.95585 -0.12227,0.10025 -0.5198,0.39347 -0.50891,0.77384 0.0109,0.38037 0.28082,0.36843 0.61934,0.95289 0.33853,0.58447 0.25509,0.79192 0.5585,1.06822 a 1.21,1.21 0 0 0 0.4214,0.24663 z"
       id="path64"
       style="fill:#3d7c2f"
       inkscape:transform-center-x="-33.226942"
       inkscape:transform-center-y="-60.11599" />
    <path
       class="l"
       d="m 131.85334,271.04871 v 0 a 8.84,8.84 0 0 1 -1.97045,-1.40479 l -0.17164,-0.13652 -1.6019,-1.31439 c -1.62184,-1.31276 -2.00823,-1.62243 -2.48421,-2.41644 a 9.08,9.08 0 0 1 -0.81196,-1.8402 8.23,8.23 0 0 1 -0.23955,-1.09417 4.29,4.29 0 0 1 0.69514,0.40494 1.47,1.47 0 0 0 0.40981,0.22751 0.63,0.63 0 0 0 0.63383,-0.10175 c 0.43334,-0.3463 0.20259,-0.8392 0.033,-1.19663 a 5.75,5.75 0 0 1 -0.41896,-1.07957 2.89,2.89 0 0 1 -0.0235,-0.28904 l 0.0846,0.0533 0.14846,0.0983 a 0.64,0.64 0 0 0 0.26378,0.15913 0.64,0.64 0 0 0 0.46845,-0.0381 c 0.52038,-0.26308 0.36693,-0.79238 0.17629,-1.40894 -0.013,-0.15948 -0.0973,-0.3332 -0.14186,-0.51018 -0.0445,-0.17697 -0.11681,-0.57241 -0.24256,-1.25445 q -0.14057,-0.74104 -0.24128,-1.48533 a 7.15,7.15 0 0 1 1.19847,0.7954 c 0.22553,0.18231 0.42116,0.36705 0.61679,0.55179 a 3.3,3.3 0 0 0 1.06972,0.81591 1,1 0 0 0 0.68772,-0.056 1,1 0 0 0 0.52675,-0.55456 l 0.14916,-0.26297 c 0.68829,2.66294 1.40231,4.9024 2.00681,6.65915 0.20896,0.59501 0.35974,1.21483 0.52291,1.86373 a 16.23,16.23 0 0 0 0.56093,1.96096 l 0.0801,0.24431 a 8.3,8.3 0 0 1 0.36078,1.10437 0.81,0.81 0 0 1 0.0349,0.42858 l -0.14951,0.0122 a 3.38,3.38 0 0 0 -0.97723,0.32033 3.25,3.25 0 0 0 -0.79911,0.53659 0.82,0.82 0 0 1 -0.1896,0.13583 0.34,0.34 0 0 1 -0.25914,0.0211 m -0.18463,0.56685 a 0.93,0.93 0 0 0 0.67266,0.005 c 0.31083,-0.12563 0.40019,-0.38373 1.02777,-0.68563 0.62757,-0.30191 1.04596,-0.21556 1.28563,-0.47586 0.43357,-0.46671 0.0111,-1.46574 -0.33585,-2.40067 -0.45349,-1.25736 -0.62281,-2.59804 -1.08546,-3.84462 a 78.09,78.09 0 0 1 -2.24821,-7.65284 3.58,3.58 0 0 0 -0.68646,0.68795 c -0.35302,0.47019 -0.33517,0.68946 -0.5388,0.77627 a 0.34,0.34 0 0 1 -0.25915,0.0211 c -0.39172,-0.12865 -0.88219,-0.73085 -1.53723,-1.25945 a 7.83,7.83 0 0 0 -2.32359,-1.30581 c 0.0665,0.81729 0.21602,1.66797 0.37955,2.56767 0.12655,0.69202 0.19562,1.04758 0.25658,1.30348 0.17071,0.61819 0.37642,1.17333 0.28,1.22131 v 0 c 0,0 -0.10778,-0.0916 -0.27699,-0.19818 a 2,2 0 0 0 -0.39741,-0.19842 l -0.17511,-0.056 a 4.24,4.24 0 0 0 -0.51215,-0.12888 4.53,4.53 0 0 0 0.16364,1.27091 c 0.25056,0.98291 0.71866,1.55683 0.59639,1.65708 -0.12227,0.10025 0,0 -0.0797,0.006 a 9.81,9.81 0 0 0 -1.20948,-0.68414 l -0.26888,-0.0985 c -0.19586,-0.0643 -0.36936,-0.10037 -0.49221,-0.1305 a 8.82,8.82 0 0 0 0.35301,2.11834 9,9 0 0 0 0.85993,1.93663 c 0.67382,1.12906 1.18654,1.38832 4.22948,3.88972 a 9.46,9.46 0 0 0 2.33124,1.64631 z"
       id="path66"
       style="fill:#3d7c2f"
       inkscape:transform-center-x="-15.177324"
       inkscape:transform-center-y="-64.635197" />
    <path
       class="l"
       d="m 136.28927,269.09241 c 0,0 0,0 -0.0598,0.005 a 0.78,0.78 0 0 1 -0.25392,-0.53115 l -0.006,-0.0797 c -0.006,-0.0797 -2.51025,-8.28366 -3.40749,-12.40446 a 13.38,13.38 0 0 1 -0.32252,-2.85324 12.41,12.41 0 0 1 0.17663,-2.02099 l 0.22913,0.47297 c 0.13316,0.28012 0.23318,0.52281 0.3092,0.71728 0.21081,0.49453 0.34884,0.83446 0.72898,0.94398 v 0 a 0.86,0.86 0 0 0 0.23411,0.0411 c 0.61796,-0.0503 0.79343,-0.60636 0.99822,-1.29524 a 12.41,12.41 0 0 1 0.83446,-2.07453 c 0.0967,-0.1684 0.19251,-0.34676 0.29913,-0.51597 a 1.21,1.21 0 0 1 0.0114,0.13954 3.11,3.11 0 0 1 0.21139,0.62491 0.88,0.88 0 0 0 0.52929,0.7094 l 0.1495,-0.0122 c 0.56627,0.0542 0.74336,-0.48189 0.92289,-0.98813 a 8.82,8.82 0 0 1 0.55318,-1.33928 c 0.0783,-0.14684 0.15669,-0.29368 0.24582,-0.43137 a 1.23,1.23 0 0 1 0.0219,0.26911 0.77,0.77 0 0 0 0.43205,0.74742 v 0 c 0.5461,0.17628 0.86088,-0.27073 1.29225,-0.88776 0.19899,-0.26702 0.41467,-0.57553 0.66188,-0.86655 a 7.16,7.16 0 0 1 0.60162,-0.62085 c 0.026,0.31895 0.11172,0.63303 0.18079,0.9886 0.43402,1.88099 0.84603,2.25881 1.19708,2.38074 a 0.58,0.58 0 0 0 0.26401,0.0387 0.84,0.84 0 0 0 0.6343,-0.34259 l 0.10152,-0.10859 c 0.01,0.1196 0.0195,0.23921 0.0284,0.34884 0.009,0.10964 -0.0349,0.43427 -0.0569,0.65679 -0.0575,0.52639 -0.13548,0.92403 -0.19169,1.21957 -0.0931,0.45906 -0.19205,0.96877 0.30827,1.19894 v 0 0 c 0.44319,0.14452 0.71624,-0.19876 0.89854,-0.42429 a 4.34,4.34 0 0 1 0.55503,-0.57693 l 0.26367,-0.21208 a 0.45,0.45 0 0 1 0.009,0.10963 2,2 0 0 1 -0.0184,0.51319 0.86,0.86 0 0 0 0.37016,0.97318 l 0.0797,-0.006 a 0.81,0.81 0 0 0 0.8027,-0.24593 v 0 a 1.38,1.38 0 0 1 -0.12007,0.25057 0.86,0.86 0 0 0 -0.0285,1.00563 0.8,0.8 0 0 0 0.3077,0.20571 0.94,0.94 0 0 0 0.56812,-0.0462 l 0.13954,-0.0114 -0.18555,0.18566 a 0.85,0.85 0 0 0 -0.33888,0.89043 0.74,0.74 0 0 0 0.45755,0.44435 1.23,1.23 0 0 0 0.38524,0.0489 1.36,1.36 0 0 1 0.43751,0.0747 0.94,0.94 0 0 1 0.22901,0.10176 7.83,7.83 0 0 1 -0.67429,0.83746 l -0.0741,0.0763 c -0.22136,0.23874 -0.55259,0.60682 -0.29763,1.02753 a 0.66,0.66 0 0 0 0.35406,0.28221 1.08,1.08 0 0 0 0.68773,-0.056 l -0.23423,0.45049 a 8.05,8.05 0 0 1 -2.49316,2.65098 34.85,34.85 0 0 0 -2.91561,2.51481 17.52,17.52 0 0 0 -2.98213,3.42319 l -1.10045,1.76509 v 0 0 c -0.11172,0.22982 -0.21487,0.31848 -0.27386,0.33331 a 1.72,1.72 0 0 1 -0.21232,-0.14324 3.44,3.44 0 0 0 -0.92253,-0.48677 v 0 a 3.3,3.3 0 0 0 -1.22386,-0.12112 1.18,1.18 0 0 1 -0.36878,0.03 v 0 m -0.18381,0.57682 c 0.42244,0.13618 0.86713,-0.0706 1.59588,0.13097 v 0 a 8.22,8.22 0 0 1 1.1556,0.63836 0.68,0.68 0 0 0 0.28904,-0.0235 1.13,1.13 0 0 0 0.68889,-0.65805 l 1.10044,-1.76508 a 17.52,17.52 0 0 1 2.89058,-3.31542 c 3.01435,-2.9041 4.30114,-3.11919 5.51783,-5.30509 a 9.41,9.41 0 0 0 0.75588,-1.80728 4.64,4.64 0 0 1 -1.54153,0.53682 v 0 c -0.006,-0.0698 0.11334,-0.20988 0.29646,-0.42545 a 9.83,9.83 0 0 0 1.01653,-1.3168 1.89,1.89 0 0 0 -0.821,-0.59536 v 0 a 7.4,7.4 0 0 0 -0.82274,-0.12367 0.11,0.11 0 0 1 0.0673,-0.0356 c -0.0105,-0.12957 0.22971,-0.25949 0.50195,-0.61274 a 2.4,2.4 0 0 0 0.40842,-0.77568 l -0.0997,0.008 a 2,2 0 0 0 -0.64925,-0.0876 c -0.37874,0.0308 -0.61065,0.13999 -0.71357,0.10824 v 0 c -0.0895,-0.11312 0.18926,-0.38663 0.3397,-0.88046 a 2.53,2.53 0 0 0 0.0956,-0.92079 1.84,1.84 0 0 0 -0.77442,0.22356 c -0.35499,0.19945 -0.50577,0.44248 -0.59953,0.39995 v 0 c -0.12528,-0.06 0.0432,-0.45501 -0.0213,-1.00157 a 2.16,2.16 0 0 0 -0.31384,-0.8975 3.85,3.85 0 0 0 -0.95452,0.59941 c -0.55399,0.46647 -0.76747,0.9253 -0.93019,0.89842 v 0 c -0.12528,-0.06 0.10756,-0.65087 0.23354,-1.81493 -0.0186,-0.22924 0.0365,-0.41433 0.0553,-0.67672 0.0376,-0.52477 0.0584,-1.00806 0.0585,-1.49969 a 3.19,3.19 0 0 0 -0.33749,0.16793 c 0,0 -0.19204,0.10593 -0.37249,0.23098 -0.4848,0.33042 -0.51679,0.55375 -0.67626,0.56673 l -0.0598,0.005 c -0.40169,-0.12784 -0.74509,-1.63495 -0.82007,-1.93987 a 12.77,12.77 0 0 1 -0.28184,-1.98368 7.13,7.13 0 0 0 -1.54398,1.36977 c -0.65922,0.77603 -1.10102,1.6347 -1.30685,1.57119 v 0 c -0.1145,-0.0509 -0.0308,-0.37875 -0.17615,-0.80838 a 1.63,1.63 0 0 0 -0.55352,-0.6372 7.39,7.39 0 0 0 -0.75043,1.13462 c -0.5767,1.05024 -0.67499,2.06155 -0.84014,2.00476 v 0 c -0.11369,-0.0409 -0.11624,-0.44203 -0.37017,-0.97318 a 3.91,3.91 0 0 0 -0.6293,-0.95209 9.67,9.67 0 0 0 -0.818,1.29061 c -0.86448,1.70575 -0.92279,3.08503 -1.2816,3.11423 v 0 c -0.1859,-0.0651 -0.29379,-0.5279 -0.6825,-1.35911 a 13.32,13.32 0 0 0 -1.02961,-1.80242 13.08,13.08 0 0 0 -0.51854,3.61398 13.22,13.22 0 0 0 0.34304,2.982 c 0.88565,4.10167 3.3142,12.12109 3.42151,12.45348 a 1.39,1.39 0 0 0 0.46497,0.90527 1.11,1.11 0 0 0 0.25219,0.14 z"
       id="path68"
       style="fill:#3d7c2f"
       inkscape:transform-center-x="-26.730822"
       inkscape:transform-center-y="-70.087352" />
    <path
       class="m"
       d="m 127.79731,296.0401 0.7263,1.89734 -1.16941,3.50642 a 0.29,0.29 0 0 0 0.19111,0.37573 0.29,0.29 0 0 0 0.37574,-0.19111 l 1.16779,-3.52635 1.70298,-1.14191 a 0.29,0.29 0 0 0 0.0872,-0.40842 0.27,0.27 0 0 0 -0.15089,-0.12818 0.34,0.34 0 0 0 -0.25915,0.0211 l -1.48753,0.95382 -0.62629,-1.65465 a 0.32,0.32 0 0 0 -0.18485,-0.17558 0.35,0.35 0 0 0 -0.19934,0.0162 0.3,0.3 0 0 0 -0.17361,0.45558 z"
       id="path70"
       style="fill:#b26102"
       inkscape:transform-center-x="-14.932704"
       inkscape:transform-center-y="-29.467007" />
    <path
       class="m"
       d="m 131.31075,285.83145 a 0.29,0.29 0 0 0 0.41861,-0.0341 l 1.63901,-1.55809 0.42173,2.22312 a 0.3,0.3 0 0 0 0.35001,0.23237 0.29,0.29 0 0 0 0.24234,-0.35082 l -0.51966,-2.68669 1.71946,-5.37721 a 0.3,0.3 0 0 0 -0.19111,-0.37574 0.3,0.3 0 0 0 -0.37574,0.19111 l -1.71946,5.37721 -1.98264,1.89709 a 0.29,0.29 0 0 0 -0.003,0.46173 z"
       id="path72"
       style="fill:#b26102"
       inkscape:transform-center-x="-19.1966"
       inkscape:transform-center-y="-45.870488" />
    <path
       class="n"
       d="m 142.05807,273.15784 a 0.5,0.5 0 0 1 -0.20989,-0.11335 c 0,0 -0.005,-0.0598 -0.10755,-0.21197 a 3.71,3.71 0 0 0 -0.34072,-0.73478 4.44,4.44 0 0 0 -0.45814,-0.57473 l -0.006,-0.0698 a 1.06,1.06 0 0 1 0.25127,-0.24118 v 0 a 11,11 0 0 0 1.96259,-2.26668 17.28,17.28 0 0 1 5.9959,-5.59483 0.64,0.64 0 0 0 0.0268,0.32891 0.62,0.62 0 0 0 0.40042,0.3587 2.09,2.09 0 0 0 1.10634,-0.09 9.87,9.87 0 0 1 1.30186,-0.27652 5.87,5.87 0 0 1 1.66913,0.0447 15.75,15.75 0 0 1 -1.02094,1.87902 c -0.7014,1.12059 -1.00899,1.28609 -1.26327,1.36698 a 1.84,1.84 0 0 1 -0.65782,0.0535 c -0.16944,0.0138 -0.705,-0.0329 -0.83469,0.46926 -0.12969,0.50217 0.0617,0.75749 1.21018,1.18573 l -0.13954,0.0114 a 12.48,12.48 0 0 1 -1.88377,0.15332 l -0.35881,0.0292 a 0.63,0.63 0 0 0 -0.67464,0.58666 0.6,0.6 0 0 0 0.44226,0.62619 2.93,2.93 0 0 0 0.38848,0.0888 8.58,8.58 0 0 1 1.37047,0.31988 l 0.0797,-0.006 c 0.27885,0.0977 0.54935,0.21615 0.6846,0.27537 -0.27954,0.26355 -0.56071,0.50716 -0.86181,0.75239 a 15.38,15.38 0 0 1 -1.57341,1.13137 5.63,5.63 0 0 1 -0.96993,0.41003 5.55,5.55 0 0 1 -1.05268,0.25624 12.12,12.12 0 0 1 -2.53383,0.0557 l -1.542,-0.0852 v 0 a 1.07,1.07 0 0 1 -0.39601,-0.0581"
       id="path74"
       style="fill:#30ac5a"
       inkscape:transform-center-x="-33.092671"
       inkscape:transform-center-y="-59.788933" />
    <path
       class="o"
       d="m 136.28927,269.09241 c 0,0 0,0 -0.0598,0.005 a 0.78,0.78 0 0 1 -0.25392,-0.53115 l -0.006,-0.0797 c -0.006,-0.0797 -2.51025,-8.28366 -3.40749,-12.40446 a 13.38,13.38 0 0 1 -0.32252,-2.85324 12.41,12.41 0 0 1 0.17663,-2.02099 l 0.22913,0.47297 c 0.13316,0.28012 0.23318,0.52281 0.3092,0.71728 0.21081,0.49453 0.34884,0.83446 0.72898,0.94398 v 0 a 0.86,0.86 0 0 0 0.23411,0.0411 c 0.61796,-0.0503 0.79343,-0.60636 0.99822,-1.29524 a 12.41,12.41 0 0 1 0.83446,-2.07453 c 0.0967,-0.1684 0.19251,-0.34676 0.29913,-0.51597 a 1.21,1.21 0 0 1 0.0114,0.13954 3.11,3.11 0 0 1 0.21139,0.62491 0.88,0.88 0 0 0 0.52929,0.7094 l 0.1495,-0.0122 c 0.56627,0.0542 0.74336,-0.48189 0.92289,-0.98813 a 8.82,8.82 0 0 1 0.55318,-1.33928 c 0.0783,-0.14684 0.15669,-0.29368 0.24582,-0.43137 a 1.23,1.23 0 0 1 0.0219,0.26911 0.77,0.77 0 0 0 0.43205,0.74742 v 0 c 0.5461,0.17628 0.86088,-0.27073 1.29225,-0.88776 0.19899,-0.26702 0.41467,-0.57553 0.66188,-0.86655 a 7.16,7.16 0 0 1 0.60162,-0.62085 c 0.026,0.31895 0.11172,0.63303 0.18079,0.9886 0.43402,1.88099 0.84603,2.25881 1.19708,2.38074 a 0.58,0.58 0 0 0 0.26401,0.0387 0.84,0.84 0 0 0 0.6343,-0.34259 l 0.10152,-0.10859 c 0.01,0.1196 0.0195,0.23921 0.0284,0.34884 0.009,0.10964 -0.0349,0.43427 -0.0569,0.65679 -0.0575,0.52639 -0.13548,0.92403 -0.19169,1.21957 -0.0931,0.45906 -0.19205,0.96877 0.30827,1.19894 v 0 0 c 0.44319,0.14452 0.71624,-0.19876 0.89854,-0.42429 a 4.34,4.34 0 0 1 0.55503,-0.57693 l 0.26367,-0.21208 a 0.45,0.45 0 0 1 0.009,0.10963 2,2 0 0 1 -0.0184,0.51319 0.86,0.86 0 0 0 0.37016,0.97318 l 0.0797,-0.006 a 0.81,0.81 0 0 0 0.8027,-0.24593 v 0 a 1.38,1.38 0 0 1 -0.12007,0.25057 0.86,0.86 0 0 0 -0.0285,1.00563 0.8,0.8 0 0 0 0.3077,0.20571 0.94,0.94 0 0 0 0.56812,-0.0462 l 0.13954,-0.0114 -0.18555,0.18566 a 0.85,0.85 0 0 0 -0.33888,0.89043 0.74,0.74 0 0 0 0.45755,0.44435 1.23,1.23 0 0 0 0.38524,0.0489 1.36,1.36 0 0 1 0.43751,0.0747 0.94,0.94 0 0 1 0.22901,0.10176 7.83,7.83 0 0 1 -0.67429,0.83746 l -0.0741,0.0763 c -0.22136,0.23874 -0.55259,0.60682 -0.29763,1.02753 a 0.66,0.66 0 0 0 0.35406,0.28221 1.08,1.08 0 0 0 0.68773,-0.056 l -0.23423,0.45049 a 8.05,8.05 0 0 1 -2.49316,2.65098 34.85,34.85 0 0 0 -2.91561,2.51481 17.52,17.52 0 0 0 -2.98213,3.42319 l -1.10045,1.76509 v 0 0 c -0.11172,0.22982 -0.21487,0.31848 -0.27386,0.33331 a 1.72,1.72 0 0 1 -0.21232,-0.14324 3.44,3.44 0 0 0 -0.92253,-0.48677 v 0 a 3.3,3.3 0 0 0 -1.22386,-0.12112 1.18,1.18 0 0 1 -0.36878,0.03 v 0"
       id="path76"
       style="fill:#069951"
       inkscape:transform-center-x="-26.399727"
       inkscape:transform-center-y="-69.840289" />
    <path
       class="m"
       d="m 134.24148,292.25487 a 5.17,5.17 0 0 0 0.10514,-3.2693 2.89,2.89 0 0 0 -1.7543,-1.95413 v 0 a 2.94,2.94 0 0 0 -2.55284,0.43853 5.46,5.46 0 0 0 -2.1083,5.90048 2.93,2.93 0 0 0 1.76427,1.95331 v 0 a 2.61,2.61 0 0 0 1.0827,0.11255 3.35,3.35 0 0 0 1.46933,-0.56105 5.16,5.16 0 0 0 1.994,-2.62039 z m -2.31955,2.1954 a 2.72,2.72 0 0 1 -1.2059,0.46937 1.9,1.9 0 0 1 -0.82946,-0.083 v 0 a 2.37,2.37 0 0 1 -1.38298,-1.58303 5,5 0 0 1 1.87975,-5.38022 2.33,2.33 0 0 1 2.03536,-0.38639 v 0 a 2.38,2.38 0 0 1 1.39294,1.58222 5,5 0 0 1 -1.88971,5.38103 z"
       id="path78"
       style="fill:#b26102"
       inkscape:transform-center-x="-16.948959"
       inkscape:transform-center-y="-36.98408" />
    <path
       class="n"
       d="m 131.85334,271.04871 v 0 a 8.84,8.84 0 0 1 -1.97045,-1.40479 l -0.17164,-0.13652 -1.6019,-1.31439 c -1.62184,-1.31276 -2.00823,-1.62243 -2.48421,-2.41644 a 9.08,9.08 0 0 1 -0.81196,-1.8402 8.23,8.23 0 0 1 -0.23955,-1.09417 4.29,4.29 0 0 1 0.69514,0.40494 1.47,1.47 0 0 0 0.40981,0.22751 0.63,0.63 0 0 0 0.63383,-0.10175 c 0.43334,-0.3463 0.20259,-0.8392 0.033,-1.19663 a 5.75,5.75 0 0 1 -0.41896,-1.07957 2.89,2.89 0 0 1 -0.0235,-0.28904 l 0.0846,0.0533 0.14846,0.0983 a 0.64,0.64 0 0 0 0.26378,0.15913 0.64,0.64 0 0 0 0.46845,-0.0381 c 0.52038,-0.26308 0.36693,-0.79238 0.17629,-1.40894 -0.013,-0.15948 -0.0973,-0.3332 -0.14186,-0.51018 -0.0445,-0.17697 -0.11681,-0.57241 -0.24256,-1.25445 q -0.14057,-0.74104 -0.24128,-1.48533 a 7.15,7.15 0 0 1 1.19847,0.7954 c 0.22553,0.18231 0.42116,0.36705 0.61679,0.55179 a 3.3,3.3 0 0 0 1.06972,0.81591 1,1 0 0 0 0.68772,-0.056 1,1 0 0 0 0.52675,-0.55456 l 0.14916,-0.26297 c 0.68829,2.66294 1.40231,4.9024 2.00681,6.65915 0.20896,0.59501 0.35974,1.21483 0.52291,1.86373 a 16.23,16.23 0 0 0 0.56093,1.96096 l 0.0801,0.24431 a 8.3,8.3 0 0 1 0.36078,1.10437 0.81,0.81 0 0 1 0.0349,0.42858 l -0.14951,0.0122 a 3.38,3.38 0 0 0 -0.97723,0.32033 3.25,3.25 0 0 0 -0.79911,0.53659 0.82,0.82 0 0 1 -0.1896,0.13583 0.34,0.34 0 0 1 -0.25914,0.0211"
       id="path80"
       style="fill:#30ac5a"
       inkscape:transform-center-x="-15.210588"
       inkscape:transform-center-y="-64.430564" />
    <path
       class="m"
       d="m 132.44778,289.20031 a 0.39,0.39 0 0 1 0.0932,-0.0879 0.28,0.28 0 0 1 0.36021,0.11115 3.47,3.47 0 0 1 -1.02177,4.45758 0.27,0.27 0 0 1 -0.36611,-0.0605 0.27,0.27 0 0 1 0.0605,-0.36612 3,3 0 0 0 1.15108,-1.75917 3,3 0 0 0 -0.28184,-1.98368 0.24,0.24 0 0 1 0.005,-0.31141 z"
       id="path82"
       style="fill:#b26102"
       inkscape:transform-center-x="-18.191403"
       inkscape:transform-center-y="-36.759014" />
    <path
       class="m"
       d="m 127.31536,304.78803 a 19.52,19.52 0 0 0 3.96863,-1.6574 17.22,17.22 0 0 0 1.90742,-1.21875 24.39,24.39 0 0 0 2.89915,-2.59373 24.77,24.77 0 0 0 2.47149,-3.04051 38.39,38.39 0 0 0 2.86174,-6.01196 27.84,27.84 0 0 0 2.19003,-11.67614 24.37,24.37 0 0 0 -0.625,-4.47405 2.61,2.61 0 0 1 -1.45518,0.11844 0.93,0.93 0 0 1 -0.32602,-0.18416 c -0.28267,-0.26795 -0.15263,-0.51933 -0.51596,-1.16197 -0.36333,-0.64265 -0.80327,-0.7473 -0.88289,-1.23244 -0.0796,-0.48515 0.4323,-1.09869 0.27978,-1.24681 v 0 c -0.18589,-0.0651 -0.70859,0.53926 -1.44591,0.47887 l -0.20931,0.017 a 5.71,5.71 0 0 0 -0.7218,-0.36264 l -0.1196,0.01 c -0.6773,-0.18567 -0.92184,0.0148 -1.29363,-0.11544 l -0.15519,-0.0576 c -0.53427,-0.27757 -0.66025,-0.83921 -0.81462,-0.88684 v 0 c -0.25914,0.0211 0.09,1.10634 -0.46985,1.62347 -0.26123,0.24198 -0.42372,0.0947 -1.17415,0.36645 -0.75042,0.27177 -0.81312,0.48757 -1.27427,0.6154 a 2.27,2.27 0 0 1 -1.29039,-0.0756 4.83,4.83 0 0 1 -0.46717,-0.19274 43.92,43.92 0 0 0 -3.21347,4.5256 33.74,33.74 0 0 0 -4.66059,11.64645 20.7,20.7 0 0 0 -0.15975,7.89899 17.58,17.58 0 0 0 0.86572,3.24046 26.05,26.05 0 0 0 2.23526,4.90483 c 0.28058,0.48885 0.083,1.75907 -0.34852,3.73057 0.6343,-1.20543 1.2146,-2.82785 1.94405,-2.98755 z m -1.08837,-1.04515 a 26.41,26.41 0 0 1 -2.17974,-4.83913 17,17 0 0 1 -0.84683,-3.13162 18.33,18.33 0 0 1 -0.18089,-4.81119 l 3.24832,1.08006 a 0.3,0.3 0 0 0 0.37574,-0.19111 0.3,0.3 0 0 0 -0.19192,-0.38571 L 123.0805,290.354 c 0.0889,-0.88011 0.22739,-1.64387 0.32823,-2.25406 a 29.25,29.25 0 0 1 0.93066,-3.72778 l 2.24745,0.74012 a 0.3,0.3 0 0 0 0.3857,-0.19192 0.3,0.3 0 0 0 -0.19111,-0.37573 l -2.25741,-0.73932 a 32.71,32.71 0 0 1 2.36871,-5.28958 l 1.91795,0.63651 a 0.30463092,0.30463092 0 1 0 0.19378,-0.57762 l -1.81422,-0.59479 c 0.28,-0.50438 0.5541,-0.95811 0.79157,-1.36873 a 42.12,42.12 0 0 1 2.80088,-4.17095 l 0.0897,-0.007 a 2.84,2.84 0 0 0 1.63251,0.0879 2.27,2.27 0 0 0 0.66664,-0.31512 3.46,3.46 0 0 1 0.6467,-0.3135 3.3,3.3 0 0 1 0.63893,-0.16236 1.28,1.28 0 0 0 0.74556,-0.33158 1.57,1.57 0 0 0 0.4491,-0.76896 1.33,1.33 0 0 0 0.20073,0.12412 l 0.23898,0.10095 a 1.8,1.8 0 0 0 0.70824,0.0728 1.51,1.51 0 0 1 0.6161,0.0502 l 0.0997,-0.008 a 1.35,1.35 0 0 1 0.33436,0.16342 1.33,1.33 0 0 0 0.73362,0.26135 2,2 0 0 0 0.63789,-0.0519 1.9,1.9 0 0 0 0.0276,0.33888 1.47,1.47 0 0 0 0.51237,0.87131 2.38,2.38 0 0 1 0.44654,0.5556 2.58,2.58 0 0 1 0.22646,0.56349 1.37,1.37 0 0 0 0.41212,0.74904 1.61,1.61 0 0 0 0.52674,0.30828 2.6,2.6 0 0 0 1.19744,0.043 24.18,24.18 0 0 1 0.4777,3.77368 c 0.0251,0.30898 0.0495,0.60799 0.024,0.91106 l -4.3098,-1.42508 a 0.3,0.3 0 0 0 -0.37574,0.19111 0.29,0.29 0 0 0 0.19111,0.37573 l 4.4957,1.49022 a 24.28,24.28 0 0 1 -0.73052,5.44721 l -2.81997,-0.99452 a 0.3,0.3 0 0 0 -0.3857,0.19193 0.3,0.3 0 0 0 0.19111,0.37573 l 2.87062,1.00043 a 40.81,40.81 0 0 1 -1.30965,3.87902 c -0.30388,0.82738 -0.65946,1.7593 -1.11065,2.74916 l -3.52658,-1.04737 a 0.3,0.3 0 0 0 -0.37574,0.19111 0.32,0.32 0 0 0 0.19192,0.3857 l 3.42101,1.10613 a 22.76,22.76 0 0 1 -1.17844,2.16273 24.67,24.67 0 0 1 -2.66887,3.32747 25.55,25.55 0 0 1 -3.35161,2.95161 14,14 0 0 1 -1.30035,0.78808 19.42,19.42 0 0 1 -3.88218,1.61024 1.45,1.45 0 0 0 -0.68842,0.41722 1.74,1.74 0 0 0 -0.17268,-0.88893 z"
       id="path84"
       style="fill:#b26102"
       inkscape:transform-center-x="-18.769827"
       inkscape:transform-center-y="-39.531775" />
  </g>
  <g
     inkscape:groupmode="layer"
     id="layer1"
     inkscape:label="Layer 1"
     style="display:none"
     sodipodi:insensitive="true">
    <path
       class="i"
       d="m 170.66855,134.35899 c 2.92,-3 8.14,-9.24 9.15,-18.13 1.48,-13 -7,-22.779999 -13.48,-30.279999 -4.9,-5.66 -13.86,-16 -19.36,-13.77 -8.84,3.61 -2.92,37.409999 -2.31,40.839999 a 123.79,123.79 0 0 0 4.5,17.43"
       id="path48"
       style="fill:#5e5a5c" />
    <path
       class="j"
       d="m 185.77855,192.97899 c -1.9,-3.36 -7.84,-4.86 -13.22,-1.69 a 36.55,36.55 0 0 0 -4.18,-2.8 33.11,33.11 0 0 0 15.45,-24.29 c 1.06,-10 -2.51,-22.66 -13.16,-29.46 -9.1,-5.8 -18.79,-4.39 -21.5,-3.9 a 133.17,133.17 0 0 0 -9.48,-30.24 c -6.07,-13.429999 -12.68,-28.079999 -20.52,-27.819999 -8.79,0.29 -17.84,19.33 -16.21,36.099999 1.84,18.91 16.79,30.07 19.86,32.27 a 40.62,40.62 0 0 0 -4,11.17 c -0.59,3 -3,15 3.22,25.57 a 30.53,30.53 0 0 0 7.83,8.71 v 0 a 36.27,36.27 0 0 0 -7,13.06 33.74,33.74 0 0 0 -1.16,5.66 82.73,82.73 0 0 0 12.59,2.52 c 11.14,1.37 13.16,-0.63 21.93,1.09 8,1.57 10.43,4.08 13.7,2.23 a 9.69,9.69 0 0 0 4.33,-6.17 9.85,9.85 0 0 0 7.76,-1.21 c 3.45,-2.31 5.67,-7.44 3.76,-10.8 z"
       id="path50"
       style="fill:#737172" />
    <path
       class="i"
       d="m 124.80855,91.658991 c -2.71,-0.64 -12.68,12.449999 -9.51,25.579999 2.87,11.82 15.16,18.56 16.57,17.36 0.78,-0.65 -2.17,-3.33 -3.57,-9.83 -1.13,-5.21 0.23,-6 -0.21,-17.85 a 53.45,53.45 0 0 0 -1.24,-9.449999 c -0.84,-3.75 -1.25,-5.63 -2.04,-5.81 z"
       id="path52"
       style="fill:#5e5a5c" />
    <path
       class="d"
       d="m 131.37855,136.06899 a 5,5 0 0 1 -1.57,-0.29 24.5,24.5 0 0 1 -8.52,-5.78 26.81,26.81 0 0 1 -7.28,-12.4 c -2.56,-10.62 3,-21.089999 7,-25.199999 1.57,-1.59 2.94,-2.25 4.08,-2 v 0 c 1.6,0.38 2,2.14 3,6.83 a 56.26,56.26 0 0 1 1.27,9.689999 102.11,102.11 0 0 1 -0.13,11.21 19.32,19.32 0 0 0 0.31,6.41 26.58,26.58 0 0 0 2.82,7.42 c 0.75,1.41 1.46,2.74 0.31,3.71 a 2,2 0 0 1 -1.29,0.4 z m -7,-42.999999 a 11.91,11.91 0 0 0 -3.46,3.67 c -3.28,4.779999 -6.13,12.599999 -4.29,20.179999 2.16,9.08 9.98,14.68 13.38,16.1 a 29.25,29.25 0 0 1 -3,-8 22.25,22.25 0 0 1 -0.37,-7.14 94.82,94.82 0 0 0 0.13,-10.94 52.56,52.56 0 0 0 -1.21,-9.209999 35.63,35.63 0 0 0 -1.21,-4.66 z m 0.28,-0.11"
       id="path54"
       style="fill:#494546" />
    <path
       class="d"
       d="m 135.88855,140.25899 a 1.31,1.31 0 0 1 -1,-0.49 37.68,37.68 0 0 1 -6.52,-11.88 c -1.85,-5.67 -1.73,-10.09 -1.62,-14.78 0,-1.59 0.09,-3.22 0.05,-4.93 a 62.72,62.72 0 0 0 -5.5,-23.579999 1.33,1.33 0 0 1 2.44,-1 65.29,65.29 0 0 1 5.68,24.549999 c 0,1.77 0,3.44 0,5.06 -0.11,4.45 -0.22,8.65 1.49,13.88 a 34.73,34.73 0 0 0 6.06,11 1.32,1.32 0 0 1 -1,2.16 z"
       id="path56"
       style="fill:#494546" />
    <path
       class="i"
       d="m 159.53855,202.37899 a 7.61,7.61 0 0 1 12.65,-3.78 7.8,7.8 0 0 1 1.4,8.48 c -0.13,0.32 -1.9,4.36 -5.86,4.75 a 7.49,7.49 0 0 1 -5.82,-2.38 c -0.49,-0.53 -3.15,-3.3 -2.37,-7.07 z"
       id="path86"
       style="fill:#5e5a5c" />
    <path
       class="i"
       d="m 172.52855,191.13899 c 1.39,-1.54 3.3,-1.65 5.91,-1.79 2.28,-0.13 4,-0.22 5.57,0.92 2.57,1.92 2.36,5.7 2.33,6.35 a 9.28,9.28 0 0 1 -5.09,7.7 c -2.18,1.05 -5.5,1.45 -6.54,0.05 -0.82,-1.09 0.4,-2.44 -0.59,-4.31 -0.7,-1.35 -1.6,-1.15 -2.37,-2.38 a 5.84,5.84 0 0 1 0.78,-6.54 z"
       id="path88"
       style="fill:#5e5a5c" />
    <g
       id="g972"
       transform="translate(37.008547,57.598991)">
      <path
         class="d"
         d="m 141,102.89 a 0.94,0.94 0 0 0 -1.34,-0.13 l -2.33,1.92 -1.8,-2.13 a 1,1 0 0 0 -1.34,-0.11 0.94,0.94 0 0 0 -0.11,1.33 l 2.19,2.59 0.1,3.82 a 0.94,0.94 0 0 0 0.94,0.93 v 0 a 1,1 0 0 0 0.92,-1 l -0.09,-3.69 2.7,-2.22 a 1,1 0 0 0 0.16,-1.31 z"
         id="path58" />
      <path
         class="d"
         d="m 142.82,103.82 a 0.7,0.7 0 0 1 -0.49,-0.2 0.67,0.67 0 0 1 0,-0.94 10.19,10.19 0 0 1 8.4,-2.69 0.66,0.66 0 0 1 0.57,0.74 0.66,0.66 0 0 1 -0.75,0.57 9,9 0 0 0 -4.13,0.42 9.1,9.1 0 0 0 -3.18,1.92 0.62,0.62 0 0 1 -0.42,0.18 z"
         id="path90" />
      <path
         class="d"
         d="m 142.82,106.37 a 0.66,0.66 0 0 1 -0.3,-1.26 15.11,15.11 0 0 1 7.21,-1.67 14.68,14.68 0 0 1 2.94,0.36 0.68,0.68 0 0 1 0.5,0.8 0.67,0.67 0 0 1 -0.8,0.5 13.45,13.45 0 0 0 -2.67,-0.33 13.76,13.76 0 0 0 -6.58,1.53 0.66,0.66 0 0 1 -0.3,0.07 z"
         id="path92" />
      <path
         class="d"
         d="m 150.32,109.31 a 0.66,0.66 0 0 1 -0.27,-0.06 9.87,9.87 0 0 0 -2.59,-0.76 10.25,10.25 0 0 0 -4.65,0.43 0.66407831,0.66407831 0 1 1 -0.42,-1.26 11.28,11.28 0 0 1 8.2,0.37 0.67,0.67 0 0 1 -0.27,1.28 z"
         id="path94" />
      <path
         class="d"
         d="m 132,104.13 a 0.66,0.66 0 0 1 -0.45,-0.18 9.12,9.12 0 0 0 -3.18,-1.93 9,9 0 0 0 -4.13,-0.41 0.68,0.68 0 0 1 -0.75,-0.57 0.67,0.67 0 0 1 0.57,-0.75 10.27,10.27 0 0 1 8.4,2.69 0.67,0.67 0 0 1 0,0.94 0.67,0.67 0 0 1 -0.46,0.21 z"
         id="path96" />
      <path
         class="d"
         d="m 132,106.67 a 0.66,0.66 0 0 1 -0.3,-0.07 13.85,13.85 0 0 0 -6.58,-1.53 13.45,13.45 0 0 0 -2.67,0.33 0.6622122,0.6622122 0 1 1 -0.3,-1.29 14.69,14.69 0 0 1 2.94,-0.37 15.15,15.15 0 0 1 7.21,1.68 0.66,0.66 0 0 1 0.3,0.89 0.68,0.68 0 0 1 -0.6,0.36 z"
         id="path98" />
      <path
         class="d"
         d="m 124.47,109.61 a 0.66,0.66 0 0 1 -0.61,-0.4 0.66,0.66 0 0 1 0.34,-0.87 11.27,11.27 0 0 1 2.94,-0.86 11.49,11.49 0 0 1 5.26,0.48 0.66,0.66 0 0 1 0.42,0.84 0.66,0.66 0 0 1 -0.84,0.42 10.11,10.11 0 0 0 -4.65,-0.42 9.85,9.85 0 0 0 -2.59,0.75 0.66,0.66 0 0 1 -0.27,0.06 z"
         id="path100" />
    </g>
    <path
       class="i"
       d="m 115.42855,78.168991 c 0.74,-0.76 1.45,-1.56 2.21,-2.3 2,-1.94 2.92,-2.58 2.77,-2.91 -0.23,-0.5 -2.79,0.05 -4.22,0.58 -6.33,2.33 -9,10.8 -10.76,16.57 a 44.78,44.78 0 0 0 -2.18,20.209999 44.46,44.46 0 0 0 4.65,14.39 c 0.54,1 0.18,0.23 8.29,11 2.12,2.89 4.9,2.17 5.82,4.27 1.29,3 -1.16,6.07 -2.69,9.35 -5.44,11.73 1.07,25.27 1.69,26.55 4.65,9.37 13.63,14.09 14.35,13.38 0.87,-0.87 -11.17,-9 -12.92,-23 a 41,41 0 0 1 1.42,-17.58 c 1.63,-4.47 3.42,-6.09 2.78,-9 -0.94,-4.28 -5.57,-4.81 -10.58,-9.84 -4.3,-4.31 -5.91,-9 -7.27,-12.65 -4.28,-11.35 -1.61,-21.999999 -0.73,-24.999999 a 37.31,37.31 0 0 1 7.37,-14.02 z"
       id="path102"
       style="fill:#5e5a5c" />
    <path
       class="d"
       d="m 186.93855,191.93899 a 8.42,8.42 0 0 0 -5.42,-3.78 12.67,12.67 0 0 0 -7.77,0.68 l -2.89,-0.79 a 35.63,35.63 0 0 0 5.89,-5.31 33.59,33.59 0 0 0 8.4,-18.78 c 1,-9.12 -1.77,-22.16 -12.44,-29.82 a 32.26,32.26 0 0 0 8.43,-17.76 c 1.54,-13.56 -7.32,-23.809999 -13.8,-31.299999 -5.41,-6.26 -14.48,-16.74 -20.86,-14.13 -4.35,1.77 -6.15,8.9 -5.53,21.78 0.15,3 0.41,5.94 0.71,8.679999 -0.25,-0.58 -0.5,-1.16 -0.76,-1.729999 -6.42,-14.21 -13,-28.9 -21.77,-28.61 -2.76,0.09 -5.59,1.71 -8.21,4.7 -6.51,7.41 -10.41,21.23 -9.28,32.829999 a 43.27,43.27 0 0 0 9.75,23.11 54.73,54.73 0 0 0 9.73,9.44 41.77,41.77 0 0 0 -3.63,10.5 c -2.57,12.83 0.42,21.5 3.38,26.51 a 31.89,31.89 0 0 0 7.14,8.26 37.2,37.2 0 0 0 -6.44,12.48 36.49,36.49 0 0 0 -1.2,5.88 1.32,1.32 0 0 0 1,1.44 86.19,86.19 0 0 0 12.79,2.56 65.45,65.45 0 0 0 11.75,0.43 37.89,37.89 0 0 1 10.09,0.64 55.94,55.94 0 0 1 6.78,1.83 16.06,16.06 0 0 0 4.79,1.08 6,6 0 0 0 3,-0.83 10.94,10.94 0 0 0 4.62,-5.8 12.38,12.38 0 0 0 1.59,0.11 10.71,10.71 0 0 0 5.95,-1.73 c 3.88,-2.58 6.58,-8.38 4.21,-12.57 z m -39.46,-118.529999 c 1.86,-0.76 4.81,0.52 8.54,3.7 a 91.37,91.37 0 0 1 9.31,9.71 c 6.5,7.51 14.58,16.859999 13.17,29.249999 a 29.73,29.73 0 0 1 -8.05,16.6 32,32 0 0 0 -20.22,-3.73 135.57,135.57 0 0 0 -4.22,-16.24 170.07,170.07 0 0 1 -2.4,-20.099999 c -0.73,-15 2.11,-18.47 3.87,-19.19 z m 33.76,128.879999 a 8.22,8.22 0 0 1 -5.51,1.22 7.4,7.4 0 0 0 -0.88,-4.2 8.43,8.43 0 0 0 -5.42,-3.78 13.13,13.13 0 0 0 -10.18,1.95 1.33,1.33 0 0 0 1.44,2.23 10.49,10.49 0 0 1 8.11,-1.59 5.75,5.75 0 0 1 3.74,2.5 c 1.57,2.78 -0.53,7.43 -3.3,9 -1.47,0.83 -2.62,0.53 -5.7,-0.47 a 57.92,57.92 0 0 0 -7.09,-1.91 40.62,40.62 0 0 0 -10.7,-0.69 62.12,62.12 0 0 1 -11.32,-0.41 84.26,84.26 0 0 1 -11.29,-2.17 34,34 0 0 1 7,-15.94 35.86,35.86 0 0 0 4.3,2.6 1.33,1.33 0 0 0 1.21,-2.36 30.86,30.86 0 0 1 -12.46,-11.44 c -2.72,-4.61 -5.46,-12.63 -3,-24.64 a 38.91,38.91 0 0 1 3.82,-10.79 1.34,1.34 0 0 0 -0.4,-1.71 c -5.26,-3.76 -17.67,-14.34 -19.32,-31.33 -1.2,-12.279999 3.55,-25.059999 8.62,-30.839999 2.13,-2.42 4.3,-3.73 6.31,-3.8 3,-0.1 6.18,2.57 9.75,8.17 3.34,5.23 6.47,12.17 9.5,18.879999 a 129.21,129.21 0 0 1 4.92,12.59 124.1,124.1 0 0 0 4.52,17.52 v 0 0.07 a 0.17,0.17 0 0 1 0,0.05 0.43,0.43 0 0 0 0,0.07 v 0 a 0.21,0.21 0 0 0 0,0.06 v 0 0 0.05 0 0 0 0 h 0.05 v 0 h 0.06 v 0 h 0.07 v 0 h 0.07 v 0 h 0.07 0.49 c 3.45,-0.62 12.37,-1.51 20.56,3.72 a 26.22,26.22 0 0 1 9.29,10.3 5.72,5.72 0 0 0 -2,4.51 c 0,3 1.85,5.33 4.21,5.33 a 3.1,3.1 0 0 0 0.81,-0.11 32.83,32.83 0 0 1 0.2,8.17 c -1.35,12.77 -11.22,24 -24,27.26 a 32.82,32.82 0 0 1 -3.81,0.73 1.33,1.33 0 0 0 0.17,2.65 h 0.17 a 32,32 0 0 0 4.13,-0.79 34.63,34.63 0 0 0 8.66,-3.52 l 2.95,0.8 a 1.31,1.31 0 0 0 0.14,1.15 1.33,1.33 0 0 0 1.84,0.39 10.47,10.47 0 0 1 8.1,-1.59 5.73,5.73 0 0 1 3.74,2.51 c 2.32,3.35 0.22,7.71 -2.64,9.6 z"
       id="path108"
       style="fill:#494546" />
    <path
       class="d"
       d="m 159.22855,155.80899 c 2.37,0 4.22,-2.34 4.22,-5.33 0,-2.99 -1.85,-5.32 -4.22,-5.32 -2.37,0 -4.22,2.34 -4.22,5.32 0,2.98 1.86,5.33 4.22,5.33 z"
       id="path110"
       style="fill:#494546" />
    <g
       id="g963"
       transform="translate(37.008547,57.598991)">
      <path
         class="i"
         d="m 113.48,104.11 c -1.59,0.11 -1.77,2 -4.88,3.36 -1.82,0.83 -3.48,1 -3.45,1.2 a 12,12 0 0 0 3.15,-0.15 c 1.6,-0.19 2.1,-0.35 2.22,-0.14 0.29,0.49 -2,1.58 -3.1,4.08 -0.92,2.14 -0.54,4.49 -0.18,4.56 0.18,0 0.31,-0.49 1.08,-1.75 0.51,-0.86 1.4,-2.17 1.6,-2.08 0.2,0.09 -0.84,1.69 -0.51,3.42 a 4.64,4.64 0 0 0 1.8,2.66 c 0.37,-1.5 0.57,-1.77 0.68,-1.76 0.26,0 0.07,1.64 0.6,3.35 a 8.31,8.31 0 0 0 2.1,3.37 c -0.63,-2.34 -0.62,-2.92 -0.47,-3 0.39,-0.15 1.35,3.63 4.17,4.67 1.57,0.58 3.78,0.45 4.59,-0.7 0.81,-1.15 -0.41,-2.69 -1.74,-6.81 -1.63,-5.06 -0.73,-5.91 -2.39,-9.11 -0.57,-1.08 -2.75,-5.34 -5.27,-5.17 z"
         id="path106" />
      <path
         class="d"
         d="m 119.65,126.81 a 4.6,4.6 0 0 1 -1.58,-0.27 6.09,6.09 0 0 1 -2.81,-2.29 0.68,0.68 0 0 1 -0.33,0.55 0.66,0.66 0 0 1 -0.8,-0.1 8.75,8.75 0 0 1 -2.27,-3.65 8.5,8.5 0 0 1 -0.28,-1.22 l -0.15,0.07 a 0.65,0.65 0 0 1 -0.63,-0.1 5.23,5.23 0 0 1 -2,-3.07 5.29,5.29 0 0 1 -0.08,-0.78 c -0.2,0.35 -0.34,0.62 -0.46,0.84 -0.26,0.51 -0.52,1 -1.1,0.88 a 0.88,0.88 0 0 1 -0.61,-0.48 7,7 0 0 1 0.3,-5 9.31,9.31 0 0 1 2.31,-3.11 l -0.74,0.09 c -0.26,0 -1.18,0.14 -2,0.19 -1,0.07 -1.73,0.12 -1.87,-0.57 0,-0.28 0,-0.66 0.67,-0.89 0.18,-0.07 0.42,-0.13 0.71,-0.22 a 21.62,21.62 0 0 0 2.46,-0.83 14.41,14.41 0 0 0 4.67,-3.21 0.66,0.66 0 0 1 0.94,0 0.67,0.67 0 0 1 0,0.94 16,16 0 0 1 -4.18,3.08 c 0.64,-0.08 1.06,-0.06 1.32,0.39 0.38,0.66 -0.21,1.21 -0.84,1.79 a 8.44,8.44 0 0 0 -2.23,2.88 6.7,6.7 0 0 0 -0.52,2.6 l 0.24,-0.4 c 0.31,-0.51 0.67,-1 1,-1.44 0.33,-0.44 0.88,-1.19 1.51,-0.88 0.63,0.31 0.37,1 0.22,1.39 a 4.81,4.81 0 0 0 -0.37,2.49 3.45,3.45 0 0 0 0.8,1.55 c 0.25,-0.79 0.55,-1.23 1.1,-1.18 0.55,0.05 0.72,0.72 0.78,1.47 a 10.61,10.61 0 0 0 0.39,2.34 5.4,5.4 0 0 0 0.25,0.67 0.71,0.71 0 0 1 0.49,-0.69 c 0.68,-0.27 1,0.36 1.45,1.15 0.59,1.1 1.58,2.93 3.19,3.5 a 5.15,5.15 0 0 0 4.06,-0.66 0.66206118,0.66206118 0 1 1 0.62,1.17 7.73,7.73 0 0 1 -3.63,1.01 z"
         id="path112" />
    </g>
  </g>
  <g
     inkscape:groupmode="layer"
     id="layer3"
     inkscape:label="Layer 2"
     style="display:inline">
    <ellipse
       style="fill:#171717;fill-opacity:0.309804;fill-rule:evenodd;stroke:none;stroke-width:6.46092;stroke-linecap:round;stroke-linejoin:round;paint-order:markers fill stroke;stop-color:#000000"
       id="path3515"
       cx="24.877611"
       cy="320.82611"
       rx="90.653244"
       ry="30.781704" />
    <g
       id="g3789"
       inkscape:transform-center-x="42.074454"
       inkscape:transform-center-y="-91.034859"
       transform="rotate(-56.459805,99.460615,347.36267)">
      <path
         id="path1340"
         style="mix-blend-mode:normal;fill:url(#linearGradient3760);fill-opacity:1;fill-rule:evenodd;stroke:none;stroke-width:7;stroke-linecap:round;stroke-linejoin:round;paint-order:markers fill stroke;stop-color:#000000"
         d="M 242.23268,234.43836 C 232.75628,300.40707 189.71709,343.25974 141.35452,339.99483 89.622973,336.50248 51.390218,281.56609 56.378425,207.67646 60.833785,141.67981 97.991449,89.102692 142.74036,81.111519 174.90468,124.43614 215.27049,184.4712 242.23268,234.43836 Z"
         sodipodi:nodetypes="csscc"
         inkscape:transform-center-x="-1.2152638"
         inkscape:transform-center-y="-128.82732" />
      <path
         id="path3503"
         style="mix-blend-mode:normal;fill:#ff80e5;fill-opacity:1;fill-rule:evenodd;stroke:none;stroke-width:7;stroke-linecap:round;stroke-linejoin:round;paint-order:markers fill stroke;stop-color:#000000"
         d="M 229.39529,278.95733 C 218.3947,302.87836 201.99972,320.94207 182.79664,331.04187 107.12075,305.15385 70.428194,180.5795 77.110249,134.52095 88.903405,113.17955 104.84399,96.755149 122.9119,87.754953 118.42475,115.87562 196.66383,271.19967 229.39529,278.95733 Z"
         sodipodi:nodetypes="ccccc"
         inkscape:transform-center-x="-4.9942768"
         inkscape:transform-center-y="-130.06928" />
      <path
         id="path3505"
         style="mix-blend-mode:normal;fill:#f2f2f2;fill-opacity:1;fill-rule:evenodd;stroke:none;stroke-width:7;stroke-linecap:round;stroke-linejoin:round;paint-order:markers fill stroke;stop-color:#000000"
         d="m 216.14822,301.59401 c -5.64453,7.67663 -11.97818,14.34459 -18.84595,19.87765 C 141.46578,303.42245 82.127601,152.3503 89.11423,116.29222 c 4.982605,-6.36414 10.402155,-12.02336 16.17053,-16.868275 -4.72524,26.104775 66.0002,195.079345 110.86346,202.170065 z"
         sodipodi:nodetypes="ccccc"
         inkscape:transform-center-x="-4.4784528"
         inkscape:transform-center-y="-129.01989" />
      <path
         id="path3507"
         style="mix-blend-mode:normal;fill:#4d4d4d;fill-opacity:0.246167;fill-rule:evenodd;stroke:none;stroke-width:7;stroke-linecap:round;stroke-linejoin:round;paint-order:markers fill stroke;stop-color:#000000"
         d="m 243.71493,220.32333 c -4.9882,73.88965 -50.62886,123.16384 -102.36041,119.6715 -16.62808,-1.12254 -31.86149,-7.56015 -44.713192,-18.23381 54.686802,15.3425 112.861292,7.88589 133.419852,-59.19348 10.85307,-7.76402 1.21261,-49.45355 13.65375,-42.24421 z"
         sodipodi:nodetypes="csccc"
         inkscape:transform-center-x="-22.527213"
         inkscape:transform-center-y="-99.303814" />
    </g>
    <path
       style="fill:#000000;stroke:none;stroke-width:1px;stroke-linecap:butt;stroke-linejoin:miter;stroke-opacity:1"
       d="m -98.546293,164.17949 c 45.230652,16.82604 81.226936,75.04803 80.319764,106.3825 C 32.035172,205.46067 67.500751,183.55648 113.82242,199.15333 74.701447,128.09893 -13.24425,132.499 -98.546293,164.17949 Z"
       id="path3643"
       sodipodi:nodetypes="cccc"
       inkscape:transform-center-x="74.027398"
       inkscape:transform-center-y="-167.40918" />
  </g>
</svg>
