<?xml version="1.0" encoding="UTF-8" standalone="no"?>
<svg
   xmlns:osb="http://www.openswatchbook.org/uri/2009/osb"
   xmlns:dc="http://purl.org/dc/elements/1.1/"
   xmlns:cc="http://creativecommons.org/ns#"
   xmlns:rdf="http://www.w3.org/1999/02/22-rdf-syntax-ns#"
   xmlns:svg="http://www.w3.org/2000/svg"
   xmlns="http://www.w3.org/2000/svg"
   xmlns:xlink="http://www.w3.org/1999/xlink"
   xmlns:sodipodi="http://sodipodi.sourceforge.net/DTD/sodipodi-0.dtd"
   xmlns:inkscape="http://www.inkscape.org/namespaces/inkscape"
   viewBox="0 0 279.68503 396.85037"
   version="1.1"
   id="svg114"
   sodipodi:docname="a18.svg"
   inkscape:version="1.0.2 (e86c870879, 2021-01-15)"
   width="74mm"
   height="105mm"
   inkscape:export-filename="/home/l3d/Downloads/r2r-Design/testanima/a08.png"
   inkscape:export-xdpi="175.74055"
   inkscape:export-ydpi="175.74055">
  <metadata
     id="metadata118">
    <rdf:RDF>
      <cc:Work
         rdf:about="">
        <dc:format>image/svg+xml</dc:format>
        <dc:type
           rdf:resource="http://purl.org/dc/dcmitype/StillImage" />
        <dc:title></dc:title>
      </cc:Work>
    </rdf:RDF>
  </metadata>
  <sodipodi:namedview
     pagecolor="#ffffff"
     bordercolor="#666666"
     borderopacity="1"
     objecttolerance="10"
     gridtolerance="10"
     guidetolerance="10"
     inkscape:pageopacity="0"
     inkscape:pageshadow="2"
     inkscape:window-width="1916"
     inkscape:window-height="2105"
     id="namedview116"
     showgrid="false"
     inkscape:zoom="4.7894342"
     inkscape:cx="120.28518"
     inkscape:cy="210.90208"
     inkscape:window-x="4480"
     inkscape:window-y="53"
     inkscape:window-maximized="0"
     inkscape:current-layer="layer2"
     units="mm"
     inkscape:document-rotation="0" />
  <defs
     id="defs4">
    <linearGradient
       inkscape:collect="always"
       id="linearGradient3483">
      <stop
         style="stop-color:#0066ff;stop-opacity:1"
         offset="0"
         id="stop3487" />
      <stop
         style="stop-color:#2ad4ff;stop-opacity:1"
         offset="1"
         id="stop3489" />
    </linearGradient>
    <linearGradient
       id="linearGradient3475"
       osb:paint="solid">
      <stop
         style="stop-color:#ff0000;stop-opacity:1;"
         offset="0"
         id="stop3473" />
    </linearGradient>
    <style
       id="style2">.a{fill:#181716;opacity:0.31;}.b{fill:#20032a;}.c{fill:#d10369;}.d{fill:#494546;}.e{fill:#232322;}.f{fill:#3a3a39;}.g{fill:#2c053a;}.h{fill:#e10880;}.i{fill:#5e5a5c;}.j{fill:#737172;}.k{fill:#ee7400;}.l{fill:#3d7c2f;}.m{fill:#b26102;}.n{fill:#30ac5a;}.o{fill:#069951;}</style>
    <linearGradient
       inkscape:collect="always"
       xlink:href="#linearGradient3483"
       id="linearGradient3760"
       gradientUnits="userSpaceOnUse"
       x1="68.199944"
       y1="265.48984"
       x2="230.18843"
       y2="11.386665"
       gradientTransform="rotate(3.8621139,-915.00028,345.52979)" />
  </defs>
  <g
     inkscape:groupmode="layer"
     id="layer2"
     inkscape:label="bg"
     style="display:inline">
    <ellipse
       class="a"
       cx="139.64854"
       cy="313.95898"
       rx="73.989998"
       ry="28.34"
       id="ellipse6"
       style="opacity:0.31;fill:#181716" />
    <path
       class="b"
       d="m 89.970626,233.41526 c -0.642279,8.97018 -1.43882,21.28729 -2.112307,35.97139 -1.616684,35.26793 -0.440843,38.41859 0.964062,40.77281 15.106519,25.32764 92.725739,17.54076 102.455729,-9.26325 1.79445,-4.94616 0.27133,-7.73365 -4.68537,-35.25107 -2.75886,-15.38399 -4.72277,-28.0837 -5.99097,-36.68979"
       id="path8"
       style="fill:#20032a"
       inkscape:transform-center-x="-2.0222167"
       inkscape:transform-center-y="-47.430743" />
    <path
       class="c"
       d="m 87.237886,221.99786 a 17.64,17.64 0 0 0 0.504057,10.89018 166.61,166.61 0 0 0 95.233457,-4.72757 c 1.18995,-4.68659 1.60975,-10.12504 -0.90808,-14.81228 -12.26104,-22.85617 -87.242945,-15.66078 -94.829434,8.64967 z"
       id="path10"
       style="fill:#d10369"
       inkscape:transform-center-x="2.2548641"
       inkscape:transform-center-y="-106.11402" />
    <path
       class="d"
       d="m 132.77379,200.94442 c 19.68005,-1.87434 42.29681,1.37243 48.4605,12.84848 l 0.24184,0.4854 c 0.52948,-0.33488 1.10147,-0.63243 1.66347,-0.92933 l -0.2399,-0.45546 c -3.00826,-5.6075 -9.79488,-9.8282 -19.61841,-12.199 -8.72449,-2.1112 -19.61453,-2.68941 -30.68939,-1.63228 -11.07485,1.05714 -21.46024,3.63293 -29.53154,7.28157 -8.48943,3.84605 -14.085988,8.72751 -16.297867,14.1917 0.576907,0.24326 1.153815,0.48653 1.759368,0.7079 4.64513,-11.53392 25.328999,-18.49366 44.251929,-20.29898 z"
       id="path12"
       style="fill:#494546"
       inkscape:transform-center-x="2.5670875"
       inkscape:transform-center-y="-114.80988" />
    <path
       class="b"
       d="m 83.437174,173.93296 c -3.009022,1.19674 -17.592561,6.88002 -19.356298,18.18746 -2.029088,12.62732 13.167358,23.69943 15.508904,25.35172 11.845205,8.3728 30.07323,7.13353 66.04699,4.32542 18.37607,-1.42923 31.94784,-3.38944 45.30047,-12.29999 4.44863,-2.95334 13.19491,-8.87028 12.35395,-15.20922 -0.74264,-5.59373 -8.70277,-8.74644 -20.19096,-13.30434 a 106.66,106.66 0 0 0 -27.35249,-7.51997 c -12.89061,-1.76153 -14.08972,0.14986 -34.08402,-0.20016 -23.996636,-0.41178 -28.268243,-3.24193 -38.226546,0.66908 z"
       id="path14"
       style="fill:#20032a"
       inkscape:transform-center-x="3.8967928"
       inkscape:transform-center-y="-126.80486" />
    <path
       class="e"
       d="m 130.70342,207.51177 c 21.63628,-0.137 44.57175,-8.07413 44.1668,-13.55943 -0.40494,-5.4853 -24.60839,-8.62943 -41.96386,-8.30839 -18.543,0.39785 -42.763785,5.04109 -42.862614,10.63914 -0.08503,5.34665 21.418084,11.36108 40.659674,11.22868 z"
       id="path16"
       style="fill:#232322"
       inkscape:transform-center-x="5.0586338"
       inkscape:transform-center-y="-128.13695" />
    <path
       class="f"
       d="m 136.38335,208.25666 c -1.88606,0.12201 -3.78532,0.19476 -5.6685,0.20635 -16.44033,0.0614 -35.246814,-4.2335 -40.253731,-9.29083 a 4,4 0 0 1 -1.377307,-2.85705 c 0.05805,-3.13028 5.180797,-5.88672 15.254308,-8.17177 a 151.15,151.15 0 0 1 28.54072,-3.38949 155.15,155.15 0 0 1 27.5318,1.92673 52.52,52.52 0 0 1 10.5273,2.71608 c 3.15044,1.29934 4.74802,2.75925 4.87032,4.49498 a 4.13,4.13 0 0 1 -1.32316,3.09186 c -4.43287,4.74606 -20.91767,10.16152 -38.10175,11.27314 z m -5.68074,-1.6868 c 18.3103,-0.12226 37.83386,-5.96478 42.38484,-10.89885 a 2.51,2.51 0 0 0 0.82542,-1.64672 c -0.0981,-1.51683 -3.80081,-3.76249 -13.82253,-5.47913 a 153.88,153.88 0 0 0 -27.17931,-1.89942 149.62,149.62 0 0 0 -28.1628,3.345 c -10.132093,2.30888 -13.71259,4.89541 -13.778011,6.36269 a 2.41,2.41 0 0 0 0.817269,1.48033 c 4.201026,4.21761 21.716382,8.84657 38.915122,8.7361 z"
       id="path18"
       style="fill:#3a3a39"
       inkscape:transform-center-x="5.0718667"
       inkscape:transform-center-y="-128.1102" />
    <path
       class="g"
       d="m 96.726184,234.83212 17.063686,2.6039 q -0.74681,43.13819 -1.43375,86.2725 a 67.06,67.06 0 0 1 -17.751761,-7.19907 z"
       id="path20"
       style="fill:#2c053a"
       inkscape:transform-center-x="33.321019"
       inkscape:transform-center-y="-45.434363" />
    <path
       class="g"
       d="m 159.20043,234.42831 5.77196,64.13116 q -0.27758,-32.32951 -0.56384,-64.63842 z"
       id="path22"
       style="fill:#2c053a"
       inkscape:transform-center-x="-24.568273"
       inkscape:transform-center-y="-58.464422" />
    <path
       class="f"
       d="m 138.69858,326.30342 a 96.64,96.64 0 0 1 -29.06319,-2.20846 c -10.452275,-2.64077 -17.957798,-7.28595 -21.632833,-13.44155 -0.798249,-1.34126 -1.470992,-2.91111 -1.742037,-8.49526 -0.297862,-6.15361 -0.07046,-16.58003 0.652659,-32.82059 0.55645,-12.00095 1.264821,-24.13198 2.111016,-35.99134 a 0.95,0.95 0 1 1 1.892862,0.13809 c -0.846195,11.85936 -1.556501,23.96046 -2.104264,35.94081 -1.53459,33.43881 -0.55489,37.89486 0.820077,40.25101 3.375903,5.71399 10.48157,10.06437 20.46447,12.57517 9.16779,2.30298 20.4641,2.96514 31.94745,1.87156 11.48336,-1.09358 22.36864,-3.842 30.87222,-7.77915 9.23329,-4.27496 15.27399,-9.72629 17.46774,-15.78053 1.23459,-3.37674 0.75516,-5.83091 -1.50861,-17.5893 -0.8461,-4.40457 -1.90291,-9.8978 -3.21499,-17.16827 -2.19368,-12.22388 -4.21483,-24.56916 -5.99097,-36.68978 a 1,1 0 0 1 0.80363,-1.05408 1,1 0 0 1 1.05408,0.80363 c 1.78547,12.11 3.78538,24.43661 5.99097,36.68979 1.30274,7.28109 2.35762,12.74439 3.20307,17.13897 2.35141,12.18362 2.83664,14.72761 1.4341,18.60624 -2.37362,6.52684 -8.75097,12.35067 -18.46097,16.84687 -8.68866,4.01927 -19.87943,6.84758 -31.49251,7.94955 -1.16017,0.035 -2.32643,0.13045 -3.50397,0.20662 z"
       id="path24"
       style="fill:#3a3a39"
       inkscape:transform-center-x="-2.0177764"
       inkscape:transform-center-y="-47.385646" />
    <path
       class="f"
       d="m 102.80042,179.24406 a 40.11,40.11 0 0 0 -8.112749,0.37449 31.7,31.7 0 0 0 -3.954215,0.83701 30.76,30.76 0 0 0 -3.807356,1.24838 47.64,47.64 0 0 0 -7.250778,3.47532 20.42,20.42 0 0 0 -3.144992,2.34792 9.59,9.59 0 0 0 -2.260911,3.00221 6.17,6.17 0 0 0 -0.518298,1.7471 7.42,7.42 0 0 0 -0.0016,1.83393 10,10 0 0 0 0.429424,1.83611 l 0.169403,0.45 a 3.53,3.53 0 0 0 0.179382,0.44936 l 0.198695,0.43809 0.218653,0.43679 a 18.43,18.43 0 0 0 2.215312,3.2638 27.38,27.38 0 0 0 2.75155,2.87838 36.27,36.27 0 0 0 3.119434,2.5239 38.49,38.49 0 0 0 3.380775,2.2264 c 1.157391,0.69674 2.350826,1.33102 3.562928,1.94405 1.212102,0.61303 2.459605,1.15363 3.717083,1.69358 -1.317004,-0.37577 -2.609238,-0.8333 -3.882802,-1.31209 -1.273564,-0.47878 -2.523646,-1.05929 -3.755706,-1.67103 a 36.5,36.5 0 0 1 -6.928962,-4.56223 26.65,26.65 0 0 1 -2.994278,-2.91278 19.09,19.09 0 0 1 -2.437785,-3.44983 l -0.251172,-0.47477 -0.221881,-0.4867 c -0.161011,-0.32027 -0.274062,-0.67371 -0.403845,-0.97596 a 11.13,11.13 0 0 1 -0.517998,-2.12099 8.8,8.8 0 0 1 -0.01423,-2.23374 7.86,7.86 0 0 1 0.630894,-2.17526 11,11 0 0 1 2.631672,-3.46712 19.72,19.72 0 0 1 3.427287,-2.47641 34.58,34.58 0 0 1 3.717433,-1.86386 c 1.266303,-0.56292 2.547749,-1.04665 3.841756,-1.49111 a 32.33,32.33 0 0 1 16.285267,-1.37415 z"
       id="path26"
       style="fill:#3a3a39"
       inkscape:transform-center-x="49.999589"
       inkscape:transform-center-y="-129.21453" />
    <path
       class="f"
       d="m 97.846804,184.61504 a 25.16,25.16 0 0 0 -10.324032,1.82025 30.79,30.79 0 0 0 -4.690817,2.30763 12.38,12.38 0 0 0 -2.016515,1.51333 5.91,5.91 0 0 0 -1.421236,1.88568 5.09,5.09 0 0 0 0.420868,4.4922 15.06,15.06 0 0 0 3.153808,3.98472 c 0.639418,0.58995 1.30619,1.13805 2.012234,1.67359 0.706044,0.53554 1.41884,1.02054 2.17026,1.483 0.751421,0.46245 1.521509,0.90366 2.309619,1.31364 0.78811,0.40998 1.584907,0.79936 2.401021,1.17746 a 26.51,26.51 0 0 1 -2.576073,-0.78534 c -0.842175,-0.3163 -1.666974,-0.6738 -2.493063,-1.05126 a 23.34,23.34 0 0 1 -4.60802,-2.91862 17.42,17.42 0 0 1 -2.005187,-1.87446 12.19,12.19 0 0 1 -1.631843,-2.29946 9.44,9.44 0 0 1 -0.606063,-1.31361 8.74,8.74 0 0 1 -0.353707,-1.44018 6.06,6.06 0 0 1 -0.009,-1.53261 5.38,5.38 0 0 1 0.434001,-1.50115 7.59,7.59 0 0 1 1.782018,-2.34994 13.51,13.51 0 0 1 2.298163,-1.6518 28,28 0 0 1 5.009854,-2.17795 20.75,20.75 0 0 1 5.36222,-1.06838 20.47,20.47 0 0 1 5.381446,0.31326 z"
       id="path28"
       style="fill:#3a3a39"
       inkscape:transform-center-x="49.827325"
       inkscape:transform-center-y="-129.44846" />
    <path
       class="f"
       d="m 168.44122,182.09262 a 59.93,59.93 0 0 1 7.88325,1.65456 41.92,41.92 0 0 1 7.59953,2.84535 19.19,19.19 0 0 1 3.50921,2.19805 12,12 0 0 1 1.54768,1.46314 7.71,7.71 0 0 1 1.19236,1.85691 5.45,5.45 0 0 1 0.46587,2.2446 7.06,7.06 0 0 1 -0.41746,2.22159 11.49,11.49 0 0 1 -2.30265,3.59614 27.44,27.44 0 0 1 -6.4982,5.04 50.56,50.56 0 0 1 -7.35057,3.48177 c -1.26085,0.49242 -2.52492,0.93494 -3.81088,1.34882 -0.64894,0.19229 -1.28726,0.39392 -1.96678,0.57817 l -0.98436,0.27412 -0.985,0.26413 a 76.84,76.84 0 0 1 -7.9136,1.59418 c 2.58966,-0.70865 5.15677,-1.45592 7.68685,-2.31103 l 0.98178,-0.31404 0.97983,-0.34397 c 0.6277,-0.21096 1.24347,-0.45121 1.86987,-0.68213 l 1.85666,-0.73138 c 0.61448,-0.26021 1.23026,-0.50046 1.8441,-0.77065 l 0.90546,-0.4093 0.90482,-0.41929 c 0.30226,-0.12978 0.59324,-0.27887 0.8942,-0.42862 0.30096,-0.14974 0.59324,-0.27887 0.88357,-0.43795 1.18389,-0.59767 2.34524,-1.23397 3.46344,-1.91758 a 34.67,34.67 0 0 0 3.25382,-2.21466 22.27,22.27 0 0 0 2.83817,-2.59864 10.4,10.4 0 0 0 2.0217,-3.13705 5.6,5.6 0 0 0 0.35059,-1.70619 4.22,4.22 0 0 0 -0.32799,-1.6623 7.73,7.73 0 0 0 -2.25934,-2.86011 16.38,16.38 0 0 0 -1.54763,-1.1525 c -0.53476,-0.36624 -1.09752,-0.70061 -1.66961,-1.02436 -1.14354,-0.63751 -2.34243,-1.20129 -3.54872,-1.72451 -1.2063,-0.52322 -2.46055,-1.01327 -3.72155,-1.45279 -2.4734,-0.90221 -5.03885,-1.67822 -7.62842,-2.36248 z"
       id="path30"
       style="fill:#3a3a39"
       inkscape:transform-center-x="-37.006304"
       inkscape:transform-center-y="-127.28129" />
    <path
       class="f"
       d="m 170.4757,187.67293 a 33,33 0 0 1 4.91734,0.88441 25.89,25.89 0 0 1 4.75943,1.69629 12.1,12.1 0 0 1 2.22239,1.35937 6,6 0 0 1 1.74514,2.19192 c 0.008,0.11975 0.0854,0.23498 0.12303,0.35279 l 0.0622,0.18638 0.0123,0.1896 a 2.33,2.33 0 0 1 0.0245,0.37921 l 0.0252,0.38919 a 4.69,4.69 0 0 1 -0.27562,1.47086 7.44,7.44 0 0 1 -1.47331,2.31995 16.82,16.82 0 0 1 -3.96928,3.08266 30.44,30.44 0 0 1 -4.59267,2.1209 40.94,40.94 0 0 1 -9.72229,2.29239 c 1.58082,-0.50309 3.16228,-0.99621 4.70865,-1.56723 1.54636,-0.57101 3.06889,-1.20061 4.56149,-1.82827 a 38.53,38.53 0 0 0 4.31161,-2.2831 21,21 0 0 0 1.91642,-1.35654 13.17,13.17 0 0 0 1.73194,-1.57509 6,6 0 0 0 1.20428,-1.83156 3,3 0 0 0 0.19877,-0.95482 l -0.0148,-0.22952 c -0.005,-0.0798 -0.0103,-0.15967 -0.0148,-0.22952 l -0.008,-0.11975 -0.008,-0.11975 -0.0747,-0.22565 a 4.69,4.69 0 0 0 -1.31111,-1.67887 12.18,12.18 0 0 0 -1.93041,-1.33817 31.39,31.39 0 0 0 -4.42084,-2.03887 c -1.55685,-0.52058 -3.12304,-1.03054 -4.70918,-1.53921 z"
       id="path32"
       style="fill:#3a3a39"
       inkscape:transform-center-x="-36.832507"
       inkscape:transform-center-y="-127.57379" />
    <path
       class="f"
       d="m 95.085355,208.38288 c 4.532141,1.59075 9.102565,2.99864 13.734745,4.12196 2.32976,0.54073 4.6489,1.07213 6.99892,1.46124 2.35002,0.38911 4.6994,0.76824 7.08288,1.05497 1.18047,0.12406 2.36223,0.26807 3.55074,0.36154 0.59394,0.0418 1.17983,0.11408 1.77312,0.14584 l 1.78115,0.11526 q 3.57969,0.18931 7.14776,0.199 c 4.76879,-0.0179 9.54076,-0.29651 14.32042,-0.76604 a 80.43,80.43 0 0 1 -14.29544,1.92685 l -1.80622,0.11684 c -0.59875,0.0387 -1.20137,0.0176 -1.80206,0.0264 l -0.9081,0.0587 -0.90328,-0.0217 -1.80593,-0.0335 q -3.62636,-0.13619 -7.22958,-0.53442 c -0.59523,-0.0617 -1.19239,-0.15335 -1.7889,-0.23501 l -0.89977,-0.12217 c -0.30324,-0.0405 -0.59651,-0.0817 -0.90105,-0.14213 -1.18564,-0.20389 -2.37996,-0.38717 -3.55949,-0.65158 l -1.768,-0.37665 c -0.58976,-0.13221 -1.17953,-0.26441 -1.77058,-0.41657 -1.1702,-0.27504 -2.33364,-0.60061 -3.48775,-0.93681 a 78.61,78.61 0 0 1 -13.463585,-5.35203 z"
       id="path34"
       style="fill:#3a3a39"
       inkscape:transform-center-x="14.237911"
       inkscape:transform-center-y="-111.91052" />
    <path
       class="f"
       d="m 101.69483,183.99534 a 88.23,88.23 0 0 1 11.66971,-3.16994 108.66,108.66 0 0 1 11.99025,-1.77773 104.34,104.34 0 0 1 12.11796,-0.42314 87.65,87.65 0 0 1 12.09246,1.04155 c -4.00909,-0.0112 -8.01624,0.008 -12.01564,0.14597 -1.99583,0.1291 -3.99812,0.15842 -5.99394,0.28753 -0.99792,0.0645 -1.99583,0.12911 -2.99375,0.19366 l -1.49687,0.0968 -1.49687,0.0968 q -5.9778,0.53701 -11.9343,1.40334 c -4.02313,0.70117 -7.97769,1.37786 -11.93901,2.1051 z"
       id="path36"
       style="fill:#3a3a39"
       inkscape:transform-center-x="11.888116"
       inkscape:transform-center-y="-143.40882" />
    <path
       class="h"
       d="m 96.707677,235.7853 17.082193,1.65072 0.4197,-13.49524 -17.080739,-0.69883 z"
       id="path38"
       style="fill:#e10880"
       inkscape:transform-center-x="32.059509"
       inkscape:transform-center-y="-94.365696" />
    <path
       class="f"
       d="m 126.50985,224.16722 c -23.2514,1.50411 -37.569461,1.06749 -47.482964,-5.94719 a 53.64,53.64 0 0 1 -9.583517,-8.72955 c -5.090782,-6.04398 -7.226393,-11.94843 -6.326005,-17.54823 1.219696,-7.63466 8.310569,-14.35643 19.950421,-18.91734 v 0 c 6.67503,-2.61636 10.984189,-2.30388 19.553265,-1.66572 4.72282,0.35587 10.59295,0.78783 18.96943,0.92738 8.60794,0.15465 13.70117,-0.1147 17.79585,-0.32948 a 71.94,71.94 0 0 1 16.44912,0.53927 107.39,107.39 0 0 1 27.60649,7.57368 c 12.0226,4.76383 19.97275,7.9172 20.79146,14.06717 0.92413,7.00496 -8.6732,13.39784 -12.76551,16.12771 -14.00734,9.32367 -28.40291,11.09667 -45.78171,12.45136 -6.97701,0.58161 -13.35849,1.07459 -19.17633,1.45094 z m -43.072676,-50.23426 0.348139,0.88938 c -10.994785,4.30874 -17.658895,10.50186 -18.7728,17.44825 -1.885021,11.75621 12.231983,22.40712 15.118266,24.425 11.340385,8.00463 28.254741,7.06077 65.404751,4.15653 17.10002,-1.32664 31.25674,-3.07416 44.87976,-12.1425 3.84447,-2.53346 12.7105,-8.45815 11.93176,-14.30007 -0.66658,-5.03747 -8.60675,-8.19148 -19.60045,-12.54087 a 105.78,105.78 0 0 0 -27.16835,-7.46173 71.32,71.32 0 0 0 -16.06798,-0.53386 c -4.12138,0.2666 -9.25776,0.48864 -17.93491,0.34849 -8.42702,-0.1463 -14.32773,-0.5863 -19.10045,-0.93894 -8.538491,-0.63012 -12.435278,-0.91917 -18.709555,1.54099 z"
       id="path40"
       style="fill:#3a3a39"
       inkscape:transform-center-x="3.9118663"
       inkscape:transform-center-y="-126.81039" />
    <path
       class="f"
       d="m 181.43621,214.28088 c 1.71189,3.53687 1.94732,7.95088 0.70049,13.15221 a 165.27,165.27 0 0 1 -47.64839,9.155 165.9,165.9 0 0 1 -46.018346,-4.52878 16.27,16.27 0 0 1 -0.323922,-9.80955 c 0.10778,-0.34768 0.235519,-0.69666 0.374528,-1.02632 -0.605554,-0.22137 -1.182461,-0.46463 -1.759368,-0.7079 -0.165073,0.39147 -0.300209,0.78101 -0.42472,1.17988 a 18.29,18.29 0 0 0 0.501582,11.47155 1,1 0 0 0 0.671291,0.61795 167.66,167.66 0 0 0 47.100315,4.67924 c 1.21745,-0.0787 2.43491,-0.15751 3.65236,-0.23626 a 167.38,167.38 0 0 0 45.01772,-9.23534 1,1 0 0 0 0.60862,-0.66067 c 1.51165,-5.90991 1.29477,-10.96646 -0.75264,-15.04279 -0.55813,0.35677 -1.12754,0.69423 -1.69952,0.99178 z"
       id="path42"
       style="fill:#3a3a39"
       inkscape:transform-center-x="2.2592693"
       inkscape:transform-center-y="-98.751972" />
    <ellipse
       class="g"
       cx="-232.00467"
       cy="213.02103"
       rx="24.860001"
       ry="18.15"
       transform="rotate(-73.231249)"
       id="ellipse44"
       style="fill:#2c053a"
       inkscape:transform-center-x="0.49098769"
       inkscape:transform-center-y="-41.106928" />
    <path
       class="j"
       d="m 164.52485,187.69713 -6.29552,-1.27626"
       id="path60"
       style="fill:#737172"
       inkscape:transform-center-x="-23.858953"
       inkscape:transform-center-y="-137.64568" />
    <path
       class="k"
       d="m 129.25427,305.31932 a 19.42,19.42 0 0 0 3.90838,-1.54552 16.2,16.2 0 0 0 1.73169,-1.11411 25.68,25.68 0 0 0 2.98528,-2.64824 26.5,26.5 0 0 0 2.36557,-2.7785 c 0.27419,-0.40856 0.5471,-0.83707 0.81678,-1.31547 0.26968,-0.47841 0.48594,-0.85315 0.68964,-1.26716 l -2.05135,-0.7291 a 0.3,0.3 0 0 1 -0.18484,-0.37886 0.31,0.31 0 0 1 0.38884,-0.18549 l 2.14245,0.74325 c 0.46756,-0.98223 0.87849,-1.9107 1.15615,-2.73033 a 40.81,40.81 0 0 0 1.3739,-3.85674 l -1.37335,-0.47233 a 0.30004166,0.30004166 0 1 1 0.20399,-0.56434 l 1.32282,0.46558 a 24.28,24.28 0 0 0 0.8209,-5.43433 l -4.47033,-1.56469 a 0.29,0.29 0 0 1 -0.18484,-0.37886 0.3,0.3 0 0 1 0.37885,-0.18484 l 4.28555,1.49647 c -0.0194,-0.29937 -0.0387,-0.59874 -0.009,-0.91132 a 24.18,24.18 0 0 0 -0.41495,-3.7811 2.6,2.6 0 0 1 -1.19656,-0.0629 1.61,1.61 0 0 1 -0.52155,-0.317 1.37,1.37 0 0 1 -0.39962,-0.75578 2.58,2.58 0 0 0 -0.21707,-0.56717 2.38,2.38 0 0 0 -0.43725,-0.56294 1.47,1.47 0 0 1 -0.49783,-0.8797 1.9,1.9 0 0 1 -0.0219,-0.33929 2,2 0 0 1 -0.63867,0.0413 1.33,1.33 0 0 1 -0.72918,-0.2735 1.35,1.35 0 0 0 -0.33159,-0.16894 l -0.0998,0.006 a 1.51,1.51 0 0 0 -0.61518,-0.0604 1.8,1.8 0 0 1 -0.70693,-0.0845 l -0.23727,-0.10491 a 1.33,1.33 0 0 1 -0.19864,-0.12744 1.57,1.57 0 0 1 -0.46181,0.7614 1.28,1.28 0 0 1 -0.75096,0.31915 3.3,3.3 0 0 0 -0.64155,0.15173 3.46,3.46 0 0 0 -0.65182,0.30271 2.27,2.27 0 0 1 -0.67177,0.304 2.84,2.84 0 0 1 -1.63083,-0.11497 l -0.0898,0.006 a 42.12,42.12 0 0 0 -2.86977,4.12386 c -0.24426,0.40661 -0.52586,0.85573 -0.81421,1.35539 l 1.8041,0.62484 a 0.30463092,0.30463092 0 1 1 -0.20335,0.57432 l -1.90711,-0.66828 a 32.71,32.71 0 0 0 -2.45625,5.24951 l 2.24482,0.77671 a 0.3,0.3 0 0 1 0.18484,0.37886 0.3,0.3 0 0 1 -0.38883,0.18548 l -2.23484,-0.77735 a 29.25,29.25 0 0 0 -0.99246,3.71181 c -0.11096,0.60843 -0.26212,1.36978 -0.36563,2.24829 l 3.34099,1.14672 a 0.3,0.3 0 0 1 0.18549,0.38884 0.3,0.3 0 0 1 -0.37886,0.18484 l -3.20128,-1.15576 a 18.33,18.33 0 0 0 0.15213,4.83026 17,17 0 0 0 0.7947,3.14526 26.41,26.41 0 0 0 2.09905,4.87466 1.74,1.74 0 0 1 0.20779,0.88844 1.45,1.45 0 0 1 0.66403,-0.42375 z m 1.49758,-10.92947 a 5,5 0 0 1 1.96886,-5.34825 2.33,2.33 0 0 1 2.0415,-0.35252 v 0 a 2.38,2.38 0 0 1 1.36647,1.60513 5,5 0 0 1 -1.97884,5.3489 2.72,2.72 0 0 1 -1.21353,0.44928 1.9,1.9 0 0 1 -0.82797,-0.0968 v 0 a 2.37,2.37 0 0 1 -1.35649,-1.60578 z"
       id="path62"
       style="fill:#ee7400"
       inkscape:transform-center-x="2.1161776"
       inkscape:transform-center-y="-35.870203" />
    <path
       class="l"
       d="m 144.6682,274.52005 a 0.5,0.5 0 0 1 -0.20797,-0.11682 c 0,0 -0.004,-0.0599 -0.10402,-0.21373 a 3.71,3.71 0 0 0 -0.32847,-0.74034 4.44,4.44 0 0 0 -0.44853,-0.58226 l -0.005,-0.0698 a 1.06,1.06 0 0 1 0.25524,-0.23697 v 0 a 11,11 0 0 0 1.99997,-2.23377 17.28,17.28 0 0 1 6.08801,-5.49447 0.64,0.64 0 0 0 0.0213,0.32932 0.62,0.62 0 0 0 0.39441,0.3653 2.09,2.09 0 0 0 1.10768,-0.0717 9.87,9.87 0 0 1 1.30627,-0.25485 5.87,5.87 0 0 1 1.66816,0.0725 15.75,15.75 0 0 1 -1.05201,1.86179 c -0.71992,1.10879 -1.03022,1.26916 -1.2858,1.34582 a 1.84,1.84 0 0 1 -0.65862,0.0426 c -0.16965,0.011 -0.70435,-0.0446 -0.84237,0.45533 -0.13801,0.49995 0.0491,0.75841 1.19032,1.20567 l -0.13971,0.009 a 12.48,12.48 0 0 1 -1.88606,0.12201 l -0.35925,0.0232 a 0.63,0.63 0 0 0 -0.68428,0.57537 0.6,0.6 0 0 0 0.43179,0.63345 2.93,2.93 0 0 0 0.38695,0.0952 8.58,8.58 0 0 1 1.36497,0.3426 l 0.0798,-0.005 c 0.27718,0.10233 0.54568,0.22525 0.67993,0.28671 -0.28389,0.25887 -0.56906,0.49777 -0.87419,0.73797 a 15.38,15.38 0 0 1 -1.59198,1.10508 5.63,5.63 0 0 1 -0.97661,0.39386 5.55,5.55 0 0 1 -1.0568,0.23872 12.12,12.12 0 0 1 -2.5344,0.0136 l -1.54037,-0.1108 v 0 a 1.07,1.07 0 0 1 -0.395,-0.0646 m -0.20334,0.57433 a 2,2 0 0 0 0.58718,0.0923 c 0.62516,0.0598 1.15857,0.0954 1.55099,0.12012 a 14.06,14.06 0 0 0 2.6963,-0.14435 6,6 0 0 0 1.16528,-0.26578 6.17,6.17 0 0 0 1.0339,-0.43766 14.81,14.81 0 0 0 1.67182,-1.11024 13.55,13.55 0 0 0 1.51468,-1.37063 c -0.19735,-0.10749 -0.42593,-0.23299 -0.67382,-0.34723 0,0 -0.40275,-0.18438 -0.81289,-0.32821 l -0.0898,0.006 a 14.24,14.24 0 0 0 -1.75127,-0.42784 v 0 c -0.005,-0.0699 1.1061,0.0587 2.41495,-0.15622 a 9.17,9.17 0 0 0 1.9713,-0.50832 c -2.05328,-0.75903 -2.60283,-1.04415 -2.57935,-1.14588 0.0235,-0.10173 0.51604,0.0768 1.10768,-0.0716 0.59165,-0.14851 0.87166,-0.46725 1.61154,-1.57732 a 18,18 0 0 0 1.39472,-2.60547 6.27,6.27 0 0 0 -2.57244,-0.26449 c -0.99469,0.11445 -1.97453,0.45842 -2.15932,0.3902 -0.006,-0.0898 0.25588,-0.22699 0.51881,-0.65485 a 2.14,2.14 0 0 0 0.28413,-0.71985 15.89,15.89 0 0 0 -1.58723,0.71395 c -5.05388,2.58164 -6.37853,6.42517 -8.26244,7.81969 -0.12392,0.0982 -0.52626,0.38477 -0.52168,0.76527 0.005,0.3805 0.27465,0.37305 0.60342,0.96306 0.32878,0.59 0.2419,0.79604 0.54068,1.07734 a 1.21,1.21 0 0 0 0.41724,0.25359 z"
       id="path64"
       style="fill:#3d7c2f"
       inkscape:transform-center-x="-12.613189"
       inkscape:transform-center-y="-55.201359" />
    <path
       class="l"
       d="m 134.49992,272.2417 v 0 a 8.84,8.84 0 0 1 -1.94685,-1.43732 l -0.16935,-0.13936 -1.57985,-1.34081 c -1.59981,-1.33952 -1.981,-1.65557 -2.44373,-2.45737 a 9.08,9.08 0 0 1 -0.78128,-1.85343 8.23,8.23 0 0 1 -0.22134,-1.098 4.29,4.29 0 0 1 0.68832,0.41643 1.47,1.47 0 0 0 0.40597,0.23428 0.63,0.63 0 0 0 0.63544,-0.0912 c 0.43903,-0.33905 0.2165,-0.83572 0.0529,-1.19591 a 5.75,5.75 0 0 1 -0.40097,-1.08638 2.89,2.89 0 0 1 -0.0187,-0.2894 l 0.0837,0.0547 0.14681,0.10073 a 0.64,0.64 0 0 0 0.26109,0.16348 0.64,0.64 0 0 0 0.46902,-0.0303 c 0.52468,-0.2544 0.38005,-0.78617 0.19967,-1.40582 -0.0103,-0.15966 -0.0918,-0.33477 -0.13336,-0.51246 -0.0416,-0.17769 -0.1073,-0.57427 -0.22169,-1.25831 q -0.12825,-0.74327 -0.21658,-1.48913 a 7.15,7.15 0 0 1 1.18509,0.8152 c 0.22248,0.18603 0.41501,0.37399 0.60755,0.56195 a 3.3,3.3 0 0 0 1.05601,0.83357 1,1 0 0 0 0.68856,-0.0445 1,1 0 0 0 0.53589,-0.54573 l 0.15351,-0.26045 c 0.64396,2.674 1.32068,4.92501 1.89592,6.69156 0.19904,0.5984 0.3395,1.22063 0.49188,1.87216 a 16.23,16.23 0 0 0 0.52827,1.97 l 0.076,0.24561 a 8.3,8.3 0 0 1 0.34238,1.11021 0.81,0.81 0 0 1 0.0278,0.4291 l -0.14969,0.01 a 3.38,3.38 0 0 0 -0.98242,0.30405 3.25,3.25 0 0 0 -0.80791,0.52325 0.82,0.82 0 0 1 -0.19183,0.13266 0.34,0.34 0 0 1 -0.25946,0.0168 m -0.19402,0.5637 a 0.93,0.93 0 0 0 0.67248,0.0166 c 0.31287,-0.12044 0.40651,-0.37702 1.03901,-0.66846 0.63251,-0.29144 1.0494,-0.19816 1.29336,-0.45444 0.44127,-0.45945 0.0355,-1.46535 -0.29592,-2.40592 -0.43255,-1.26471 -0.57957,-2.60802 -1.02145,-3.86211 a 78.09,78.09 0 0 1 -2.12079,-7.68914 3.58,3.58 0 0 0 -0.69779,0.67646 c -0.36078,0.46426 -0.34658,0.6838 -0.55162,0.76721 a 0.34,0.34 0 0 1 -0.25946,0.0168 c -0.38953,-0.13513 -0.86993,-0.74539 -1.5161,-1.28481 a 7.83,7.83 0 0 0 -2.30158,-1.34422 c 0.0529,0.81829 0.18829,1.67133 0.33684,2.57362 0.11505,0.69402 0.1782,1.05069 0.2349,1.30756 0.16042,0.62094 0.35688,1.17943 0.25967,1.2258 v 0 c 0,0 -0.10624,-0.0933 -0.27365,-0.20276 a 2,2 0 0 0 -0.39406,-0.20499 l -0.17416,-0.0589 a 4.24,4.24 0 0 0 -0.50994,-0.13737 4.53,4.53 0 0 0 0.14251,1.27346 c 0.2342,0.98694 0.6927,1.56855 0.56878,1.66676 -0.12392,0.0982 0,0 -0.0798,0.005 a 9.81,9.81 0 0 0 -1.19796,-0.70413 l -0.2672,-0.10297 c -0.19477,-0.0676 -0.36764,-0.10649 -0.48997,-0.13866 a 8.82,8.82 0 0 0 0.31777,2.12392 9,9 0 0 0 0.82765,1.95064 c 0.65496,1.1401 1.1633,1.40784 4.16428,3.95944 a 9.46,9.46 0 0 0 2.30357,1.68481 z"
       id="path66"
       style="fill:#3d7c2f"
       inkscape:transform-center-x="5.4081623"
       inkscape:transform-center-y="-60.02968" />
    <path
       class="l"
       d="m 138.96772,270.35936 c 0,0 0,0 -0.0599,0.004 a 0.78,0.78 0 0 1 -0.24507,-0.53529 l -0.005,-0.0798 c -0.005,-0.0798 -2.37231,-8.32422 -3.20098,-12.45935 a 13.38,13.38 0 0 1 -0.27508,-2.8582 12.41,12.41 0 0 1 0.21018,-2.01778 l 0.22123,0.47671 c 0.12849,0.2823 0.22447,0.52661 0.29725,0.72232 0.20257,0.49796 0.33493,0.84013 0.7132,0.95596 v 0 a 0.86,0.86 0 0 0 0.23339,0.045 c 0.61871,-0.04 0.80339,-0.59309 1.0196,-1.27848 a 12.41,12.41 0 0 1 0.86881,-2.06038 c 0.0994,-0.16677 0.19823,-0.34352 0.30765,-0.51093 a 1.21,1.21 0 0 1 0.009,0.13971 3.11,3.11 0 0 1 0.20098,0.62833 0.88,0.88 0 0 0 0.51744,0.7181 l 0.14969,-0.01 c 0.56528,0.0636 0.75126,-0.46948 0.93917,-0.97266 a 8.82,8.82 0 0 1 0.57534,-1.32991 c 0.0808,-0.14552 0.16155,-0.29104 0.25295,-0.42722 a 1.23,1.23 0 0 1 0.0174,0.26943 0.77,0.77 0 0 0 0.41958,0.75449 v 0 c 0.5431,0.18533 0.86526,-0.25639 1.30681,-0.86617 0.20341,-0.26368 0.42419,-0.56856 0.67619,-0.85543 a 7.16,7.16 0 0 1 0.61185,-0.61077 c 0.0207,0.31933 0.10119,0.63479 0.16435,0.99146 0.40271,1.88794 0.80839,2.27255 1.15736,2.40029 a 0.58,0.58 0 0 0 0.26333,0.0431 0.84,0.84 0 0 0 0.6399,-0.332 l 0.10332,-0.10689 c 0.008,0.11975 0.0155,0.2395 0.0226,0.34927 0.007,0.10977 -0.0421,0.43362 -0.0678,0.65574 -0.0662,0.52537 -0.15082,0.92166 -0.21193,1.21622 -0.10068,0.45745 -0.20811,0.96545 0.28832,1.2039 v 0 0 c 0.44072,0.15187 0.71944,-0.18683 0.90547,-0.40931 a 4.34,4.34 0 0 1 0.56453,-0.56762 l 0.26715,-0.20768 a 0.45,0.45 0 0 1 0.007,0.10977 2,2 0 0 1 -0.0269,0.51281 0.86,0.86 0 0 0 0.35395,0.97919 l 0.0798,-0.005 a 0.81,0.81 0 0 0 0.80667,-0.23256 v 0 a 1.38,1.38 0 0 1 -0.12421,0.24854 0.86,0.86 0 0 0 -0.0452,1.00501 0.8,0.8 0 0 0 0.30424,0.2108 0.94,0.94 0 0 0 0.56881,-0.0368 l 0.13971,-0.009 -0.18861,0.18255 a 0.85,0.85 0 0 0 -0.35363,0.88468 0.74,0.74 0 0 0 0.45011,0.45188 1.23,1.23 0 0 0 0.38438,0.0553 1.36,1.36 0 0 1 0.4362,0.082 0.94,0.94 0 0 1 0.22729,0.10555 7.83,7.83 0 0 1 -0.68811,0.82614 l -0.0753,0.075 c -0.2253,0.23503 -0.5626,0.59756 -0.31465,1.02244 a 0.66,0.66 0 0 0 0.34932,0.28805 1.08,1.08 0 0 0 0.68856,-0.0445 l -0.24168,0.44653 a 8.05,8.05 0 0 1 -2.53685,2.60921 34.85,34.85 0 0 0 -2.95698,2.46603 17.52,17.52 0 0 0 -3.03858,3.37319 l -1.12961,1.74656 v 0 0 c -0.11553,0.22793 -0.22014,0.31487 -0.27937,0.32872 a 1.72,1.72 0 0 1 -0.20991,-0.14676 3.44,3.44 0 0 0 -0.91431,-0.50202 v 0 a 3.3,3.3 0 0 0 -1.22168,-0.14143 1.18,1.18 0 0 1 -0.36923,0.0239 v 0 m -0.19337,0.57368 c 0.42012,0.14318 0.86819,-0.0562 1.59349,0.15747 v 0 a 8.22,8.22 0 0 1 1.14483,0.65746 0.68,0.68 0 0 0 0.2894,-0.0187 1.13,1.13 0 0 0 0.69972,-0.64652 l 1.12961,-1.74656 a 17.52,17.52 0 0 1 2.94525,-3.26694 c 3.06217,-2.85363 4.35236,-3.04732 5.60519,-5.21271 a 9.41,9.41 0 0 0 0.7858,-1.79447 4.64,4.64 0 0 1 -1.55024,0.51114 v 0 c -0.005,-0.0699 0.11682,-0.20798 0.30349,-0.42047 a 9.83,9.83 0 0 0 1.03826,-1.29973 1.89,1.89 0 0 0 -0.811,-0.60892 v 0 a 7.4,7.4 0 0 0 -0.82058,-0.13732 0.11,0.11 0 0 1 0.0679,-0.0344 c -0.008,-0.12973 0.23399,-0.25564 0.51206,-0.60432 a 2.4,2.4 0 0 0 0.42125,-0.76879 l -0.0998,0.006 a 2,2 0 0 0 -0.64771,-0.0984 c -0.3792,0.0245 -0.61289,0.12983 -0.71527,0.0964 v 0 c -0.0876,-0.11458 0.19566,-0.38343 0.35428,-0.87469 a 2.53,2.53 0 0 0 0.1109,-0.91908 1.84,1.84 0 0 0 -0.77802,0.21067 c -0.35826,0.19353 -0.51306,0.43402 -0.6061,0.38993 v 0 c -0.12426,-0.0621 0.0508,-0.45422 -0.005,-1.00178 a 2.16,2.16 0 0 0 -0.29888,-0.90259 3.85,3.85 0 0 0 -0.96435,0.58347 c -0.56166,0.45721 -0.78273,0.91243 -0.94498,0.88284 v 0 c -0.12427,-0.0621 0.11835,-0.64899 0.26366,-1.81079 -0.0148,-0.22952 0.0434,-0.41367 0.0665,-0.67571 0.0463,-0.52408 0.0752,-1.00695 0.0834,-1.49851 a 3.19,3.19 0 0 0 -0.34023,0.1623 c 0,0 -0.19377,0.10273 -0.37627,0.22476 -0.49022,0.32232 -0.52591,0.54509 -0.68558,0.55542 l -0.0599,0.004 c -0.39951,-0.13449 -0.71782,-1.6471 -0.78773,-1.95322 a 12.77,12.77 0 0 1 -0.24885,-1.98809 7.13,7.13 0 0 0 -1.56652,1.34393 c -0.67202,0.76498 -1.12802,1.61619 -1.33276,1.54927 v 0 c -0.11365,-0.0528 -0.0245,-0.37921 -0.16271,-0.81119 a 1.63,1.63 0 0 0 -0.54285,-0.6463 7.39,7.39 0 0 0 -0.76918,1.12199 c -0.59407,1.04052 -0.70914,2.05005 -0.87332,1.99053 v 0 c -0.113,-0.0428 -0.10889,-0.4439 -0.35395,-0.9792 a 3.91,3.91 0 0 0 -0.61341,-0.9624 9.67,9.67 0 0 0 -0.83932,1.27684 c -0.8927,1.69115 -0.9739,3.06927 -1.33315,3.09251 v 0 c -0.18479,-0.0682 -0.28498,-0.53271 -0.65983,-1.37026 a 13.32,13.32 0 0 0 -0.99953,-1.81927 13.08,13.08 0 0 0 -0.5785,3.60486 13.22,13.22 0 0 0 0.29346,2.98729 c 0.81739,4.11582 3.1124,12.17447 3.21418,12.5086 a 1.39,1.39 0 0 0 0.44987,0.91286 1.11,1.11 0 0 0 0.24983,0.14418 z"
       id="path68"
       style="fill:#3d7c2f"
       inkscape:transform-center-x="-6.3162728"
       inkscape:transform-center-y="-65.286825" />
    <path
       class="m"
       d="m 130.02932,297.16228 0.69469,1.90913 -1.22749,3.48651 a 0.29,0.29 0 0 0 0.18484,0.37886 0.29,0.29 0 0 0 0.37886,-0.18484 l 1.2262,-3.50647 1.72171,-1.11347 a 0.29,0.29 0 0 0 0.0939,-0.40691 0.27,0.27 0 0 0 -0.14875,-0.13067 0.34,0.34 0 0 0 -0.25946,0.0168 l -1.50316,0.92897 -0.59872,-1.66482 a 0.32,0.32 0 0 0 -0.18191,-0.17863 0.35,0.35 0 0 0 -0.19959,0.0129 0.3,0.3 0 0 0 -0.18115,0.45264 z"
       id="path70"
       style="fill:#b26102"
       inkscape:transform-center-x="6.2046667"
       inkscape:transform-center-y="-24.883061" />
    <path
       class="m"
       d="m 133.71184,287.01339 a 0.29,0.29 0 0 0 0.41913,-0.0271 l 1.66466,-1.53065 0.38475,2.22981 a 0.3,0.3 0 0 0 0.34609,0.23816 0.29,0.29 0 0 0 0.24814,-0.34674 l -0.47496,-2.69496 1.80854,-5.34791 a 0.3,0.3 0 0 0 -0.18484,-0.37885 0.3,0.3 0 0 0 -0.37886,0.18484 l -1.80855,5.3479 -2.01387,1.86389 a 0.29,0.29 0 0 0 -0.0102,0.46163 z"
       id="path72"
       style="fill:#b26102"
       inkscape:transform-center-x="1.6549745"
       inkscape:transform-center-y="-41.170922" />
    <path
       class="n"
       d="m 144.6682,274.52005 a 0.5,0.5 0 0 1 -0.20797,-0.11682 c 0,0 -0.004,-0.0599 -0.10402,-0.21373 a 3.71,3.71 0 0 0 -0.32847,-0.74034 4.44,4.44 0 0 0 -0.44853,-0.58226 l -0.005,-0.0698 a 1.06,1.06 0 0 1 0.25524,-0.23697 v 0 a 11,11 0 0 0 1.99997,-2.23377 17.28,17.28 0 0 1 6.08801,-5.49447 0.64,0.64 0 0 0 0.0213,0.32932 0.62,0.62 0 0 0 0.39441,0.3653 2.09,2.09 0 0 0 1.10768,-0.0717 9.87,9.87 0 0 1 1.30627,-0.25485 5.87,5.87 0 0 1 1.66816,0.0725 15.75,15.75 0 0 1 -1.05201,1.86179 c -0.71992,1.10879 -1.03022,1.26916 -1.2858,1.34582 a 1.84,1.84 0 0 1 -0.65862,0.0426 c -0.16965,0.011 -0.70435,-0.0446 -0.84237,0.45533 -0.13801,0.49995 0.0491,0.75841 1.19032,1.20567 l -0.13971,0.009 a 12.48,12.48 0 0 1 -1.88606,0.12201 l -0.35925,0.0232 a 0.63,0.63 0 0 0 -0.68428,0.57537 0.6,0.6 0 0 0 0.43179,0.63345 2.93,2.93 0 0 0 0.38695,0.0952 8.58,8.58 0 0 1 1.36497,0.3426 l 0.0798,-0.005 c 0.27718,0.10233 0.54568,0.22525 0.67993,0.28671 -0.28389,0.25887 -0.56906,0.49777 -0.87419,0.73797 a 15.38,15.38 0 0 1 -1.59198,1.10508 5.63,5.63 0 0 1 -0.97661,0.39386 5.55,5.55 0 0 1 -1.0568,0.23872 12.12,12.12 0 0 1 -2.5344,0.0136 l -1.54037,-0.1108 v 0 a 1.07,1.07 0 0 1 -0.395,-0.0646"
       id="path74"
       style="fill:#30ac5a"
       inkscape:transform-center-x="-12.476593"
       inkscape:transform-center-y="-54.881116" />
    <path
       class="o"
       d="m 138.96772,270.35936 c 0,0 0,0 -0.0599,0.004 a 0.78,0.78 0 0 1 -0.24507,-0.53529 l -0.005,-0.0798 c -0.005,-0.0798 -2.37231,-8.32422 -3.20098,-12.45935 a 13.38,13.38 0 0 1 -0.27508,-2.8582 12.41,12.41 0 0 1 0.21018,-2.01778 l 0.22123,0.47671 c 0.12849,0.2823 0.22447,0.52661 0.29725,0.72232 0.20257,0.49796 0.33493,0.84013 0.7132,0.95596 v 0 a 0.86,0.86 0 0 0 0.23339,0.045 c 0.61871,-0.04 0.80339,-0.59309 1.0196,-1.27848 a 12.41,12.41 0 0 1 0.86881,-2.06038 c 0.0994,-0.16677 0.19823,-0.34352 0.30765,-0.51093 a 1.21,1.21 0 0 1 0.009,0.13971 3.11,3.11 0 0 1 0.20098,0.62833 0.88,0.88 0 0 0 0.51744,0.7181 l 0.14969,-0.01 c 0.56528,0.0636 0.75126,-0.46948 0.93917,-0.97266 a 8.82,8.82 0 0 1 0.57534,-1.32991 c 0.0808,-0.14552 0.16155,-0.29104 0.25295,-0.42722 a 1.23,1.23 0 0 1 0.0174,0.26943 0.77,0.77 0 0 0 0.41958,0.75449 v 0 c 0.5431,0.18533 0.86526,-0.25639 1.30681,-0.86617 0.20341,-0.26368 0.42419,-0.56856 0.67619,-0.85543 a 7.16,7.16 0 0 1 0.61185,-0.61077 c 0.0207,0.31933 0.10119,0.63479 0.16435,0.99146 0.40271,1.88794 0.80839,2.27255 1.15736,2.40029 a 0.58,0.58 0 0 0 0.26333,0.0431 0.84,0.84 0 0 0 0.6399,-0.332 l 0.10332,-0.10689 c 0.008,0.11975 0.0155,0.2395 0.0226,0.34927 0.007,0.10977 -0.0421,0.43362 -0.0678,0.65574 -0.0662,0.52537 -0.15082,0.92166 -0.21193,1.21622 -0.10068,0.45745 -0.20811,0.96545 0.28832,1.2039 v 0 0 c 0.44072,0.15187 0.71944,-0.18683 0.90547,-0.40931 a 4.34,4.34 0 0 1 0.56453,-0.56762 l 0.26715,-0.20768 a 0.45,0.45 0 0 1 0.007,0.10977 2,2 0 0 1 -0.0269,0.51281 0.86,0.86 0 0 0 0.35395,0.97919 l 0.0798,-0.005 a 0.81,0.81 0 0 0 0.80667,-0.23256 v 0 a 1.38,1.38 0 0 1 -0.12421,0.24854 0.86,0.86 0 0 0 -0.0452,1.00501 0.8,0.8 0 0 0 0.30424,0.2108 0.94,0.94 0 0 0 0.56881,-0.0368 l 0.13971,-0.009 -0.18861,0.18255 a 0.85,0.85 0 0 0 -0.35363,0.88468 0.74,0.74 0 0 0 0.45011,0.45188 1.23,1.23 0 0 0 0.38438,0.0553 1.36,1.36 0 0 1 0.4362,0.082 0.94,0.94 0 0 1 0.22729,0.10555 7.83,7.83 0 0 1 -0.68811,0.82614 l -0.0753,0.075 c -0.2253,0.23503 -0.5626,0.59756 -0.31465,1.02244 a 0.66,0.66 0 0 0 0.34932,0.28805 1.08,1.08 0 0 0 0.68856,-0.0445 l -0.24168,0.44653 a 8.05,8.05 0 0 1 -2.53685,2.60921 34.85,34.85 0 0 0 -2.95698,2.46603 17.52,17.52 0 0 0 -3.03858,3.37319 l -1.12961,1.74656 v 0 0 c -0.11553,0.22793 -0.22014,0.31487 -0.27937,0.32872 a 1.72,1.72 0 0 1 -0.20991,-0.14676 3.44,3.44 0 0 0 -0.91431,-0.50202 v 0 a 3.3,3.3 0 0 0 -1.22168,-0.14143 1.18,1.18 0 0 1 -0.36923,0.0239 v 0"
       id="path76"
       style="fill:#069951"
       inkscape:transform-center-x="-5.9950661"
       inkscape:transform-center-y="-65.044357" />
    <path
       class="m"
       d="m 136.53548,293.48461 a 5.17,5.17 0 0 0 0.15943,-3.26711 2.89,2.89 0 0 0 -1.72161,-1.983 v 0 a 2.94,2.94 0 0 0 -2.55977,0.39607 5.46,5.46 0 0 0 -2.20601,5.86464 2.93,2.93 0 0 0 1.73158,1.98235 v 0 a 2.61,2.61 0 0 0 1.08068,0.13051 3.35,3.35 0 0 0 1.47844,-0.53656 5.16,5.16 0 0 0 2.03726,-2.5869 z m -2.3557,2.15656 a 2.72,2.72 0 0 1 -1.21353,0.44928 1.9,1.9 0 0 1 -0.82797,-0.0968 v 0 a 2.37,2.37 0 0 1 -1.35649,-1.60579 5,5 0 0 1 1.96885,-5.34825 2.33,2.33 0 0 1 2.04151,-0.35252 v 0 a 2.38,2.38 0 0 1 1.36646,1.60514 5,5 0 0 1 -1.97883,5.34889 z"
       id="path78"
       style="fill:#b26102"
       inkscape:transform-center-x="4.0568916"
       inkscape:transform-center-y="-32.344946" />
    <path
       class="n"
       d="m 134.49992,272.2417 v 0 a 8.84,8.84 0 0 1 -1.94685,-1.43732 l -0.16935,-0.13936 -1.57985,-1.34081 c -1.59981,-1.33952 -1.981,-1.65557 -2.44373,-2.45737 a 9.08,9.08 0 0 1 -0.78128,-1.85343 8.23,8.23 0 0 1 -0.22134,-1.098 4.29,4.29 0 0 1 0.68832,0.41643 1.47,1.47 0 0 0 0.40597,0.23428 0.63,0.63 0 0 0 0.63544,-0.0912 c 0.43903,-0.33905 0.2165,-0.83572 0.0529,-1.19591 a 5.75,5.75 0 0 1 -0.40097,-1.08638 2.89,2.89 0 0 1 -0.0187,-0.2894 l 0.0837,0.0547 0.14681,0.10073 a 0.64,0.64 0 0 0 0.26109,0.16348 0.64,0.64 0 0 0 0.46902,-0.0303 c 0.52468,-0.2544 0.38005,-0.78617 0.19967,-1.40582 -0.0103,-0.15966 -0.0918,-0.33477 -0.13336,-0.51246 -0.0416,-0.17769 -0.1073,-0.57427 -0.22169,-1.25831 q -0.12825,-0.74327 -0.21658,-1.48913 a 7.15,7.15 0 0 1 1.18509,0.8152 c 0.22248,0.18603 0.41501,0.37399 0.60755,0.56195 a 3.3,3.3 0 0 0 1.05601,0.83357 1,1 0 0 0 0.68856,-0.0445 1,1 0 0 0 0.53589,-0.54573 l 0.15351,-0.26045 c 0.64396,2.674 1.32068,4.92501 1.89592,6.69156 0.19904,0.5984 0.3395,1.22063 0.49188,1.87216 a 16.23,16.23 0 0 0 0.52827,1.97 l 0.076,0.24561 a 8.3,8.3 0 0 1 0.34238,1.11021 0.81,0.81 0 0 1 0.0278,0.4291 l -0.14969,0.01 a 3.38,3.38 0 0 0 -0.98242,0.30405 3.25,3.25 0 0 0 -0.80791,0.52325 0.82,0.82 0 0 1 -0.19183,0.13266 0.34,0.34 0 0 1 -0.25946,0.0168"
       id="path80"
       style="fill:#30ac5a"
       inkscape:transform-center-x="5.3819818"
       inkscape:transform-center-y="-59.820772" />
    <path
       class="m"
       d="m 134.79276,290.40067 a 0.39,0.39 0 0 1 0.0946,-0.0863 0.28,0.28 0 0 1 0.35831,0.11712 3.47,3.47 0 0 1 -1.09567,4.43999 0.27,0.27 0 0 1 -0.36506,-0.0666 0.27,0.27 0 0 1 0.0666,-0.36506 3,3 0 0 0 1.18015,-1.73981 3,3 0 0 0 -0.24885,-1.98809 0.24,0.24 0 0 1 0.01,-0.31129 z"
       id="path82"
       style="fill:#b26102"
       inkscape:transform-center-x="2.8306373"
       inkscape:transform-center-y="-32.102203" />
    <path
       class="m"
       d="m 129.40213,305.90099 a 19.52,19.52 0 0 0 3.99561,-1.59125 17.22,17.22 0 0 0 1.9274,-1.1869 24.39,24.39 0 0 0 2.94183,-2.54521 24.77,24.77 0 0 0 2.52166,-2.99904 38.39,38.39 0 0 0 2.9612,-5.9636 27.84,27.84 0 0 0 2.38369,-11.63815 24.37,24.37 0 0 0 -0.5506,-4.48381 2.61,2.61 0 0 1 -1.45696,0.0942 0.93,0.93 0 0 1 -0.32291,-0.18955 c -0.27817,-0.27261 -0.14398,-0.52179 -0.49658,-1.17039 -0.35261,-0.64859 -0.79075,-0.76054 -0.8623,-1.24693 -0.0715,-0.4864 0.45049,-1.09136 0.30045,-1.24199 v 0 c -0.18478,-0.0682 -0.71745,0.52742 -1.45367,0.45479 l -0.20956,0.0136 a 5.71,5.71 0 0 0 -0.71568,-0.37458 l -0.11974,0.008 c -0.67412,-0.19689 -0.92196,-4.8e-4 -1.29154,-0.13691 l -0.1542,-0.0602 c -0.5296,-0.28641 -0.64623,-0.85006 -0.79979,-0.90025 v 0 c -0.25945,0.0168 0.0717,1.10769 -0.49675,1.61544 -0.26521,0.23761 -0.42523,0.0876 -1.18007,0.3469 -0.75483,0.25927 -0.82111,0.474 -1.28432,0.59415 a 2.27,2.27 0 0 1 -1.28895,-0.097 4.83,4.83 0 0 1 -0.46391,-0.20047 43.92,43.92 0 0 0 -3.2882,4.47159 33.74,33.74 0 0 0 -4.8534,11.56744 20.7,20.7 0 0 0 -0.29093,7.89525 17.58,17.58 0 0 0 0.81177,3.25438 26.05,26.05 0 0 0 2.15348,4.94129 c 0.27242,0.49345 0.0537,1.76021 -0.41044,3.72427 0.65424,-1.19473 1.26141,-2.80729 1.99341,-2.95485 z m -1.07086,-1.06309 a 26.41,26.41 0 0 1 -2.09906,-4.87466 17,17 0 0 1 -0.7947,-3.14526 18.33,18.33 0 0 1 -0.10094,-4.81353 l 3.22993,1.13386 a 0.3,0.3 0 0 0 0.37886,-0.18484 0.3,0.3 0 0 0 -0.18549,-0.38884 l -3.35226,-1.16603 c 0.1035,-0.87851 0.25467,-1.63986 0.36562,-2.24829 a 29.25,29.25 0 0 1 0.99246,-3.71181 l 2.23484,0.77736 a 0.3,0.3 0 0 0 0.38884,-0.18549 0.3,0.3 0 0 0 -0.18484,-0.37886 l -2.24482,-0.77671 a 32.71,32.71 0 0 1 2.45624,-5.24951 l 1.90712,0.66828 a 0.30463092,0.30463092 0 1 0 0.20335,-0.57432 l -1.8041,-0.62484 c 0.28835,-0.49966 0.56994,-0.94877 0.8142,-1.35539 a 42.12,42.12 0 0 1 2.86978,-4.12386 l 0.0898,-0.006 a 2.84,2.84 0 0 0 1.63082,0.11497 2.27,2.27 0 0 0 0.67178,-0.304 3.46,3.46 0 0 1 0.65182,-0.30271 3.3,3.3 0 0 1 0.64154,-0.15173 1.28,1.28 0 0 0 0.75097,-0.31915 1.57,1.57 0 0 0 0.46181,-0.7614 1.33,1.33 0 0 0 0.19864,0.12745 l 0.23727,0.1049 a 1.8,1.8 0 0 0 0.70693,0.0845 1.51,1.51 0 0 1 0.61518,0.0604 l 0.0998,-0.006 a 1.35,1.35 0 0 1 0.3316,0.16895 1.33,1.33 0 0 0 0.72918,0.27349 2,2 0 0 0 0.63866,-0.0413 1.9,1.9 0 0 0 0.022,0.33929 1.47,1.47 0 0 0 0.49783,0.8797 2.38,2.38 0 0 1 0.43725,0.56295 2.58,2.58 0 0 1 0.21706,0.56717 1.37,1.37 0 0 0 0.39963,0.75578 1.61,1.61 0 0 0 0.52155,0.31699 2.6,2.6 0 0 0 1.19655,0.0629 24.18,24.18 0 0 1 0.41495,3.7811 c 0.02,0.30935 0.0394,0.60873 0.009,0.91133 l -4.28554,-1.49648 a 0.3,0.3 0 0 0 -0.37886,0.18485 0.29,0.29 0 0 0 0.18484,0.37886 l 4.47034,1.56468 a 24.28,24.28 0 0 1 -0.82091,5.43433 l -2.80306,-1.04122 a 0.3,0.3 0 0 0 -0.38884,0.18548 0.3,0.3 0 0 0 0.18485,0.37886 l 2.8536,1.04798 a 40.81,40.81 0 0 1 -1.3739,3.85673 c -0.31758,0.82222 -0.68859,1.7481 -1.15616,2.73033 l -3.5087,-1.10581 a 0.3,0.3 0 0 0 -0.37886,0.18485 0.32,0.32 0 0 0 0.18549,0.38883 l 3.40216,1.16281 a 22.76,22.76 0 0 1 -1.2142,2.14285 24.67,24.67 0 0 1 -2.72377,3.28267 25.55,25.55 0 0 1 -3.40018,2.89554 14,14 0 0 1 -1.31326,0.76637 19.42,19.42 0 0 1 -3.90839,1.54553 1.45,1.45 0 0 0 -0.69526,0.40573 1.74,1.74 0 0 0 -0.15789,-0.89167 z"
       id="path84"
       style="fill:#b26102"
       inkscape:transform-center-x="2.1476183"
       inkscape:transform-center-y="-34.905243" />
  </g>
  <g
     inkscape:groupmode="layer"
     id="layer1"
     inkscape:label="Layer 1"
     style="display:none"
     sodipodi:insensitive="true">
    <path
       class="i"
       d="m 170.66855,134.35899 c 2.92,-3 8.14,-9.24 9.15,-18.13 1.48,-13 -7,-22.779999 -13.48,-30.279999 -4.9,-5.66 -13.86,-16 -19.36,-13.77 -8.84,3.61 -2.92,37.409999 -2.31,40.839999 a 123.79,123.79 0 0 0 4.5,17.43"
       id="path48"
       style="fill:#5e5a5c" />
    <path
       class="j"
       d="m 185.77855,192.97899 c -1.9,-3.36 -7.84,-4.86 -13.22,-1.69 a 36.55,36.55 0 0 0 -4.18,-2.8 33.11,33.11 0 0 0 15.45,-24.29 c 1.06,-10 -2.51,-22.66 -13.16,-29.46 -9.1,-5.8 -18.79,-4.39 -21.5,-3.9 a 133.17,133.17 0 0 0 -9.48,-30.24 c -6.07,-13.429999 -12.68,-28.079999 -20.52,-27.819999 -8.79,0.29 -17.84,19.33 -16.21,36.099999 1.84,18.91 16.79,30.07 19.86,32.27 a 40.62,40.62 0 0 0 -4,11.17 c -0.59,3 -3,15 3.22,25.57 a 30.53,30.53 0 0 0 7.83,8.71 v 0 a 36.27,36.27 0 0 0 -7,13.06 33.74,33.74 0 0 0 -1.16,5.66 82.73,82.73 0 0 0 12.59,2.52 c 11.14,1.37 13.16,-0.63 21.93,1.09 8,1.57 10.43,4.08 13.7,2.23 a 9.69,9.69 0 0 0 4.33,-6.17 9.85,9.85 0 0 0 7.76,-1.21 c 3.45,-2.31 5.67,-7.44 3.76,-10.8 z"
       id="path50"
       style="fill:#737172" />
    <path
       class="i"
       d="m 124.80855,91.658991 c -2.71,-0.64 -12.68,12.449999 -9.51,25.579999 2.87,11.82 15.16,18.56 16.57,17.36 0.78,-0.65 -2.17,-3.33 -3.57,-9.83 -1.13,-5.21 0.23,-6 -0.21,-17.85 a 53.45,53.45 0 0 0 -1.24,-9.449999 c -0.84,-3.75 -1.25,-5.63 -2.04,-5.81 z"
       id="path52"
       style="fill:#5e5a5c" />
    <path
       class="d"
       d="m 131.37855,136.06899 a 5,5 0 0 1 -1.57,-0.29 24.5,24.5 0 0 1 -8.52,-5.78 26.81,26.81 0 0 1 -7.28,-12.4 c -2.56,-10.62 3,-21.089999 7,-25.199999 1.57,-1.59 2.94,-2.25 4.08,-2 v 0 c 1.6,0.38 2,2.14 3,6.83 a 56.26,56.26 0 0 1 1.27,9.689999 102.11,102.11 0 0 1 -0.13,11.21 19.32,19.32 0 0 0 0.31,6.41 26.58,26.58 0 0 0 2.82,7.42 c 0.75,1.41 1.46,2.74 0.31,3.71 a 2,2 0 0 1 -1.29,0.4 z m -7,-42.999999 a 11.91,11.91 0 0 0 -3.46,3.67 c -3.28,4.779999 -6.13,12.599999 -4.29,20.179999 2.16,9.08 9.98,14.68 13.38,16.1 a 29.25,29.25 0 0 1 -3,-8 22.25,22.25 0 0 1 -0.37,-7.14 94.82,94.82 0 0 0 0.13,-10.94 52.56,52.56 0 0 0 -1.21,-9.209999 35.63,35.63 0 0 0 -1.21,-4.66 z m 0.28,-0.11"
       id="path54"
       style="fill:#494546" />
    <path
       class="d"
       d="m 135.88855,140.25899 a 1.31,1.31 0 0 1 -1,-0.49 37.68,37.68 0 0 1 -6.52,-11.88 c -1.85,-5.67 -1.73,-10.09 -1.62,-14.78 0,-1.59 0.09,-3.22 0.05,-4.93 a 62.72,62.72 0 0 0 -5.5,-23.579999 1.33,1.33 0 0 1 2.44,-1 65.29,65.29 0 0 1 5.68,24.549999 c 0,1.77 0,3.44 0,5.06 -0.11,4.45 -0.22,8.65 1.49,13.88 a 34.73,34.73 0 0 0 6.06,11 1.32,1.32 0 0 1 -1,2.16 z"
       id="path56"
       style="fill:#494546" />
    <path
       class="i"
       d="m 159.53855,202.37899 a 7.61,7.61 0 0 1 12.65,-3.78 7.8,7.8 0 0 1 1.4,8.48 c -0.13,0.32 -1.9,4.36 -5.86,4.75 a 7.49,7.49 0 0 1 -5.82,-2.38 c -0.49,-0.53 -3.15,-3.3 -2.37,-7.07 z"
       id="path86"
       style="fill:#5e5a5c" />
    <path
       class="i"
       d="m 172.52855,191.13899 c 1.39,-1.54 3.3,-1.65 5.91,-1.79 2.28,-0.13 4,-0.22 5.57,0.92 2.57,1.92 2.36,5.7 2.33,6.35 a 9.28,9.28 0 0 1 -5.09,7.7 c -2.18,1.05 -5.5,1.45 -6.54,0.05 -0.82,-1.09 0.4,-2.44 -0.59,-4.31 -0.7,-1.35 -1.6,-1.15 -2.37,-2.38 a 5.84,5.84 0 0 1 0.78,-6.54 z"
       id="path88"
       style="fill:#5e5a5c" />
    <g
       id="g972"
       transform="translate(37.008547,57.598991)">
      <path
         class="d"
         d="m 141,102.89 a 0.94,0.94 0 0 0 -1.34,-0.13 l -2.33,1.92 -1.8,-2.13 a 1,1 0 0 0 -1.34,-0.11 0.94,0.94 0 0 0 -0.11,1.33 l 2.19,2.59 0.1,3.82 a 0.94,0.94 0 0 0 0.94,0.93 v 0 a 1,1 0 0 0 0.92,-1 l -0.09,-3.69 2.7,-2.22 a 1,1 0 0 0 0.16,-1.31 z"
         id="path58" />
      <path
         class="d"
         d="m 142.82,103.82 a 0.7,0.7 0 0 1 -0.49,-0.2 0.67,0.67 0 0 1 0,-0.94 10.19,10.19 0 0 1 8.4,-2.69 0.66,0.66 0 0 1 0.57,0.74 0.66,0.66 0 0 1 -0.75,0.57 9,9 0 0 0 -4.13,0.42 9.1,9.1 0 0 0 -3.18,1.92 0.62,0.62 0 0 1 -0.42,0.18 z"
         id="path90" />
      <path
         class="d"
         d="m 142.82,106.37 a 0.66,0.66 0 0 1 -0.3,-1.26 15.11,15.11 0 0 1 7.21,-1.67 14.68,14.68 0 0 1 2.94,0.36 0.68,0.68 0 0 1 0.5,0.8 0.67,0.67 0 0 1 -0.8,0.5 13.45,13.45 0 0 0 -2.67,-0.33 13.76,13.76 0 0 0 -6.58,1.53 0.66,0.66 0 0 1 -0.3,0.07 z"
         id="path92" />
      <path
         class="d"
         d="m 150.32,109.31 a 0.66,0.66 0 0 1 -0.27,-0.06 9.87,9.87 0 0 0 -2.59,-0.76 10.25,10.25 0 0 0 -4.65,0.43 0.66407831,0.66407831 0 1 1 -0.42,-1.26 11.28,11.28 0 0 1 8.2,0.37 0.67,0.67 0 0 1 -0.27,1.28 z"
         id="path94" />
      <path
         class="d"
         d="m 132,104.13 a 0.66,0.66 0 0 1 -0.45,-0.18 9.12,9.12 0 0 0 -3.18,-1.93 9,9 0 0 0 -4.13,-0.41 0.68,0.68 0 0 1 -0.75,-0.57 0.67,0.67 0 0 1 0.57,-0.75 10.27,10.27 0 0 1 8.4,2.69 0.67,0.67 0 0 1 0,0.94 0.67,0.67 0 0 1 -0.46,0.21 z"
         id="path96" />
      <path
         class="d"
         d="m 132,106.67 a 0.66,0.66 0 0 1 -0.3,-0.07 13.85,13.85 0 0 0 -6.58,-1.53 13.45,13.45 0 0 0 -2.67,0.33 0.6622122,0.6622122 0 1 1 -0.3,-1.29 14.69,14.69 0 0 1 2.94,-0.37 15.15,15.15 0 0 1 7.21,1.68 0.66,0.66 0 0 1 0.3,0.89 0.68,0.68 0 0 1 -0.6,0.36 z"
         id="path98" />
      <path
         class="d"
         d="m 124.47,109.61 a 0.66,0.66 0 0 1 -0.61,-0.4 0.66,0.66 0 0 1 0.34,-0.87 11.27,11.27 0 0 1 2.94,-0.86 11.49,11.49 0 0 1 5.26,0.48 0.66,0.66 0 0 1 0.42,0.84 0.66,0.66 0 0 1 -0.84,0.42 10.11,10.11 0 0 0 -4.65,-0.42 9.85,9.85 0 0 0 -2.59,0.75 0.66,0.66 0 0 1 -0.27,0.06 z"
         id="path100" />
    </g>
    <path
       class="i"
       d="m 115.42855,78.168991 c 0.74,-0.76 1.45,-1.56 2.21,-2.3 2,-1.94 2.92,-2.58 2.77,-2.91 -0.23,-0.5 -2.79,0.05 -4.22,0.58 -6.33,2.33 -9,10.8 -10.76,16.57 a 44.78,44.78 0 0 0 -2.18,20.209999 44.46,44.46 0 0 0 4.65,14.39 c 0.54,1 0.18,0.23 8.29,11 2.12,2.89 4.9,2.17 5.82,4.27 1.29,3 -1.16,6.07 -2.69,9.35 -5.44,11.73 1.07,25.27 1.69,26.55 4.65,9.37 13.63,14.09 14.35,13.38 0.87,-0.87 -11.17,-9 -12.92,-23 a 41,41 0 0 1 1.42,-17.58 c 1.63,-4.47 3.42,-6.09 2.78,-9 -0.94,-4.28 -5.57,-4.81 -10.58,-9.84 -4.3,-4.31 -5.91,-9 -7.27,-12.65 -4.28,-11.35 -1.61,-21.999999 -0.73,-24.999999 a 37.31,37.31 0 0 1 7.37,-14.02 z"
       id="path102"
       style="fill:#5e5a5c" />
    <path
       class="d"
       d="m 186.93855,191.93899 a 8.42,8.42 0 0 0 -5.42,-3.78 12.67,12.67 0 0 0 -7.77,0.68 l -2.89,-0.79 a 35.63,35.63 0 0 0 5.89,-5.31 33.59,33.59 0 0 0 8.4,-18.78 c 1,-9.12 -1.77,-22.16 -12.44,-29.82 a 32.26,32.26 0 0 0 8.43,-17.76 c 1.54,-13.56 -7.32,-23.809999 -13.8,-31.299999 -5.41,-6.26 -14.48,-16.74 -20.86,-14.13 -4.35,1.77 -6.15,8.9 -5.53,21.78 0.15,3 0.41,5.94 0.71,8.679999 -0.25,-0.58 -0.5,-1.16 -0.76,-1.729999 -6.42,-14.21 -13,-28.9 -21.77,-28.61 -2.76,0.09 -5.59,1.71 -8.21,4.7 -6.51,7.41 -10.41,21.23 -9.28,32.829999 a 43.27,43.27 0 0 0 9.75,23.11 54.73,54.73 0 0 0 9.73,9.44 41.77,41.77 0 0 0 -3.63,10.5 c -2.57,12.83 0.42,21.5 3.38,26.51 a 31.89,31.89 0 0 0 7.14,8.26 37.2,37.2 0 0 0 -6.44,12.48 36.49,36.49 0 0 0 -1.2,5.88 1.32,1.32 0 0 0 1,1.44 86.19,86.19 0 0 0 12.79,2.56 65.45,65.45 0 0 0 11.75,0.43 37.89,37.89 0 0 1 10.09,0.64 55.94,55.94 0 0 1 6.78,1.83 16.06,16.06 0 0 0 4.79,1.08 6,6 0 0 0 3,-0.83 10.94,10.94 0 0 0 4.62,-5.8 12.38,12.38 0 0 0 1.59,0.11 10.71,10.71 0 0 0 5.95,-1.73 c 3.88,-2.58 6.58,-8.38 4.21,-12.57 z m -39.46,-118.529999 c 1.86,-0.76 4.81,0.52 8.54,3.7 a 91.37,91.37 0 0 1 9.31,9.71 c 6.5,7.51 14.58,16.859999 13.17,29.249999 a 29.73,29.73 0 0 1 -8.05,16.6 32,32 0 0 0 -20.22,-3.73 135.57,135.57 0 0 0 -4.22,-16.24 170.07,170.07 0 0 1 -2.4,-20.099999 c -0.73,-15 2.11,-18.47 3.87,-19.19 z m 33.76,128.879999 a 8.22,8.22 0 0 1 -5.51,1.22 7.4,7.4 0 0 0 -0.88,-4.2 8.43,8.43 0 0 0 -5.42,-3.78 13.13,13.13 0 0 0 -10.18,1.95 1.33,1.33 0 0 0 1.44,2.23 10.49,10.49 0 0 1 8.11,-1.59 5.75,5.75 0 0 1 3.74,2.5 c 1.57,2.78 -0.53,7.43 -3.3,9 -1.47,0.83 -2.62,0.53 -5.7,-0.47 a 57.92,57.92 0 0 0 -7.09,-1.91 40.62,40.62 0 0 0 -10.7,-0.69 62.12,62.12 0 0 1 -11.32,-0.41 84.26,84.26 0 0 1 -11.29,-2.17 34,34 0 0 1 7,-15.94 35.86,35.86 0 0 0 4.3,2.6 1.33,1.33 0 0 0 1.21,-2.36 30.86,30.86 0 0 1 -12.46,-11.44 c -2.72,-4.61 -5.46,-12.63 -3,-24.64 a 38.91,38.91 0 0 1 3.82,-10.79 1.34,1.34 0 0 0 -0.4,-1.71 c -5.26,-3.76 -17.67,-14.34 -19.32,-31.33 -1.2,-12.279999 3.55,-25.059999 8.62,-30.839999 2.13,-2.42 4.3,-3.73 6.31,-3.8 3,-0.1 6.18,2.57 9.75,8.17 3.34,5.23 6.47,12.17 9.5,18.879999 a 129.21,129.21 0 0 1 4.92,12.59 124.1,124.1 0 0 0 4.52,17.52 v 0 0.07 a 0.17,0.17 0 0 1 0,0.05 0.43,0.43 0 0 0 0,0.07 v 0 a 0.21,0.21 0 0 0 0,0.06 v 0 0 0.05 0 0 0 0 h 0.05 v 0 h 0.06 v 0 h 0.07 v 0 h 0.07 v 0 h 0.07 0.49 c 3.45,-0.62 12.37,-1.51 20.56,3.72 a 26.22,26.22 0 0 1 9.29,10.3 5.72,5.72 0 0 0 -2,4.51 c 0,3 1.85,5.33 4.21,5.33 a 3.1,3.1 0 0 0 0.81,-0.11 32.83,32.83 0 0 1 0.2,8.17 c -1.35,12.77 -11.22,24 -24,27.26 a 32.82,32.82 0 0 1 -3.81,0.73 1.33,1.33 0 0 0 0.17,2.65 h 0.17 a 32,32 0 0 0 4.13,-0.79 34.63,34.63 0 0 0 8.66,-3.52 l 2.95,0.8 a 1.31,1.31 0 0 0 0.14,1.15 1.33,1.33 0 0 0 1.84,0.39 10.47,10.47 0 0 1 8.1,-1.59 5.73,5.73 0 0 1 3.74,2.51 c 2.32,3.35 0.22,7.71 -2.64,9.6 z"
       id="path108"
       style="fill:#494546" />
    <path
       class="d"
       d="m 159.22855,155.80899 c 2.37,0 4.22,-2.34 4.22,-5.33 0,-2.99 -1.85,-5.32 -4.22,-5.32 -2.37,0 -4.22,2.34 -4.22,5.32 0,2.98 1.86,5.33 4.22,5.33 z"
       id="path110"
       style="fill:#494546" />
    <g
       id="g963"
       transform="translate(37.008547,57.598991)">
      <path
         class="i"
         d="m 113.48,104.11 c -1.59,0.11 -1.77,2 -4.88,3.36 -1.82,0.83 -3.48,1 -3.45,1.2 a 12,12 0 0 0 3.15,-0.15 c 1.6,-0.19 2.1,-0.35 2.22,-0.14 0.29,0.49 -2,1.58 -3.1,4.08 -0.92,2.14 -0.54,4.49 -0.18,4.56 0.18,0 0.31,-0.49 1.08,-1.75 0.51,-0.86 1.4,-2.17 1.6,-2.08 0.2,0.09 -0.84,1.69 -0.51,3.42 a 4.64,4.64 0 0 0 1.8,2.66 c 0.37,-1.5 0.57,-1.77 0.68,-1.76 0.26,0 0.07,1.64 0.6,3.35 a 8.31,8.31 0 0 0 2.1,3.37 c -0.63,-2.34 -0.62,-2.92 -0.47,-3 0.39,-0.15 1.35,3.63 4.17,4.67 1.57,0.58 3.78,0.45 4.59,-0.7 0.81,-1.15 -0.41,-2.69 -1.74,-6.81 -1.63,-5.06 -0.73,-5.91 -2.39,-9.11 -0.57,-1.08 -2.75,-5.34 -5.27,-5.17 z"
         id="path106" />
      <path
         class="d"
         d="m 119.65,126.81 a 4.6,4.6 0 0 1 -1.58,-0.27 6.09,6.09 0 0 1 -2.81,-2.29 0.68,0.68 0 0 1 -0.33,0.55 0.66,0.66 0 0 1 -0.8,-0.1 8.75,8.75 0 0 1 -2.27,-3.65 8.5,8.5 0 0 1 -0.28,-1.22 l -0.15,0.07 a 0.65,0.65 0 0 1 -0.63,-0.1 5.23,5.23 0 0 1 -2,-3.07 5.29,5.29 0 0 1 -0.08,-0.78 c -0.2,0.35 -0.34,0.62 -0.46,0.84 -0.26,0.51 -0.52,1 -1.1,0.88 a 0.88,0.88 0 0 1 -0.61,-0.48 7,7 0 0 1 0.3,-5 9.31,9.31 0 0 1 2.31,-3.11 l -0.74,0.09 c -0.26,0 -1.18,0.14 -2,0.19 -1,0.07 -1.73,0.12 -1.87,-0.57 0,-0.28 0,-0.66 0.67,-0.89 0.18,-0.07 0.42,-0.13 0.71,-0.22 a 21.62,21.62 0 0 0 2.46,-0.83 14.41,14.41 0 0 0 4.67,-3.21 0.66,0.66 0 0 1 0.94,0 0.67,0.67 0 0 1 0,0.94 16,16 0 0 1 -4.18,3.08 c 0.64,-0.08 1.06,-0.06 1.32,0.39 0.38,0.66 -0.21,1.21 -0.84,1.79 a 8.44,8.44 0 0 0 -2.23,2.88 6.7,6.7 0 0 0 -0.52,2.6 l 0.24,-0.4 c 0.31,-0.51 0.67,-1 1,-1.44 0.33,-0.44 0.88,-1.19 1.51,-0.88 0.63,0.31 0.37,1 0.22,1.39 a 4.81,4.81 0 0 0 -0.37,2.49 3.45,3.45 0 0 0 0.8,1.55 c 0.25,-0.79 0.55,-1.23 1.1,-1.18 0.55,0.05 0.72,0.72 0.78,1.47 a 10.61,10.61 0 0 0 0.39,2.34 5.4,5.4 0 0 0 0.25,0.67 0.71,0.71 0 0 1 0.49,-0.69 c 0.68,-0.27 1,0.36 1.45,1.15 0.59,1.1 1.58,2.93 3.19,3.5 a 5.15,5.15 0 0 0 4.06,-0.66 0.66206118,0.66206118 0 1 1 0.62,1.17 7.73,7.73 0 0 1 -3.63,1.01 z"
         id="path112" />
    </g>
  </g>
  <g
     inkscape:groupmode="layer"
     id="layer3"
     inkscape:label="Layer 2"
     style="display:inline">
    <ellipse
       style="fill:#171717;fill-opacity:0.309804;fill-rule:evenodd;stroke:none;stroke-width:6.46092;stroke-linecap:round;stroke-linejoin:round;paint-order:markers fill stroke;stop-color:#000000"
       id="path3515"
       cx="-32.628834"
       cy="324.12778"
       rx="90.653244"
       ry="30.781704" />
    <g
       id="g3789"
       inkscape:transform-center-x="68.605634"
       inkscape:transform-center-y="-82.408787"
       transform="rotate(-94.326323,69.725155,326.16616)">
      <path
         id="path1340"
         style="mix-blend-mode:normal;fill:url(#linearGradient3760);fill-opacity:1;fill-rule:evenodd;stroke:none;stroke-width:7;stroke-linecap:round;stroke-linejoin:round;paint-order:markers fill stroke;stop-color:#000000"
         d="M 242.23268,234.43836 C 232.75628,300.40707 189.71709,343.25974 141.35452,339.99483 89.622973,336.50248 51.390218,281.56609 56.378425,207.67646 60.833785,141.67981 97.991449,89.102692 142.74036,81.111519 174.90468,124.43614 215.27049,184.4712 242.23268,234.43836 Z"
         sodipodi:nodetypes="csscc"
         inkscape:transform-center-x="-1.2152638"
         inkscape:transform-center-y="-128.82732" />
      <path
         id="path3503"
         style="mix-blend-mode:normal;fill:#ff80e5;fill-opacity:1;fill-rule:evenodd;stroke:none;stroke-width:7;stroke-linecap:round;stroke-linejoin:round;paint-order:markers fill stroke;stop-color:#000000"
         d="M 229.39529,278.95733 C 218.3947,302.87836 201.99972,320.94207 182.79664,331.04187 107.12075,305.15385 70.428194,180.5795 77.110249,134.52095 88.903405,113.17955 104.84399,96.755149 122.9119,87.754953 118.42475,115.87562 196.66383,271.19967 229.39529,278.95733 Z"
         sodipodi:nodetypes="ccccc"
         inkscape:transform-center-x="-4.9942768"
         inkscape:transform-center-y="-130.06928" />
      <path
         id="path3505"
         style="mix-blend-mode:normal;fill:#f2f2f2;fill-opacity:1;fill-rule:evenodd;stroke:none;stroke-width:7;stroke-linecap:round;stroke-linejoin:round;paint-order:markers fill stroke;stop-color:#000000"
         d="m 216.14822,301.59401 c -5.64453,7.67663 -11.97818,14.34459 -18.84595,19.87765 C 141.46578,303.42245 82.127601,152.3503 89.11423,116.29222 c 4.982605,-6.36414 10.402155,-12.02336 16.17053,-16.868275 -4.72524,26.104775 66.0002,195.079345 110.86346,202.170065 z"
         sodipodi:nodetypes="ccccc"
         inkscape:transform-center-x="-4.4784528"
         inkscape:transform-center-y="-129.01989" />
    </g>
    <path
       style="fill:#000000;stroke:none;stroke-width:1px;stroke-linecap:butt;stroke-linejoin:miter;stroke-opacity:1"
       d="m -180.13926,271.84515 c 46.03524,-14.48046 110.190305,9.3871 128.707994,34.68072 C -51.713273,224.28026 -37.160539,185.21853 8.981495,169.098 -65.517174,137.018 -132.24441,194.47478 -180.13926,271.84515 Z"
       id="path3643"
       sodipodi:nodetypes="cccc"
       inkscape:transform-center-x="103.17161"
       inkscape:transform-center-y="-103.6666" />
  </g>
</svg>
